<?xml version="1.0" encoding="UTF-8"?>
<svg id="_レイヤー_2" data-name="レイヤー 2" xmlns="http://www.w3.org/2000/svg" viewBox="0 0 464.22 171.43">
  <defs>
    <style>
      .cls-1 {
        fill: none;
        stroke: #fffdf3;
        stroke-miterlimit: 10;
      }
    </style>
  </defs>
  <g id="letter">
    <g>
      <path class="cls-1" d="M14.31,7.86c-.46,17.48-.69,42.32-.69,69.92,0,1.61,0,2.53.46,2.53s1.15-.46,2.07-1.84c8.05-10.81,21.62-17.71,37.26-17.71,29.9,0,52.21,22.54,52.21,54.74s-22.31,54.74-52.21,54.74c-13.57,0-27.14-5.52-36.34-16.56-1.38-1.84-2.07-2.76-2.53-2.76-.23,0-.46,0-.46,9.43s-6.44,9.2-6.9,9.2c-3.45,0-6.67-2.53-6.67-7.82,0-23.69.46-74.06.46-111.55C.97,31.32.97,15.68.51,8.32.28,1.42,5.34.5,7.41.5c3.45,0,6.9,2.53,6.9,7.13v.23ZM91.82,115.5c0-25.76-17.02-43.01-38.87-43.01S13.85,89.74,13.85,115.5s17.25,42.32,39.1,42.32,38.87-16.56,38.87-42.32Z"/>
      <path class="cls-1" d="M204.52,152.07c-6.9,11.73-22.31,18.86-36.34,18.86-23.23,0-37.26-15.87-37.26-31.74,0-11.5,7.59-23.23,24.61-28.52,14.26-4.37,32.89-7.82,42.55-9.43,2.76-.46,3.68-1.15,3.68-2.76,0-1.15.23-2.53.23-3.68,0-12.65-5.29-22.54-23.92-22.54-12.42,0-21.62,5.29-26.91,11.04-1.38,1.61-3.22,2.3-4.83,2.3-3.45,0-6.44-2.53-6.44-6.21,0-8.74,19.32-18.63,39.1-18.63,21.39,0,35.88,9.43,35.88,35.19,0,2.07,0,4.14-.23,6.44-.69,7.59-1.15,17.94-1.15,25.53,0,19.09,3.68,23.69,12.88,28.52,1.84.92,2.53,2.76,2.53,4.6,0,3.22-2.76,7.13-6.9,7.13-1.38,0-12.88-3.22-16.1-15.87-.23-.69-.23-.92-.69-.92,0,0-.46.23-.69.69ZM201.3,123.32c0-2.53.23-5.06.23-7.82,0-1.84-.69-2.53-2.3-2.53h-.69c-36.11,5.75-55.2,10.35-55.2,26.45,0,9.66,9.2,19.32,24.61,19.32,21.16,0,33.35-15.87,33.35-35.42Z"/>
      <path class="cls-1" d="M303.65,170.7c-35.42,0-54.05-26.91-54.05-54.28,0-30.59,21.62-56.35,52.9-56.35,23.23,0,38.41,12.65,38.41,19.55,0,3.91-3.22,6.9-6.67,6.9-2.07,0-4.14-.92-5.98-3.22-5.98-7.59-15.87-11.27-25.76-11.27-22.54,0-39.33,18.63-39.33,43.24,0,21.62,14.26,42.78,40.25,42.78,11.5,0,22.77-4.37,28.98-13.11,1.84-2.53,3.91-3.45,5.98-3.45,3.91,0,7.36,3.22,7.36,7.13,0,6.67-17.25,22.08-42.09,22.08Z"/>
      <path class="cls-1" d="M376.32,163.11c.69-29.67.92-75.21.92-111.55,0-18.17,0-34.04-.23-44.62,0-4.14,3.45-6.21,6.9-6.21s6.9,2.07,6.9,6.21v.23c-.46,16.1-.46,45.54-.46,66.47v24.15c0,2.53,1.15,3.45,3.45,3.45,1.38,0,2.99-.46,4.6-1.61,14.03-9.66,36.8-25.99,50.14-36.11,1.61-1.15,2.99-1.61,4.37-1.61,4.14,0,7.13,3.91,7.13,7.59,0,1.84-.69,3.68-2.53,4.83-14.03,9.66-34.27,23.46-46.92,31.51-1.38.92-2.07,1.61-2.07,2.3s.69,1.38,1.84,2.53c11.96,11.5,42.78,37.95,50.6,45.31,2.07,1.84,2.76,3.91,2.76,5.98,0,3.91-3.45,7.36-7.36,7.36-1.84,0-3.45-.46-5.06-2.07-7.13-6.9-40.94-39.33-51.52-50.37-2.3-2.53-4.14-2.76-6.44-2.76-3.68,0-3.68,1.61-3.68,23.69,0,6.21,0,14.03.23,24.84,0,4.37-3.45,6.44-6.9,6.44s-6.67-1.84-6.67-5.75v-.23Z"/>
    </g>
  </g>
</svg>