<?xml version="1.0" encoding="UTF-8"?>
<svg id="_レイヤー_2" data-name="レイヤー 2" xmlns="http://www.w3.org/2000/svg" viewBox="0 0 170 170">
  <defs>
    <style>
      .cls-1 {
        fill: #68b1ab;
        stroke-width: 0px;
      }

      .cls-2 {
        opacity: .8;
      }
    </style>
  </defs>
  <g id="gray">
    <g class="cls-2">
      <g>
        <path class="cls-1" d="M154.06,0H15.94C7.14,0,0,7.14,0,15.94v138.12c0,8.8,7.14,15.94,15.94,15.94h138.12c8.8,0,15.94-7.14,15.94-15.94V15.94c0-8.8-7.14-15.94-15.94-15.94ZM147.69,11.62c3.48,0,6.31,2.82,6.31,6.31s-2.82,6.31-6.31,6.31-6.31-2.82-6.31-6.31,2.82-6.31,6.31-6.31ZM124.29,11.62c3.48,0,6.31,2.82,6.31,6.31s-2.82,6.31-6.31,6.31-6.31-2.82-6.31-6.31,2.82-6.31,6.31-6.31ZM100.88,11.62c3.48,0,6.31,2.82,6.31,6.31s-2.82,6.31-6.31,6.31-6.31-2.82-6.31-6.31,2.82-6.31,6.31-6.31ZM154.06,156.72H15.94c-1.47,0-2.66-1.19-2.66-2.66V34.53h143.44v119.53c0,1.47-1.19,2.66-2.66,2.66Z"/>
        <rect class="cls-1" x="31.88" y="63.75" width="50.47" height="10.62"/>
        <rect class="cls-1" x="31.88" y="116.88" width="108.91" height="10.62"/>
        <rect class="cls-1" x="100.94" y="63.75" width="39.84" height="39.84"/>
        <polygon class="cls-1" points="76.05 100.94 82.34 100.94 82.34 90.31 31.88 90.31 31.88 100.94 70.74 100.94 76.05 100.94"/>
      </g>
    </g>
  </g>
</svg>