<?xml version="1.0" encoding="UTF-8"?>
<svg id="_レイヤー_2" data-name="レイヤー 2" xmlns="http://www.w3.org/2000/svg" viewBox="0 0 30 93.92">
  <defs>
    <style>
      .cls-1 {
        fill: none;
        stroke: #68b1ab;
        stroke-miterlimit: 10;
      }

      .cls-2 {
        fill: #68b1ab;
        stroke-width: 0px;
      }
    </style>
  </defs>
  <g id="letter">
    <g>
      <g>
        <line class="cls-1" x1="4.5" x2="4.5" y2="30"/>
        <line class="cls-1" x1="4.53" y1="29.96" x2="11.5" y2="27.43"/>
      </g>
      <g>
        <path class="cls-2" d="M21.88,63.92h-13.76c-4.48,0-8.12,3.64-8.12,8.12v13.76c0,4.48,3.64,8.12,8.12,8.12h13.76c4.48,0,8.12-3.64,8.12-8.12v-13.76c0-4.48-3.64-8.12-8.12-8.12ZM21.88,92.17h-13.76c-3.51,0-6.36-2.85-6.36-6.36v-13.76c0-3.51,2.85-6.36,6.36-6.36h13.76c3.51,0,6.36,2.85,6.36,6.36v13.76c0,3.51-2.85,6.36-6.36,6.36Z"/>
        <path class="cls-2" d="M15,70.7c-4.52,0-8.2,3.68-8.2,8.2s3.68,8.2,8.2,8.2,8.2-3.68,8.2-8.2-3.68-8.2-8.2-8.2ZM15,85.35c-3.55,0-6.44-2.89-6.44-6.44s2.89-6.44,6.44-6.44,6.44,2.89,6.44,6.44-2.89,6.44-6.44,6.44Z"/>
        <path class="cls-2" d="M23.4,67.79c-1.34,0-2.42,1.09-2.42,2.42s1.09,2.42,2.42,2.42,2.42-1.09,2.42-2.42-1.09-2.42-2.42-2.42ZM23.4,70.87c-.37,0-.67-.3-.67-.67s.3-.67.67-.67.67.3.67.67-.3.67-.67.67Z"/>
      </g>
    </g>
  </g>
</svg>