<?xml version="1.0" encoding="UTF-8"?>
<svg id="_レイヤー_2" data-name="レイヤー 2" xmlns="http://www.w3.org/2000/svg" viewBox="0 0 433.12 2076.89">
  <defs>
    <style>
      .cls-1 {
        fill: none;
        stroke: #404648;
        stroke-miterlimit: 10;
        stroke-width: .88px;
      }

      .cls-2 {
        opacity: .2;
      }
    </style>
  </defs>
  <g id="background-color">
    <g class="cls-2">
      <path class="cls-1" d="M3.92,368.36c0-19.12,15.06-38.24,48.09-46.35,63.16-15.06,272.9-56.2,322.73-62.58,9.85-1.16,14.48-5.79,14.48-10.43s-5.21-9.27-15.64-11.01c-53.88-7.53-247.99-49.25-320.99-67.79C19.56,162.09,3.92,141.81,3.92,122.11s16.8-40.56,47.51-46.93C136.02,57.22,324.91,14.35,407.18,1.02c1.16,0,2.32-.58,3.48-.58,11.59,0,16.8,9.85,16.8,19.7,0,8.69-4.63,17.38-13.91,19.12-85.17,14.49-288.54,57.94-351.12,70.11-13.33,2.32-19.7,8.11-19.7,13.91,0,6.37,7.53,12.75,20.28,15.64,49.83,11.01,248.57,53.31,328.52,68.37,24.91,4.64,37.08,22.6,37.08,40.56s-13.33,37.66-36.5,42.3c-67.79,13.33-259.57,51.57-328.52,63.73-13.91,2.32-20.28,8.11-20.28,13.33,0,6.37,6.95,12.17,19.7,15.64,55.62,14.49,268.84,63.73,350.54,79.38,10.43,1.74,15.07,10.43,15.07,18.54,0,9.27-6.37,19.12-16.8,19.12-6.37,0-31.87-3.48-362.13-83.43-28.97-6.95-45.77-27.23-45.77-48.09Z"/>
      <path class="cls-1" d="M215.98,561.3c125.73,0,216.7,89.81,216.7,210.32s-90.97,210.33-216.7,210.33S.44,892.14.44,771.63s85.17-210.32,215.54-210.32ZM215.98,944.29c110.67,0,184.25-77.06,184.25-172.66s-73.58-172.66-184.25-172.66-182.51,77.06-182.51,172.66,72.43,172.66,182.51,172.66Z"/>
      <path class="cls-1" d="M214.82,1239.21c-2.32,0-5.21,2.32-8.69,6.37-29.55,31.87-79.96,56.78-117.04,79.38-26.07,16.22-43.46,33.03-46.35,59.1-1.16,11.59-10.43,17.96-19.7,17.96-9.85,0-19.12-7.53-19.12-23.76,0-12.75,9.27-52.73,66.05-84.01,42.3-23.76,139.06-72.43,140.22-112.98,0-8.11,1.16-33.03,1.16-48.09,0-16.22-3.48-18.54-11.01-18.54-44.62,0-155.86,1.74-177.3,1.74-11.59,0-17.38-9.85-17.38-19.12s5.21-17.96,16.8-17.96c110.67,1.16,281.59.58,344.17,2.32,63.16,1.74,63.16,59.68,63.16,104.29,0,12.75-.58,25.49-1.16,34.19-5.79,84.59-55.04,121.1-104.29,121.1s-99.66-37.08-106.61-96.76c0-3.48-1.16-5.21-2.9-5.21ZM399.07,1216.03c.58-8.11,1.16-20.86,1.16-34.19,0-42.88-8.11-63.16-41.14-65.47-14.49-1.16-73.58-.58-108.35-1.16-8.69,0-9.85,8.69-9.85,56.2,0,18.54.58,37.66,1.16,48.67,4.06,53.88,43.46,84.59,81.7,84.59s71.85-27.23,75.32-88.65Z"/>
      <path class="cls-1" d="M21.88,1504.58c-11.01,0-16.8-9.85-16.8-19.7,0-9.27,5.79-19.12,16.8-19.12h.58c63.16,1.16,140.8,1.74,213.8,1.74,66.05,0,128.05-.58,173.24-1.74h.58c11.59,0,17.96,9.85,17.96,19.7,0,9.27-6.37,19.12-17.96,19.12h-.58c-30.71-.58-63.73-1.16-92.12-1.16s-52.73.58-64.89.58c-7.53,0-11.59,1.74-11.59,18.54,0,9.85.58,19.7,16.22,35.34,46.93,45.19,130.37,121.67,162.81,146.01,5.21,4.06,7.53,9.85,7.53,15.06,0,10.43-8.69,20.28-18.54,20.28-8.11,0-13.91-1.16-172.66-156.44-3.48-3.48-6.37-5.21-8.69-5.21-2.9,0-5.21,1.74-8.69,4.64-56.78,55.62-128.63,132.1-177.3,181.35-4.06,4.06-9.27,5.79-14.49,5.79-11.01,0-22.02-9.27-22.02-20.28,0-5.21,2.9-11.59,8.69-16.8,53.88-48.67,126.89-122.83,183.09-174.98,4.63-4.06,11.01-12.17,11.01-29.55,0-5.21-.58-9.85-.58-14.48,0-4.06-1.16-9.27-9.85-9.27-13.91-.58-42.88-.58-78.8-.58-29.55,0-63.16,0-96.18,1.16h-.58Z"/>
      <path class="cls-1" d="M.44,1943.19c0-93.86,59.68-133.84,75.9-133.84,10.43,0,17.96,9.27,17.96,19.12,0,5.79-2.32,11.59-9.27,15.64-30.71,16.8-50.41,52.73-50.41,99.66,0,55.62,35.34,95.02,78.8,95.02,27.81,0,57.94-16.8,79.38-54.46,16.8-29.55,32.45-61.42,48.09-92.71,21.44-42.88,58.52-63.74,94.44-63.74,49.83,0,96.76,39.4,96.76,111.83s-41.14,115.3-59.68,115.3c-9.85,0-18.54-8.11-18.54-17.38,0-5.79,2.9-11.59,9.85-16.22,20.86-14.49,37.66-40.56,37.66-82.28,0-47.51-30.71-75.9-64.89-75.9-23.76,0-49.25,14.49-66.05,45.77-13.91,26.07-32.45,67.21-46.35,92.13-28.97,52.73-70.69,75.32-110.09,75.32-54.46,0-113.56-44.61-113.56-133.26Z"/>
    </g>
  </g>
</svg>