<?xml version="1.0" encoding="UTF-8"?>
<svg id="_レイヤー_2" data-name="レイヤー 2" xmlns="http://www.w3.org/2000/svg" viewBox="0 0 359.99 16.04">
  <defs>
    <style>
      .cls-1 {
        fill: #fffdf3;
        stroke-width: 0px;
      }
    </style>
  </defs>
  <g id="letter">
    <g>
      <path class="cls-1" d="M5.99,11.94c-3.3,0-5.99-2.67-5.99-5.97S2.69.02,5.99.02s5.97,2.66,5.97,5.95-2.67,5.97-5.97,5.97ZM11.3,5.97c0-2.94-2.37-5.35-5.31-5.35S.66,3.03.66,5.97s2.39,5.35,5.33,5.35,5.31-2.4,5.31-5.35ZM6.24,9.59c-1.83,0-3.46-1.23-3.46-3.54,0-1.79,1.14-3.68,3.52-3.68,1.54,0,2.43.94,2.43,1.33,0,.26-.21.46-.45.46-.13,0-.26-.06-.37-.19-.4-.51-1.06-.75-1.71-.75-1.7,0-2.51,1.42-2.51,2.8,0,1.58,1.01,2.69,2.5,2.69.78,0,1.57-.32,1.98-.9.13-.16.26-.24.38-.24.26,0,.48.26.48.53,0,.4-1.07,1.49-2.8,1.49Z"/>
      <path class="cls-1" d="M19.39,15.45c.02-1.23.03-3.75.03-6.05,0-1.9-.02-3.65-.03-4.45v-.02c0-.35.22-.51.46-.51s.5.16.5.48c0,.18-.02.46-.02.61,0,.1,0,.16.03.16s.06-.05.13-.13c.56-.75,1.49-1.23,2.58-1.23,2.08,0,3.63,1.57,3.63,3.83s-1.55,3.79-3.63,3.79c-.94,0-1.89-.38-2.53-1.17-.1-.11-.14-.19-.18-.19s-.03.06-.03.26c0,.42.02,3.01.02,4.16,0,.66,0,1.03-.48,1.03-.24,0-.48-.18-.48-.54v-.02ZM25.76,8.13c0-1.79-1.2-2.98-2.72-2.98s-2.72,1.18-2.72,2.98,1.2,2.95,2.72,2.95,2.72-1.15,2.72-2.95Z"/>
      <path class="cls-1" d="M28.42,8.1c0-2.22,1.57-3.82,3.7-3.82s3.73,1.6,3.73,3.82-1.6,3.84-3.73,3.84-3.7-1.54-3.7-3.84ZM34.9,8.1c0-1.81-1.25-2.99-2.79-2.99s-2.77,1.18-2.77,2.99,1.23,2.98,2.77,2.98,2.79-1.19,2.79-2.98Z"/>
      <path class="cls-1" d="M39.17,11.43c0,.29-.22.43-.46.43-.26,0-.51-.16-.51-.45v-.02c.03-1.3.06-2.8.06-4.18,0-.9-.02-1.75-.03-2.45v-.02c0-.26.26-.42.5-.42s.48.14.48.45c0,.24-.02.35-.02.58,0,.05.02.08.02.08.02,0,.05-.03.06-.06.71-.98,2.15-1.07,2.34-1.07.34,0,.5.21.5.43s-.18.46-.5.46c-1.14,0-2.4.72-2.43,1.95-.02.42-.02,1.15-.02,2.06,0,.66,0,1.41.02,2.19v.02Z"/>
      <path class="cls-1" d="M45.7,5.28c-.26,0-.26.03-.26.24,0,.61-.05,2.26-.05,3.44,0,1.25.03,2.1,1.28,2.1.14,0,.29-.02.45-.03h.06c.24,0,.38.21.38.42,0,.42-.38.5-1.02.5-2.05,0-2.05-1.74-2.05-2.45,0-1.02.03-2.98.03-3.76v-.26c0-.16-.05-.19-.16-.19h-.94c-.3,0-.45-.21-.45-.42s.14-.42.45-.42h.93c.14,0,.18-.02.18-.16,0-.06.02-.83.02-1.39v-.4c0-.3.24-.46.46-.46.24,0,.46.16.46.5,0,.46-.03,1.75-.03,1.75,0,.18.03.18.24.18h1.42c.3,0,.45.21.45.42s-.14.42-.45.42h-1.41Z"/>
      <path class="cls-1" d="M50.35,11.3c.02-.46.02-1.25.02-2.11,0-1.71-.02-3.67-.02-3.67,0-.19-.02-.21-.21-.21h-1.02c-.27,0-.42-.21-.42-.43s.14-.45.42-.45h1.02c.18,0,.22-.02.22-.18s-.02-.59-.02-1.1v-.42c.05-1.73,1.33-2.67,2.58-2.67.16,0,.72.02.72.45,0,.22-.18.43-.48.43h-.19c-1.04,0-1.65.85-1.7,1.89v.5c0,.38,0,.74.02.95,0,.14.03.16.19.16h1.67c.27,0,.42.22.42.43,0,.22-.14.45-.42.45h-1.68c-.16,0-.18.02-.18.21,0,0,.03,4.45.03,5.78,0,.34-.24.51-.5.51-.24,0-.48-.16-.48-.5v-.02Z"/>
      <path class="cls-1" d="M54.78,8.1c0-2.22,1.57-3.82,3.7-3.82s3.73,1.6,3.73,3.82-1.6,3.84-3.73,3.84-3.7-1.54-3.7-3.84ZM61.27,8.1c0-1.81-1.25-2.99-2.79-2.99s-2.77,1.18-2.77,2.99,1.23,2.98,2.77,2.98,2.79-1.19,2.79-2.98Z"/>
      <path class="cls-1" d="M65.65,11.28c0,.34-.24.5-.5.5s-.5-.16-.5-.5v-.02c.03-1.15.03-3.49.03-5.68s0-4.31-.03-4.96v-.02c0-.35.26-.51.51-.51.24,0,.48.16.48.48v.02c-.02.74-.03,3.12-.03,5.54,0,1.99.02,4,.03,5.14v.02Z"/>
      <path class="cls-1" d="M69.34,1.55c-.75,0-.75-.69-.75-.78,0-.5.45-.74.77-.74.24,0,.78.13.78.74,0,.5-.4.78-.8.78ZM69.87,11.36c0,.32-.26.48-.51.48-.24,0-.5-.16-.5-.48,0-1.36.02-3.23.02-4.72,0-.75,0-1.41-.02-1.86v-.02c0-.29.26-.45.51-.45.24,0,.5.14.5.43v.02c-.02.67-.03,1.98-.03,3.36,0,1.14.02,2.32.03,3.22v.02Z"/>
      <path class="cls-1" d="M72.37,8.1c0-2.22,1.57-3.82,3.7-3.82s3.73,1.6,3.73,3.82-1.6,3.84-3.73,3.84-3.7-1.54-3.7-3.84ZM78.85,8.1c0-1.81-1.25-2.99-2.79-2.99s-2.77,1.18-2.77,2.99,1.23,2.98,2.77,2.98,2.79-1.19,2.79-2.98Z"/>
      <path class="cls-1" d="M88.21,11.3c0,.34-.27.5-.54.5-.26,0-.53-.16-.53-.5v-.02c.03-1.79.05-3.78.05-5.71,0-1.73-.02-3.42-.05-4.91v-.02c0-.35.27-.53.54-.53.26,0,.53.18.53.5v.02c-.02,1.55-.03,3.31-.03,5.14s.02,3.71.03,5.52v.02Z"/>
      <path class="cls-1" d="M90.8,2.99c0-.18.18-.46,1.47-2.66.13-.21.29-.29.45-.29.29,0,.54.24.54.54,0,.11-.03.22-.11.34-1.49,2.18-1.68,2.46-1.94,2.46-.21,0-.42-.18-.42-.4Z"/>
      <path class="cls-1" d="M105.84,11.4c.02-.64.02-1.84.02-2.87,0-.75,0-1.41-.02-1.68-.06-1.23-.8-1.71-1.58-1.71-1.02,0-2.14.79-2.19,1.87-.02.27-.02.78-.02,1.38,0,.98.02,2.18.03,3.01v.02c0,.29-.24.45-.48.45-.22,0-.45-.14-.45-.45v-.02c.02-.64.02-1.84.02-2.87,0-.75,0-1.41-.02-1.68-.06-1.25-.8-1.76-1.58-1.76-1.01,0-2.11.82-2.16,2-.02.27-.02.8-.02,1.41,0,.98.02,2.18.03,2.9v.02c0,.32-.22.48-.45.48-.24,0-.48-.18-.48-.5v-.02c.03-1.26.05-2.94.05-4.43,0-.78,0-1.54-.02-2.13v-.02c0-.29.22-.43.46-.43.22,0,.45.14.45.45v.43c0,.06,0,.1.02.1s.03-.02.05-.05c.51-.66,1.38-1.01,2.19-1.01.93,0,1.82.45,2.14,1.41.61-.94,1.57-1.41,2.5-1.41,1.23,0,2.37.83,2.42,2.4.02.67.03,2.71.03,3.95v.72c0,.35-.24.53-.46.53-.24,0-.48-.18-.48-.48v-.02Z"/>
      <path class="cls-1" d="M116.24,1.63c-.08-.26-.21-.38-.32-.38s-.21.13-.24.4c-.13,1.46-.45,7.44-.53,9.72,0,.32-.27.46-.53.46-.27,0-.53-.16-.53-.45v-.03c.11-2.87.5-7.68.62-10.07.05-.74.58-1.14,1.14-1.14.48,0,.98.3,1.18.91.83,2.45,2.1,7,2.83,9.08.06.18.14.26.24.26.26,0,.32-.22,3.15-9.25.22-.7.75-1.02,1.26-1.02.59,0,1.15.43,1.17,1.25.05,2.13.37,7.59.51,9.92v.05c0,.32-.26.48-.51.48-.27,0-.54-.16-.56-.48-.18-2.35-.42-9.7-.42-9.7-.02-.26-.13-.4-.27-.4-.11,0-.26.11-.34.38-.67,2.22-2.24,7.22-3.04,9.35-.18.45-.58.71-.98.71s-.75-.22-.94-.71c-.5-1.36-2.27-7.39-2.91-9.33Z"/>
      <path class="cls-1" d="M130.12,11.3c0,.34-.27.5-.54.5-.26,0-.53-.16-.53-.5v-.02c.03-1.79.05-3.78.05-5.71,0-1.73-.02-3.42-.05-4.91v-.02c0-.35.27-.53.54-.53.26,0,.53.18.53.5v.02c-.02,1.55-.03,3.31-.03,5.14s.02,3.71.03,5.52v.02Z"/>
      <path class="cls-1" d="M136.72,7.22c0-.32-.06-.35-.22-.61l-3.71-5.63c-.08-.13-.11-.24-.11-.35,0-.29.26-.5.53-.5.19,0,.37.08.5.3.69,1.22,2.19,3.49,3.35,5.22.08.11.14.18.22.18.35,0,3.33-5.04,3.52-5.39.1-.19.27-.27.43-.27.29,0,.59.24.59.56,0,.1-.03.19-.1.29-.74,1.18-2.64,4.08-3.7,5.59-.21.29-.21.3-.21.64,0,.99.02,2.67.02,4.02,0,.37-.27.56-.54.56-.29,0-.56-.19-.56-.56v-4.03Z"/>
      <path class="cls-1" d="M153.39.64c-.03,1.41-.03,2.54-.03,3.67,0,.91,0,1.81.02,2.82.05,3.12-2.1,4.83-4.5,4.83-2.23,0-4.43-1.55-4.43-4.71v-.06c.02-1.06.02-2.16.02-3.28s0-2.21-.03-3.27v-.02c0-.32.26-.48.53-.48.26,0,.51.16.51.48v.02c-.02.61-.02,1.23-.02,1.86,0,1.31.02,2.62.02,3.94v.82c0,2.5,1.68,3.73,3.39,3.73s3.49-1.28,3.49-3.79c0-1.44.02-2.91.02-4.37,0-.74,0-1.46-.02-2.18v-.02c0-.34.26-.5.51-.5s.53.18.53.5v.02Z"/>
      <path class="cls-1" d="M157.8,11.35c0,.3-.27.46-.54.46-.26,0-.53-.16-.53-.46v-.02c.03-1.75.05-3.89.05-5.91,0-1.83-.02-3.54-.05-4.79v-.02c0-.32.27-.5.54-.5.26,0,.53.18.53.5v.02c-.02.85-.03,1.76-.03,2.54s.02,1.46.02,1.79c0,.21.05.32.51.32.27,0,.54-.02.98-.45,1.25-1.3,3.36-3.6,4.03-4.5.11-.14.27-.21.42-.21.29,0,.56.24.56.51,0,.22-.03.38-4.32,4.77-.1.1-.14.18-.14.24,0,.08.05.14.13.24,1.54,1.57,3.65,3.55,5.01,4.9.11.11.16.26.16.4,0,.3-.26.61-.56.61-.14,0-.32-.08-.46-.24-1.34-1.49-3.39-3.51-4.83-5.06-.11-.13-.34-.3-.82-.3-.14,0-.27.02-.4.02-.11,0-.26.03-.26.27-.02.38-.02,1.18-.02,2.18,0,.82,0,1.75.03,2.66v.02Z"/>
      <path class="cls-1" d="M168.4,11.3c0,.34-.27.5-.54.5-.26,0-.53-.16-.53-.5v-.02c.03-1.79.05-3.78.05-5.71,0-1.73-.02-3.42-.05-4.91v-.02c0-.35.27-.53.54-.53.26,0,.53.18.53.5v.02c-.02,1.55-.03,3.31-.03,5.14s.02,3.71.03,5.52v.02Z"/>
      <path class="cls-1" d="M179.15,11.94c-2.59,0-3.7-1.65-3.7-2.1,0-.29.26-.5.53-.5.16,0,.32.06.43.26.46.85,1.46,1.39,2.75,1.39,1.54,0,2.62-.98,2.62-2.18,0-.77-.46-1.6-1.5-2.19-.82-.46-1.7-.9-2.56-1.33-1.18-.59-1.76-1.62-1.76-2.61,0-1.38,1.09-2.67,3.09-2.67s3.19,1.14,3.19,1.65c0,.27-.22.51-.48.51-.16,0-.32-.08-.45-.27-.4-.58-1.12-1.04-2.27-1.04-1.31,0-2.1.85-2.1,1.79,0,.66.4,1.36,1.26,1.82.72.38,1.86.9,2.54,1.28,1.46.8,2.08,1.95,2.08,3.04,0,1.5-1.23,3.14-3.68,3.14Z"/>
      <path class="cls-1" d="M192.94,11.81c-.19,0-.4-.11-.5-.37-.19-.46-.8-2.11-1.3-3.58-.05-.13-.1-.19-.26-.19-.26-.02-1.02-.02-1.84-.02-1.14,0-2.4,0-2.74.02-.14,0-.21.1-.24.19-.42,1.28-.91,2.79-1.15,3.57-.08.27-.3.38-.51.38-.24,0-.5-.16-.5-.43,0-.05.02-.11.03-.16.9-2.9,2.77-8.04,3.54-10.24.21-.58.66-.85,1.09-.85.46,0,.93.29,1.14.86,1.06,2.95,3.17,8.79,3.71,10.07.03.08.05.16.05.24,0,.3-.26.51-.53.51ZM190.7,6.55c-.5-1.5-1.52-4.26-1.78-5.06-.08-.24-.19-.35-.32-.35s-.26.13-.35.38c-.34.91-1.76,5.03-1.76,5.15,0,.06.05.1.18.1.32,0,1.18.02,2.02.02s1.66-.02,1.9-.02c.11,0,.14-.03.14-.08s-.02-.1-.03-.14Z"/>
      <path class="cls-1" d="M196.68,11.3c0,.34-.27.5-.54.5-.26,0-.53-.16-.53-.5v-.02c.03-1.79.05-3.78.05-5.71,0-1.73-.02-3.42-.05-4.91v-.02c0-.35.27-.53.54-.53.26,0,.53.18.53.5v.02c-.02,1.55-.03,3.31-.03,5.14s.02,3.71.03,5.52v.02Z"/>
      <path class="cls-1" d="M203.96,11.33c0,.34-.27.51-.56.51s-.56-.18-.56-.51v-.02c.03-1.41.06-4.29.06-6.74,0-1.28-.02-2.45-.03-3.2,0-.22-.03-.27-1.1-.27-.69,0-1.58.03-2.35.03-.35,0-.53-.24-.53-.46,0-.24.18-.46.51-.46h.02c.98.02,2.67.03,4.35.03,1.38,0,2.74-.02,3.67-.03h.02c.32,0,.48.24.48.46,0,.24-.16.46-.46.46h-.02c-.59-.02-1.17-.03-1.67-.03-.77,0-1.36.02-1.6.03-.14,0-.26.03-.26.24-.02.77-.03,1.81-.03,2.95,0,2.5.05,5.46.06,7v.02Z"/>
      <path class="cls-1" d="M209.53,5.99c0-3.47,2.48-5.99,5.81-5.99s5.81,2.51,5.81,5.99-2.48,5.95-5.81,5.95-5.81-2.35-5.81-5.95ZM220.11,5.99c0-3.06-2.13-5.09-4.77-5.09s-4.77,2.03-4.77,5.09,2.13,5.04,4.77,5.04,4.77-2,4.77-5.04Z"/>
      <path class="cls-1" d="M236.49,11.81c-.19,0-.4-.11-.5-.37-.19-.46-.8-2.11-1.3-3.58-.05-.13-.1-.19-.26-.19-.26-.02-1.02-.02-1.84-.02-1.14,0-2.4,0-2.74.02-.14,0-.21.1-.24.19-.42,1.28-.91,2.79-1.15,3.57-.08.27-.3.38-.51.38-.24,0-.5-.16-.5-.43,0-.05.02-.11.03-.16.9-2.9,2.77-8.04,3.54-10.24.21-.58.66-.85,1.09-.85.46,0,.93.29,1.14.86,1.06,2.95,3.17,8.79,3.71,10.07.03.08.05.16.05.24,0,.3-.26.51-.53.51ZM234.25,6.55c-.5-1.5-1.52-4.26-1.78-5.06-.08-.24-.19-.35-.32-.35s-.26.13-.35.38c-.34.91-1.76,5.03-1.76,5.15,0,.06.05.1.18.1.32,0,1.18.02,2.02.02s1.66-.02,1.9-.02c.11,0,.14-.03.14-.08s-.02-.1-.03-.14Z"/>
      <path class="cls-1" d="M240.06,11.28c0,.34-.24.5-.5.5s-.5-.16-.5-.5v-.02c.03-1.15.03-3.49.03-5.68s0-4.31-.03-4.96v-.02c0-.35.26-.51.51-.51.24,0,.48.16.48.48v.02c-.02.74-.03,3.12-.03,5.54,0,1.99.02,4,.03,5.14v.02Z"/>
      <path class="cls-1" d="M244.22,11.28c0,.34-.24.5-.5.5s-.5-.16-.5-.5v-.02c.03-1.15.03-3.49.03-5.68s0-4.31-.03-4.96v-.02c0-.35.26-.51.51-.51.24,0,.48.16.48.48v.02c-.02.74-.03,3.12-.03,5.54,0,1.99.02,4,.03,5.14v.02Z"/>
      <path class="cls-1" d="M253.07,11.43c0,.29-.22.43-.46.43-.26,0-.51-.16-.51-.45v-.02c.03-1.3.06-2.8.06-4.18,0-.9-.02-1.75-.03-2.45v-.02c0-.26.26-.42.5-.42s.48.14.48.45c0,.24-.02.35-.02.58,0,.05.02.08.02.08.02,0,.05-.03.06-.06.71-.98,2.15-1.07,2.34-1.07.34,0,.5.21.5.43s-.18.46-.5.46c-1.14,0-2.4.72-2.43,1.95-.02.42-.02,1.15-.02,2.06,0,.66,0,1.41.02,2.19v.02Z"/>
      <path class="cls-1" d="M258.59,1.55c-.75,0-.75-.69-.75-.78,0-.5.45-.74.77-.74.24,0,.78.13.78.74,0,.5-.4.78-.8.78ZM259.11,11.36c0,.32-.26.48-.51.48-.24,0-.5-.16-.5-.48,0-1.36.02-3.23.02-4.72,0-.75,0-1.41-.02-1.86v-.02c0-.29.26-.45.51-.45.24,0,.5.14.5.43v.02c-.02.67-.03,1.98-.03,3.36,0,1.14.02,2.32.03,3.22v.02Z"/>
      <path class="cls-1" d="M264.89,4.32c.72,0,1.36.13,1.99.48.08.05.14.06.21.06s.13-.02.19-.06c.42-.29.79-.43,1.23-.43.64,0,.74.27.74.48s-.14.43-.42.43c-.03,0-.08-.02-.11-.02-.08-.02-.18-.02-.26-.02-.53,0-.83.27-.83.46,0,.03.02.06.03.11.16.35.19.75.19,1.02,0,1.39-1.04,2.38-2.91,2.45-1.06.05-2.03.56-2.03,1.18,0,.51.77.56,1.54.56,2.08,0,2.19.02,2.59.08,1.22.18,2.14.91,2.14,2.08,0,1.62-1.55,2.83-4.02,2.83-1.75,0-3.63-.77-3.63-2.38,0-.9.67-1.57,1.5-1.89.11-.05.18-.06.18-.08s-.1-.02-.24-.06c-.53-.16-.94-.51-.94-1.07,0-.32.11-.94,1.12-1.46.11-.06.16-.1.16-.13s-.1-.06-.21-.13c-.61-.35-1.14-1.06-1.14-1.97,0-1.65,1.39-2.54,2.9-2.54h.03ZM265.43,11.83c-.26,0-.51,0-.72.02-1.1.06-2.3.74-2.3,1.76,0,.75.77,1.58,2.64,1.58,1.67,0,3.19-.67,3.19-1.95,0-1.39-1.68-1.41-2.8-1.41ZM264.91,5.06c-1.06,0-2.05.61-2.05,1.76,0,1.74,1.86,1.74,2,1.74.21,0,2.11-.08,2.11-1.76s-1.81-1.75-2.06-1.75Z"/>
      <path class="cls-1" d="M276.24,11.4c.02-.67.03-1.92.03-2.93,0-.66-.02-1.22-.03-1.47-.08-1.33-.93-1.87-1.84-1.87-1.1,0-2.32.83-2.37,2.08-.02.5-.03,1.44-.03,2.58,0,.51,0,1.06.02,1.63v.02c0,.29-.22.43-.46.43s-.5-.16-.5-.45v-.02c.03-1.25.05-4.15.05-6.69,0-1.79,0-3.41-.02-4.15v-.02c0-.26.24-.4.48-.4s.48.14.48.45c0,.59-.02,4.38-.02,4.72,0,.05.02.08.03.08.02,0,.03-.03.06-.06.56-.72,1.47-1.09,2.37-1.09,1.33,0,2.61.83,2.67,2.58.02.51.03,1.7.03,2.8,0,.67,0,1.33-.02,1.76,0,.32-.24.48-.46.48-.24,0-.48-.16-.48-.45v-.02Z"/>
      <path class="cls-1" d="M281.56,5.28c-.26,0-.26.03-.26.24,0,.61-.05,2.26-.05,3.44,0,1.25.03,2.1,1.28,2.1.14,0,.29-.02.45-.03h.06c.24,0,.38.21.38.42,0,.42-.38.5-1.02.5-2.05,0-2.05-1.74-2.05-2.45,0-1.02.03-2.98.03-3.76v-.26c0-.16-.05-.19-.16-.19h-.94c-.3,0-.45-.21-.45-.42s.14-.42.45-.42h.93c.14,0,.18-.02.18-.16,0-.06.02-.83.02-1.39v-.4c0-.3.24-.46.46-.46.24,0,.46.16.46.5,0,.46-.03,1.75-.03,1.75,0,.18.03.18.24.18h1.42c.3,0,.45.21.45.42s-.14.42-.45.42h-1.41Z"/>
      <path class="cls-1" d="M287.48,11.96c-1.67,0-2.59-.96-2.59-1.41,0-.27.24-.46.48-.46.14,0,.29.06.4.21.35.5.93.8,1.71.8.91,0,1.6-.51,1.6-1.2,0-.85-.69-1.17-2.54-2-.88-.38-1.3-1.09-1.3-1.78,0-.94.77-1.84,2.18-1.84s2.22.69,2.22,1.12c0,.26-.21.46-.46.46-.13,0-.29-.06-.42-.22-.26-.3-.66-.56-1.34-.56-.82,0-1.28.48-1.28,1.01,0,.38.26.78.78,1.04.45.21,1.18.51,1.68.77.99.51,1.42,1.26,1.42,2,0,.91-.75,2.07-2.54,2.07Z"/>
      <path class="cls-1" d="M298.17,11.43c0,.29-.22.43-.46.43-.26,0-.51-.16-.51-.45v-.02c.03-1.3.06-2.8.06-4.18,0-.9-.02-1.75-.03-2.45v-.02c0-.26.26-.42.5-.42s.48.14.48.45c0,.24-.02.35-.02.58,0,.05.02.08.02.08.02,0,.05-.03.06-.06.7-.98,2.14-1.07,2.34-1.07.34,0,.5.21.5.43s-.18.46-.5.46c-1.14,0-2.4.72-2.43,1.95-.02.42-.02,1.15-.02,2.06,0,.66,0,1.41.02,2.19v.02Z"/>
      <path class="cls-1" d="M306.11,11.94c-2.03,0-3.62-1.52-3.62-3.78s1.68-3.87,3.57-3.87c2.19,0,3.15,1.71,3.15,2.62,0,.61-.37,1.06-1.17,1.07-.37.02-.91.02-1.5.02-1.2,0-2.56-.02-2.91-.02-.16,0-.19.06-.19.29,0,1.75,1.15,2.82,2.69,2.82,1.17,0,1.82-.5,2.32-1.06.1-.1.21-.14.32-.14.24,0,.48.21.48.46,0,.37-1.12,1.58-3.14,1.58ZM306.07,5.09c-1.54,0-2.51,1.38-2.51,1.97,0,.16.14.16,2,.16.83,0,1.73,0,2.18-.02.38-.02.53-.19.53-.45,0-.46-.56-1.67-2.19-1.67Z"/>
      <path class="cls-1" d="M313.47,11.96c-1.67,0-2.59-.96-2.59-1.41,0-.27.24-.46.48-.46.14,0,.29.06.4.21.35.5.93.8,1.71.8.91,0,1.6-.51,1.6-1.2,0-.85-.69-1.17-2.54-2-.88-.38-1.3-1.09-1.3-1.78,0-.94.77-1.84,2.18-1.84s2.22.69,2.22,1.12c0,.26-.21.46-.46.46-.13,0-.29-.06-.42-.22-.26-.3-.66-.56-1.34-.56-.82,0-1.28.48-1.28,1.01,0,.38.26.78.78,1.04.45.21,1.18.51,1.68.77.99.51,1.42,1.26,1.42,2,0,.91-.75,2.07-2.54,2.07Z"/>
      <path class="cls-1" d="M321.42,11.94c-2.03,0-3.62-1.52-3.62-3.78s1.68-3.87,3.57-3.87c2.19,0,3.15,1.71,3.15,2.62,0,.61-.37,1.06-1.17,1.07-.37.02-.91.02-1.5.02-1.2,0-2.56-.02-2.91-.02-.16,0-.19.06-.19.29,0,1.75,1.15,2.82,2.69,2.82,1.17,0,1.82-.5,2.32-1.06.1-.1.21-.14.32-.14.24,0,.48.21.48.46,0,.37-1.12,1.58-3.14,1.58ZM321.39,5.09c-1.54,0-2.51,1.38-2.51,1.97,0,.16.14.16,2,.16.83,0,1.73,0,2.18-.02.38-.02.53-.19.53-.45,0-.46-.56-1.67-2.19-1.67Z"/>
      <path class="cls-1" d="M327.82,11.43c0,.29-.22.43-.46.43-.26,0-.51-.16-.51-.45v-.02c.03-1.3.06-2.8.06-4.18,0-.9-.02-1.75-.03-2.45v-.02c0-.26.26-.42.5-.42s.48.14.48.45c0,.24-.02.35-.02.58,0,.05.02.08.02.08.02,0,.05-.03.06-.06.71-.98,2.15-1.07,2.34-1.07.34,0,.5.21.5.43s-.18.46-.5.46c-1.14,0-2.4.72-2.43,1.95-.02.42-.02,1.15-.02,2.06,0,.66,0,1.41.02,2.19v.02Z"/>
      <path class="cls-1" d="M335.02,11.84c-.32,0-.64-.22-.82-.66-2.42-6.19-2.42-6.21-2.42-6.37,0-.29.22-.45.45-.45.21,0,.42.11.5.37.19.59,1.71,4.59,2.08,5.68.06.21.14.3.21.3.08,0,.16-.11.22-.27.38-1.01,1.73-4.66,2.08-5.73.08-.22.26-.32.43-.32.26,0,.53.18.53.45,0,.32-1.68,4.61-2.42,6.34-.18.42-.51.66-.85.66Z"/>
      <path class="cls-1" d="M343.37,11.94c-2.03,0-3.62-1.52-3.62-3.78s1.68-3.87,3.57-3.87c2.19,0,3.15,1.71,3.15,2.62,0,.61-.37,1.06-1.17,1.07-.37.02-.91.02-1.5.02-1.2,0-2.56-.02-2.91-.02-.16,0-.19.06-.19.29,0,1.75,1.15,2.82,2.69,2.82,1.17,0,1.82-.5,2.32-1.06.1-.1.21-.14.32-.14.24,0,.48.21.48.46,0,.37-1.12,1.58-3.14,1.58ZM343.34,5.09c-1.54,0-2.51,1.38-2.51,1.97,0,.16.14.16,2,.16.83,0,1.73,0,2.18-.02.38-.02.53-.19.53-.45,0-.46-.56-1.67-2.19-1.67Z"/>
      <path class="cls-1" d="M355.59,11.76c-.16,0-.32-.06-.43-.26-.08-.14-.29-.71-.34-1.01-.03-.18-.05-.24-.08-.24-.02,0-.05.06-.11.14-.69,1.02-1.75,1.5-2.8,1.5-2.08,0-3.65-1.5-3.65-3.83s1.57-3.79,3.65-3.79c1.02,0,1.95.45,2.53,1.18.08.11.14.19.18.19.02,0,.03-.08.03-.3,0-1.92-.02-4.08-.03-4.77-.02-.43.32-.51.48-.51.26,0,.5.18.5.5v.03c-.03.69-.05,2.37-.05,4.23,0,5.04,0,5.15.56,6.18.05.1.06.18.06.27,0,.27-.24.48-.5.48ZM354.57,8.08c0-1.79-1.18-2.96-2.71-2.96-1.62,0-2.72,1.12-2.72,2.96s1.12,2.95,2.72,2.95c1.5,0,2.71-1.17,2.71-2.95Z"/>
      <path class="cls-1" d="M359.18,11.88c-.54,0-.77-.37-.77-.78,0-.53.45-.77.78-.77.58,0,.8.48.8.75,0,.42-.34.8-.82.8Z"/>
    </g>
  </g>
</svg>