<?xml version="1.0" encoding="UTF-8"?>
<svg id="_レイヤー_2" data-name="レイヤー 2" xmlns="http://www.w3.org/2000/svg" viewBox="0 0 344.17 1617.57">
  <defs>
    <style>
      .cls-1 {
        opacity: .2;
      }

      .cls-2 {
        fill: none;
        stroke: #fffdf3;
        stroke-miterlimit: 10;
      }
    </style>
  </defs>
  <g id="letter">
    <g class="cls-1">
      <path class="cls-2" d="M3.26,287c0-14.89,11.96-29.78,38.18-36.1,50.14-11.73,216.66-43.76,256.22-48.73,7.82-.9,11.5-4.51,11.5-8.12s-4.14-7.22-12.42-8.57c-42.78-5.87-196.88-38.35-254.84-52.79C15.68,126.38,3.26,110.59,3.26,95.25s13.34-31.58,37.72-36.55C108.14,44.72,258.1,11.33,323.42.95c.92,0,1.84-.45,2.76-.45,9.2,0,13.34,7.67,13.34,15.34,0,6.77-3.68,13.54-11.04,14.89-67.62,11.28-229.08,45.12-278.76,54.59-10.58,1.8-15.64,6.32-15.64,10.83,0,4.96,5.98,9.93,16.1,12.18,39.56,8.57,197.34,41.51,260.82,53.24,19.78,3.61,29.44,17.6,29.44,31.58s-10.58,29.33-28.98,32.94c-53.82,10.38-206.08,40.16-260.82,49.63-11.04,1.8-16.1,6.32-16.1,10.38,0,4.96,5.52,9.47,15.64,12.18,44.16,11.28,213.44,49.63,278.3,61.81,8.28,1.35,11.96,8.12,11.96,14.44,0,7.22-5.06,14.89-13.34,14.89-5.06,0-25.3-2.71-287.5-64.97-23-5.41-36.34-21.21-36.34-37.45Z"/>
      <path class="cls-2" d="M171.62,437.24c99.82,0,172.04,69.93,172.04,163.78s-72.22,163.78-172.04,163.78S.5,694.87.5,601.02s67.62-163.78,171.12-163.78ZM171.62,735.47c87.86,0,146.28-60.01,146.28-134.45s-58.42-134.45-146.28-134.45-144.9,60.01-144.9,134.45,57.5,134.45,144.9,134.45Z"/>
      <path class="cls-2" d="M170.7,965.12c-1.84,0-4.14,1.8-6.9,4.96-23.46,24.82-63.48,44.22-92.92,61.81-20.7,12.63-34.5,25.72-36.8,46.02-.92,9.02-8.28,13.99-15.64,13.99-7.82,0-15.18-5.87-15.18-18.5,0-9.93,7.36-41.06,52.44-65.42,33.58-18.5,110.4-56.4,111.32-87.98,0-6.32.92-25.72.92-37.45,0-12.63-2.76-14.44-8.74-14.44-35.42,0-123.74,1.35-140.76,1.35-9.2,0-13.8-7.67-13.8-14.89s4.14-13.99,13.34-13.99c87.86.9,223.56.45,273.24,1.8,50.14,1.35,50.14,46.47,50.14,81.21,0,9.93-.46,19.85-.92,26.62-4.6,65.87-43.7,94.3-82.8,94.3s-79.12-28.88-84.64-75.35c0-2.71-.92-4.06-2.3-4.06ZM316.98,947.07c.46-6.32.92-16.24.92-26.62,0-33.39-6.44-49.18-32.66-50.98-11.5-.9-58.42-.45-86.02-.9-6.9,0-7.82,6.77-7.82,43.76,0,14.44.46,29.33.92,37.9,3.22,41.96,34.5,65.87,64.86,65.87s57.04-21.21,59.8-69.03Z"/>
      <path class="cls-2" d="M17.52,1171.75c-8.74,0-13.34-7.67-13.34-15.34,0-7.22,4.6-14.89,13.34-14.89h.46c50.14.9,111.78,1.35,169.74,1.35,52.44,0,101.66-.45,137.54-1.35h.46c9.2,0,14.26,7.67,14.26,15.34,0,7.22-5.06,14.89-14.26,14.89h-.46c-24.38-.45-50.6-.9-73.14-.9s-41.86.45-51.52.45c-5.98,0-9.2,1.35-9.2,14.44,0,7.67.46,15.34,12.88,27.52,37.26,35.19,103.5,94.75,129.26,113.7,4.14,3.16,5.98,7.67,5.98,11.73,0,8.12-6.9,15.79-14.72,15.79-6.44,0-11.04-.9-137.08-121.82-2.76-2.71-5.06-4.06-6.9-4.06-2.3,0-4.14,1.35-6.9,3.61-45.08,43.31-102.12,102.87-140.76,141.22-3.22,3.16-7.36,4.51-11.5,4.51-8.74,0-17.48-7.22-17.48-15.79,0-4.06,2.3-9.02,6.9-13.08,42.78-37.9,100.74-95.65,145.36-136.26,3.68-3.16,8.74-9.47,8.74-23.01,0-4.06-.46-7.67-.46-11.28,0-3.16-.92-7.22-7.82-7.22-11.04-.45-34.04-.45-62.56-.45-23.46,0-50.14,0-76.36.9h-.46Z"/>
      <path class="cls-2" d="M.5,1513.29c0-73.09,47.38-104.22,60.26-104.22,8.28,0,14.26,7.22,14.26,14.89,0,4.51-1.84,9.02-7.36,12.18-24.38,13.08-40.02,41.06-40.02,77.6,0,43.31,28.06,74,62.56,74,22.08,0,46-13.08,63.02-42.41,13.34-23.01,25.76-47.83,38.18-72.19,17.02-33.39,46.46-49.63,74.98-49.63,39.56,0,76.82,30.68,76.82,87.08s-32.66,89.79-47.38,89.79c-7.82,0-14.72-6.32-14.72-13.54,0-4.51,2.3-9.02,7.82-12.63,16.56-11.28,29.9-31.58,29.9-64.07,0-37-24.38-59.11-51.52-59.11-18.86,0-39.1,11.28-52.44,35.64-11.04,20.3-25.76,52.34-36.8,71.74-23,41.06-56.12,58.65-87.4,58.65-43.24,0-90.16-34.74-90.16-103.77Z"/>
    </g>
  </g>
</svg>