<?xml version="1.0" encoding="UTF-8"?>
<svg id="_レイヤー_2" data-name="レイヤー 2" xmlns="http://www.w3.org/2000/svg" viewBox="0 0 67.33 20.57">
  <defs>
    <style>
      .cls-1 {
        fill: none;
        stroke: #68b1ab;
        stroke-linecap: round;
        stroke-miterlimit: 10;
      }

      .cls-2 {
        fill: #fffdf3;
        stroke-width: 0px;
      }
    </style>
  </defs>
  <g id="letter">
    <g>
      <g>
        <path class="cls-2" d="M0,6.85c0-.16.05-.34.16-.53.4-.66.61-1.49.61-2.3,0-.45.32-.66.66-.66.1,0,.74.02.74.8,0,.9-.48,3.38-1.47,3.38-.37,0-.69-.29-.69-.69ZM2.48.91c0-.48.37-.7.75-.7s.77.24.77.7v1.78c.13-.08.27-.13.43-.13.5,0,1.49,1.14,1.49,1.62,0,.4-.38.72-.74.72-.18,0-.35-.1-.46-.3-.21-.43-.51-.85-.72-1.07v10.1c0,.45-.38.67-.77.67s-.75-.22-.75-.67V.91ZM5.65,6.21c-.43,0-.62-.27-.62-.54,0-.3.22-.61.62-.61l3.39.02v-.72l-2.3.02c-.43,0-.62-.26-.62-.51,0-.29.22-.58.62-.58l2.3.02v-.67l-2.87.02c-.45,0-.66-.27-.66-.56,0-.3.22-.61.66-.61h2.87l-.02-.77c0-.48.38-.7.77-.7s.78.24.78.7v.77h3.06c.43,0,.64.29.64.58,0,.3-.21.59-.64.59l-3.07-.02v.67l2.27-.02c.42,0,.61.27.61.54s-.19.54-.61.54l-2.27-.02v.72l3.62-.02c.4,0,.61.29.61.58s-.21.58-.61.58H5.65ZM7.78,11.59c0,.75.02,1.5.03,2.16v.02c0,.45-.35.67-.7.67s-.72-.24-.74-.69c0-.88-.02-1.82-.02-2.77s.02-1.87.02-2.72c.02-.88.38-1.41,1.57-1.44.58-.02,1.22-.03,1.84-.03s1.28.02,1.86.03c1.07.03,1.57.53,1.58,1.36,0,.51.06,4.29.06,4.29v.03c0,.77-.5,1.78-2.11,1.78-1.15,0-1.54-.27-1.54-.8,0-.34.22-.67.64-.67.05,0,.1,0,.14.02.22.05.46.08.69.08.38,0,.69-.14.7-.74,0-.18.02-.38.02-.58h-4.05ZM7.78,9.76v.78h4.05c0-.26-.02-.53-.02-.78h-4.03ZM11.78,8.4c-.03-.5-.22-.5-2.05-.5-1.67,0-1.89.02-1.92.5v.32h3.99l-.02-.32Z"/>
        <path class="cls-2" d="M20.1,5.09l-2.87.02c-.46,0-.67-.29-.67-.59,0-.32.24-.64.67-.64l2.18.02-.02-1.06-1.6.02c-.46,0-.69-.29-.69-.59,0-.32.24-.66.69-.66l1.6.02-.02-.82v-.02c0-.46.37-.69.74-.69s.75.24.75.7v.82l1.58-.02c.45,0,.66.3.66.62,0,.3-.21.62-.66.62l-1.6-.02-.02,1.06,2.06-.02c.43,0,.64.3.64.61,0,.32-.21.62-.64.62l-2.8-.02ZM20.85,11.17l.02,2.45c0,.46-.38.7-.75.7s-.74-.22-.74-.7l.02-2.45-1.84.02c-.46,0-.69-.3-.69-.61,0-.32.24-.66.69-.66l1.84.02.02-1.17-2.18.02c-.46,0-.67-.29-.67-.59,0-.32.24-.64.67-.64l2.85.02h.11c0-.11.03-.22.13-.35.29-.42.59-1.01.78-1.62.08-.22.27-.32.5-.32.37,0,.83.29.83.67s-.69,1.38-.83,1.6h1.3c.43,0,.64.3.64.61,0,.32-.21.62-.64.62l-2.06-.02.02,1.17,1.84-.02c.45,0,.66.32.66.62,0,.32-.21.64-.66.64l-1.84-.02ZM18.96,7.47c-.19,0-.38-.1-.5-.34-.22-.53-.46-.78-.59-.96-.06-.1-.1-.18-.1-.26,0-.32.4-.56.75-.56.61,0,1.22,1.1,1.22,1.39,0,.4-.42.72-.79.72ZM25.86,13.88c-.26,0-.48-.13-.61-.32-.02.48-.38.72-.75.72s-.75-.26-.75-.75c0,0,0-9.54.06-11.25.03-.82.51-1.41,1.62-1.46.42-.02.91-.03,1.41-.03s1.02.02,1.47.03c1.07.03,1.63.66,1.63,1.5,0,1.63-.35,2.72-2.13,2.72s-1.73-.58-1.73-.85c0-.34.21-.66.61-.66.08,0,.16.02.24.03.29.08.53.13.74.13.48,0,.74-.22.74-1.01,0-.61-.3-.62-1.67-.62-1.09,0-1.46,0-1.49.67-.02.4-.02,1.55-.02,2.98.56-.02,1.57-.02,2.39-.02,1.49,0,2.29.02,2.29,1.23,0,.59-.29,2.43-1.25,4.18.48.5,1.06.94,1.76,1.31.26.13.35.35.35.58,0,.42-.34.85-.82.85-.59,0-1.58-.91-2.11-1.52-.08.1-1.26,1.55-1.98,1.55ZM25.73,8.1c0-.4.35-.64.69-.64.26,0,.5.13.58.43.19.75.43,1.41.75,1.99.56-1.23.66-2.48.66-2.62,0-.27-.21-.29-.32-.29-.62.02-2.13.03-2.85.03,0,2.16.02,4.55.02,5.75.06-.08.16-.16.27-.24.59-.37,1.07-.82,1.46-1.33-1.01-1.55-1.25-2.82-1.25-3.07Z"/>
        <path class="cls-2" d="M33.06,4.07c-.46,0-.7-.34-.7-.67s.24-.67.7-.67h4.74c.48,0,.7.34.7.67s-.22.67-.7.67h-4.74ZM38.92,7.81c-.38,0-.58-.32-.58-.66,0-.32.19-.66.56-.66.62-.02,1.44-.02,2.29-.02s1.71,0,2.43.02c1.02.02,1.41.59,1.41,1.22,0,.91-.98,2.45-1.9,3.52.83.61,1.87,1.06,3.12,1.31.42.08.61.4.61.72,0,.42-.3.83-.88.83-.69,0-2.51-.7-3.87-1.84-2.07,1.81-3.94,2.03-4,2.03-.42,0-.74-.37-.78-.74-.4.21-.83.22-1.97.22-.45,0-.91-.02-1.23-.03-.75-.05-1.22-.56-1.23-1.26-.02-.35-.02-.67-.02-.99,0-.45,0-.86.02-1.26.02-.61.4-1.17,1.2-1.22.37-.02.78-.03,1.2-.03.51,0,1.01.02,1.39.03.62.03,1.31.45,1.33,1.14.02.37.02.77.02,1.17s0,.8-.02,1.15c0,.13-.03.26-.06.37,1.2-.26,2.27-.85,3.14-1.58-.9-1.06-1.44-2.19-1.44-2.45,0-.4.4-.67.77-.67.24,0,.48.11.59.38.29.64.64,1.22,1.07,1.73.8-.96,1.23-2.02,1.23-2.26,0-.19-.24-.21-.35-.21h-1.02c-.99,0-2.11.02-2.99.03h-.02ZM33.71,1.87c-.48,0-.74-.34-.74-.66s.26-.66.74-.66h3.33c.45,0,.67.32.67.66s-.22.66-.67.66h-3.33ZM33.75,8.21c-.46,0-.71-.34-.71-.66s.24-.66.71-.66h3.33c.45,0,.67.32.67.66s-.22.66-.67.66h-3.33ZM33.75,6.15c-.46,0-.69-.34-.69-.66s.22-.66.69-.66h3.33c.45,0,.67.32.67.66s-.22.66-.67.66h-3.33ZM36.61,11.36c0-.26,0-.51-.02-.74-.03-.42-.38-.43-1.2-.43-.22,0-.45,0-.69.02-.46.03-.46.3-.46,1.15,0,.26.02.51.02.75.02.34.32.38,1.14.38.91,0,1.18-.1,1.2-.4.02-.22.02-.48.02-.74ZM45.19,3.42c0-.38.32-.54.66-.54.37,0,.77.21.77.56v.11c0,1.95-.88,2.32-2.1,2.32-1.71,0-1.89-.64-1.89-1.86,0-.59.02-1.28.02-1.76,0-.45-.37-.46-.67-.46-.58,0-.96,0-.96.5,0,1.49-.16,2.66-1.44,3.65-.18.14-.37.19-.54.19-.46,0-.83-.38-.83-.75,0-.18.08-.35.27-.48.93-.61,1.1-1.25,1.1-2.4,0-.19-.02-.4-.02-.62v-.03c0-1.26,1.28-1.33,2.15-1.33,1.9,0,2.4.19,2.4,1.92,0,.51-.03.93-.03,1.38v.22c0,.32.14.53.51.53.54,0,.61-.42.61-.98v-.16Z"/>
        <path class="cls-2" d="M49.18,4.07c-.46,0-.69-.34-.69-.67s.22-.67.69-.67h5.51c.48,0,.71.34.71.67s-.22.67-.71.67h-5.51ZM53.39,13.86c-.34.02-.94.03-1.55.03s-1.2-.02-1.52-.03c-.75-.05-1.25-.56-1.28-1.26-.02-.32-.02-.88-.02-1.39,0-.38,0-.75.02-.98.03-.61.45-1.17,1.25-1.22.37-.02.9-.03,1.44-.03.66,0,1.33.02,1.71.03.62.03,1.33.45,1.36,1.14.02.29.03.77.03,1.25s-.02.94-.03,1.18c-.06.72-.58,1.23-1.41,1.28ZM49.87,1.87c-.45,0-.67-.32-.67-.66,0-.32.22-.66.67-.66h3.97c.45,0,.67.32.67.66s-.22.66-.67.66h-3.97ZM49.91,8.2c-.45,0-.69-.32-.69-.64s.24-.64.69-.64h3.97c.43,0,.66.32.66.64s-.22.64-.66.64h-3.97ZM49.91,6.13c-.45,0-.67-.32-.67-.64s.22-.64.67-.64h3.97c.43,0,.66.32.66.64s-.22.64-.66.64h-3.97ZM53.41,11.56c0-.34,0-.7-.02-.93-.02-.24-.22-.4-.48-.42s-.66-.02-1.04-.02-.77,0-1.01.02c-.46.03-.46.3-.46,1.38,0,.27,0,.51.02.64.03.3.11.38,1.46.38,1.1,0,1.49-.02,1.52-.4.02-.16.02-.4.02-.66ZM58.02,6.59h-2.21c-.5,0-.75-.35-.75-.72s.26-.72.75-.72l2.21.02-.02-4c0-.56.4-.85.82-.85s.8.29.8.85l-.02,4,2.39-.02c.53,0,.8.37.8.72s-.27.72-.8.72h-2.39l.02,6.93c0,.54-.4.82-.82.82s-.8-.27-.8-.82l.02-6.93Z"/>
      </g>
      <path class="cls-1" d="M66.83,10.07v6.67c0,1.84-1.26,3.33-2.82,3.33H16.83"/>
    </g>
  </g>
</svg>