<?xml version="1.0" encoding="UTF-8"?>
<svg id="_レイヤー_2" data-name="レイヤー 2" xmlns="http://www.w3.org/2000/svg" viewBox="0 0 88.77 20.27">
  <defs>
    <style>
      .cls-1 {
        fill: none;
        stroke: #68b1ab;
        stroke-linecap: round;
        stroke-miterlimit: 10;
      }

      .cls-2 {
        fill: #fffdf3;
        stroke-width: 0px;
      }
    </style>
  </defs>
  <g id="letter">
    <g>
      <g>
        <path class="cls-2" d="M3.25,8.31c-1.06,0-1.3.05-1.3.61v.77c0,.69,0,1.5.02,2.1v.02c0,.45-.35.67-.69.67-.35,0-.7-.22-.7-.67s-.02-.99-.02-1.57.02-1.15.02-1.58c.05-1.49.91-1.49,2.67-1.49v-1.12l-2.59.02c-.43,0-.66-.3-.66-.62s.22-.61.66-.61h2.59v-1.3h-1.34c-.35.66-.62,1.01-1.06,1.01-.38,0-.74-.29-.74-.62,0-.11.03-.22.11-.34.61-.83.86-1.38,1.12-2.32.08-.29.34-.42.61-.42.37,0,.75.22.75.59,0,.05-.06.38-.26.86l.8.02V.67c0-.45.37-.67.74-.67s.72.22.72.67v1.63l2.08-.02c.45,0,.67.3.67.61,0,.32-.22.62-.67.62h-2.08v1.3h2.64c.45,0,.66.3.66.61s-.21.62-.66.62l-2.64-.02v1.12c.43,0,.85,0,1.22.02,1.06.03,1.52.51,1.52,1.5,0,.46,0,1.3.02,1.84v.1c0,.93-.37,1.63-1.49,1.63-.75,0-1.02-.19-1.02-.7,0-.32.16-.64.46-.64.02,0,.05.02.08.02.08.02.16.03.22.03.21,0,.38-.1.38-.5,0,0,0-1.07-.02-1.54,0-.58-.38-.61-1.38-.61v4.82c0,.5-.37.74-.72.74s-.74-.24-.74-.74v-4.82ZM8.71,1.79c0-.48.37-.72.74-.72s.75.24.75.72v8.1c0,.45-.37.67-.75.67s-.74-.22-.74-.67V1.79ZM13.22,11.65v.03c0,.96-.64,2.08-2.59,2.08-1.3,0-1.86-.22-1.86-.91,0-.4.26-.8.69-.8.06,0,.11,0,.18.02.32.06.72.18,1.09.18.48,0,.9-.18.91-.85.02-.59.02-4.99.02-7.92V.96c0-.48.38-.72.77-.72s.77.24.77.72v8.77l.03,1.92Z"/>
        <path class="cls-2" d="M18.21,13.33l.16-7.65c-1.26,1.6-1.75,1.84-2.11,1.84-.42,0-.75-.34-.75-.72,0-.19.1-.4.29-.58,1.57-1.39,3.04-3.46,3.86-5.65.13-.35.4-.48.69-.48.43,0,.88.34.88.78,0,.34-.72,1.66-1.28,2.56l-.19,9.89c0,.5-.4.74-.77.74s-.77-.24-.77-.72v-.02ZM25.4,10.47v2.77c0,.53-.38.78-.77.78s-.77-.26-.77-.78V4.18h-.59c-.48.93-1.04,1.81-1.73,2.71-.22.29-.5.42-.72.42-.4,0-.72-.32-.72-.7,0-.16.06-.34.21-.51,1.04-1.26,2.11-3.09,2.71-5.43.1-.42.42-.59.74-.59.42,0,.83.29.83.72,0,.26-.48,1.54-.67,2h5.52c.45,0,.69.35.69.7s-.22.69-.69.69h-4.03v1.73h3.3c.45,0,.69.35.69.7s-.22.69-.69.69h-3.3v1.78h3.46c.45,0,.69.35.69.7s-.22.69-.69.69h-3.46Z"/>
        <path class="cls-2" d="M32.43,11.14c-.22-.32-.24-.85.21-1.14.77-.5,1.73-1.57,2.13-2.27.45-.78,1.78-.18,1.23.75-.4.69-1.44,2.19-2.43,2.85-.43.29-.91.13-1.14-.19ZM33.84,6.07c-1.07.05-1.22-1.42-.03-1.47,1.26-.05,2.58-.1,3.87-.11,0-.85,0-1.57-.02-2.02-.03-1.18,1.55-1.07,1.54-.06-.02.5-.03,1.23-.05,2.06,1.23-.02,2.45,0,3.63.02,1.22.02,1.12,1.57-.06,1.5-1.18-.06-2.38-.06-3.58-.06-.02,1.3,0,2.67.05,3.78.02.51.02.77.02,1.22,0,1.26-.77,2.22-3.06,1.82-1.42-.26-.8-1.9.18-1.58.66.21,1.36.3,1.38-.58.02-1.14.02-2.96,0-4.64-1.28.03-2.58.08-3.86.13ZM42.9,10.72c-.5-.78-1.63-1.76-2.34-2.18-.78-.46-.02-1.68.9-1.14.69.4,2.11,1.34,2.75,2.35.27.43.06.93-.26,1.15-.32.22-.77.26-1.06-.19ZM42.56,3.75c-.91,0-1.65-.74-1.65-1.65s.74-1.66,1.65-1.66,1.67.75,1.67,1.66-.75,1.65-1.67,1.65ZM42.56,1.3c-.43,0-.8.37-.8.8s.37.8.8.8.8-.37.8-.8-.37-.8-.8-.8Z"/>
        <path class="cls-2" d="M48.71,10.24c-1.47.9-2.3-.74-1.22-1.26,2.95-1.44,6-4.39,7.81-7.23.7-1.1,2.11-.08,1.42.85-.72.96-1.41,1.83-2.1,2.62-.05,1.63-.08,5.83-.03,7.43.03,1.22-1.7,1.36-1.68.05.02-1.28.08-3.89.1-5.76-1.26,1.23-2.64,2.31-4.31,3.31Z"/>
        <path class="cls-2" d="M63.06,6.13c-.59-.54-1.62-1.01-2.37-1.18-.96-.22-.56-1.84.66-1.5.85.24,2.05.67,2.82,1.22.5.35.46.96.21,1.33-.26.37-.82.59-1.31.14ZM62.07,12.74c-1.36.43-1.87-1.39-.54-1.73,3.22-.82,6.45-4.13,8.07-7.27.51-.99,2.16-.32,1.46.94-1.98,3.6-5.3,6.88-8.98,8.05Z"/>
        <path class="cls-2" d="M76.82,12.71c.03,1.3-1.79,1.34-1.73.06.11-2.59.16-8.87.1-11.17-.03-1.09,1.7-1.07,1.67.02-.02.78-.03,2.18-.05,3.75.08,0,.18,0,.27.02.9.14,2.98.66,3.84,1.39.83.71-.08,2.1-.99,1.42-.69-.51-2.27-1.14-3.12-1.3-.02,2.21-.02,4.51.02,5.81Z"/>
      </g>
      <path class="cls-1" d="M88.27,7.77v8c0,2.21-1.77,4-3.94,4H18.27"/>
    </g>
  </g>
</svg>