<?xml version="1.0" encoding="UTF-8"?>
<svg id="_レイヤー_2" data-name="レイヤー 2" xmlns="http://www.w3.org/2000/svg" viewBox="0 0 52.6 254.68">
  <defs>
    <style>
      .cls-1 {
        fill: none;
        stroke: #404648;
        stroke-miterlimit: 10;
      }
    </style>
  </defs>
  <g id="letter">
    <g>
      <path class="cls-1" d="M29.62,12.4c0-1.12-.14-1.12-1.05-1.12-2.66,0-9.87-.21-15.05-.21-5.46,0-9.17.14-9.17,5.6,0,.63.07,1.26.14,1.96v.28c0,1.05-.91,1.68-1.82,1.68-1.82,0-2.17-1.68-2.17-4.48C.5,7.15,8.13,7.15,11.21,7.15c4.48,0,13.02.14,16.45.14h1.12c.7,0,.84-.21.84-.7V2.46c0-1.33.91-1.96,1.82-1.96s1.82.63,1.82,1.96v4.06c0,.63.07.77.7.77.28,0,3.64.07,6.09.07h1.75c1.33,0,2.03,1.05,2.03,2.03,0,1.05-.7,2.03-2.17,2.03-2.03,0-7.63-.14-7.63-.14-.77,0-.77.14-.77,1.05v6.23c0,1.33-.91,1.96-1.82,1.96s-1.82-.63-1.82-1.96v-6.16Z"/>
      <path class="cls-1" d="M17.3,27.1c9.73,0,16.73,6.86,16.73,16.17s-7,16.31-16.73,16.31S.5,52.58.5,43.27s6.72-16.17,16.8-16.17ZM17.3,55.45c7.91,0,13.09-5.46,13.09-12.18s-5.18-12.11-13.09-12.11-13.02,5.39-13.02,12.11,5.18,12.18,13.02,12.18Z"/>
      <path class="cls-1" d="M2.88,113.62c2.94.07,8.4.14,12.81.14,2.87,0,5.32-.07,6.44-.14,5.81-.35,8.19-4.06,8.19-8.05,0-4.83-3.64-10.15-9.1-10.36-2.17-.07-6.3-.14-11.27-.14-2.24,0-4.62,0-7.14.07h-.07c-1.26,0-1.89-.98-1.89-2.03s.7-2.17,1.96-2.17h.07c5.46.14,18.13.21,29.26.21,7.84,0,14.91,0,18.13-.07h.07c1.12,0,1.75,1.05,1.75,2.1s-.63,2.1-1.96,2.1c-2.59,0-19.18-.07-20.65-.07-.21,0-.35.07-.35.14s.14.14.28.28c3.15,2.45,4.76,6.44,4.76,10.36,0,5.81-3.64,11.41-11.27,11.69-2.24.07-7.42.14-12.25.14-2.94,0-5.81,0-7.7-.07-1.4,0-2.1-1.05-2.1-2.03,0-1.05.7-2.1,1.96-2.1h.07Z"/>
      <path class="cls-1" d="M17.3,127.06c9.73,0,16.73,6.86,16.73,16.17s-7,16.31-16.73,16.31S.5,152.54.5,143.23s6.72-16.17,16.8-16.17ZM17.3,155.41c7.91,0,13.09-5.46,13.09-12.18s-5.18-12.11-13.09-12.11-13.02,5.39-13.02,12.11,5.18,12.18,13.02,12.18Z"/>
      <path class="cls-1" d="M2.88,210.57c2.8.07,8.05.07,12.53.07,3.29,0,6.16,0,7.35-.07,5.39-.28,7.49-3.5,7.49-6.93,0-4.48-3.43-9.38-8.19-9.59-1.19-.07-3.43-.07-6.02-.07-4.27,0-9.52.07-13.16.14h-.07c-1.26,0-1.96-1.05-1.96-2.1,0-.98.63-1.96,1.96-1.96h.07c2.8.07,8.05.07,12.53.07,3.29,0,6.16,0,7.35-.07,5.46-.28,7.7-3.5,7.7-6.93,0-4.41-3.57-9.24-8.75-9.45-1.19-.07-3.5-.07-6.16-.07-4.27,0-9.52.07-12.67.14h-.07c-1.4,0-2.1-.98-2.1-1.96,0-1.05.77-2.1,2.17-2.1h.07c5.53.14,12.88.21,19.39.21,3.43,0,6.72,0,9.31-.07h.07c1.26,0,1.89.98,1.89,2.03,0,.98-.63,1.96-1.96,1.96h-1.89c-.28,0-.42,0-.42.07s.07.14.21.21c2.87,2.24,4.41,6.02,4.41,9.59,0,4.06-1.96,7.98-6.16,9.38,4.13,2.66,6.16,6.86,6.16,10.92,0,5.39-3.64,10.36-10.5,10.57-2.94.07-11.83.14-17.29.14h-3.15c-1.54,0-2.31-1.05-2.31-2.03,0-1.05.77-2.1,2.1-2.1h.07Z"/>
      <path class="cls-1" d="M.5,240.46c0-8.89,6.65-15.82,16.52-15.82s16.94,7.35,16.94,15.61c0,9.59-7.49,13.79-11.48,13.79-2.66,0-4.62-1.61-4.69-5.11-.07-1.61-.07-3.99-.07-6.58,0-5.25.07-11.2.07-12.74,0-.7-.28-.84-1.26-.84-7.63,0-12.32,5.04-12.32,11.76,0,5.11,2.17,7.98,4.62,10.15.42.42.63.91.63,1.4,0,1.05-.91,2.1-2.03,2.1-1.61,0-6.93-4.9-6.93-13.72ZM30.46,240.32c0-6.72-6.02-10.99-8.61-10.99-.7,0-.7.63-.7,8.75,0,3.64,0,7.56.07,9.52.07,1.68.84,2.31,1.96,2.31,2.03,0,7.28-2.45,7.28-9.59Z"/>
    </g>
  </g>
</svg>