<?xml version="1.0" encoding="UTF-8"?>
<svg id="_レイヤー_2" data-name="レイヤー 2" xmlns="http://www.w3.org/2000/svg" viewBox="0 0 3938 112.75">
  <defs>
    <style>
      .cls-1 {
        fill: none;
        stroke: #404648;
        stroke-miterlimit: 10;
      }
    </style>
  </defs>
  <g id="letter">
    <g>
      <path class="cls-1" d="M49.1,107c.15-6.3.3-18,.3-27.45,0-6.15-.15-11.4-.3-13.8-.75-12.45-8.7-17.55-17.25-17.55-10.35,0-21.75,7.8-22.2,19.5-.15,4.65-.3,13.5-.3,24.15,0,4.8,0,9.9.15,15.3v.15c0,2.7-2.1,4.05-4.35,4.05s-4.65-1.5-4.65-4.2v-.15c.3-11.7.45-38.85.45-62.7C.95,27.5.95,12.35.8,5.45v-.15C.8,2.9,3.05,1.55,5.3,1.55s4.5,1.35,4.5,4.2c0,5.55-.15,41.1-.15,44.25,0,.45.15.75.3.75s.3-.3.6-.6c5.25-6.75,13.8-10.2,22.2-10.2,12.45,0,24.45,7.8,25.05,24.15.15,4.8.3,15.9.3,26.25,0,6.3,0,12.45-.15,16.5,0,3-2.25,4.5-4.35,4.5-2.25,0-4.5-1.5-4.5-4.2v-.15Z"/>
      <path class="cls-1" d="M126.35,99.8c-4.5,7.65-14.55,12.3-23.7,12.3-15.15,0-24.3-10.35-24.3-20.7,0-7.5,4.95-15.15,16.05-18.6,9.3-2.85,21.45-5.1,27.75-6.15,1.8-.3,2.4-.75,2.4-1.8,0-.75.15-1.65.15-2.4,0-8.25-3.45-14.7-15.6-14.7-8.1,0-14.1,3.45-17.55,7.2-.9,1.05-2.1,1.5-3.15,1.5-2.25,0-4.2-1.65-4.2-4.05,0-5.7,12.6-12.15,25.5-12.15,13.95,0,23.4,6.15,23.4,22.95,0,1.35,0,2.7-.15,4.2-.45,4.95-.75,11.7-.75,16.65,0,12.45,2.4,15.45,8.4,18.6,1.2.6,1.65,1.8,1.65,3,0,2.1-1.8,4.65-4.5,4.65-.9,0-8.4-2.1-10.5-10.35-.15-.45-.15-.6-.45-.6,0,0-.3.15-.45.45ZM124.25,81.05c0-1.65.15-3.3.15-5.1,0-1.2-.45-1.65-1.5-1.65h-.45c-23.55,3.75-36,6.75-36,17.25,0,6.3,6,12.6,16.05,12.6,13.8,0,21.75-10.35,21.75-23.1Z"/>
      <path class="cls-1" d="M167.15,14.75c-7.05,0-7.05-6.45-7.05-7.35,0-4.65,4.2-6.9,7.2-6.9,2.25,0,7.35,1.2,7.35,6.9,0,4.65-3.75,7.35-7.5,7.35ZM172.1,106.7c0,3-2.4,4.5-4.8,4.5-2.25,0-4.65-1.5-4.65-4.5,0-12.75.15-30.3.15-44.25,0-7.05,0-13.2-.15-17.4v-.15c0-2.7,2.4-4.2,4.8-4.2,2.25,0,4.65,1.35,4.65,4.05v.15c-.15,6.3-.3,18.6-.3,31.5,0,10.65.15,21.75.3,30.15v.15Z"/>
      <path class="cls-1" d="M210.5,107.3c0,2.7-2.1,4.05-4.35,4.05-2.4,0-4.8-1.5-4.8-4.2v-.15c.3-12.15.6-26.25.6-39.15,0-8.4-.15-16.35-.3-22.95v-.15c0-2.4,2.4-3.9,4.65-3.9s4.5,1.35,4.5,4.2c0,2.25-.15,3.3-.15,5.4,0,.45.15.75.15.75.15,0,.45-.3.6-.6,6.6-9.15,20.1-10.05,21.9-10.05,3.15,0,4.65,1.95,4.65,4.05s-1.65,4.35-4.65,4.35c-10.65,0-22.5,6.75-22.8,18.3-.15,3.9-.15,10.8-.15,19.35,0,6.15,0,13.2.15,20.55v.15Z"/>
      <path class="cls-1" d="M319.55,112.25c-15.6,0-24.3-9-24.3-13.2,0-2.55,2.25-4.35,4.5-4.35,1.35,0,2.7.6,3.75,1.95,3.3,4.65,8.7,7.5,16.05,7.5,8.55,0,15-4.8,15-11.25,0-7.95-6.45-10.95-23.85-18.75-8.25-3.6-12.15-10.2-12.15-16.65,0-8.85,7.2-17.25,20.4-17.25s20.85,6.45,20.85,10.5c0,2.4-1.95,4.35-4.35,4.35-1.2,0-2.7-.6-3.9-2.1-2.4-2.85-6.15-5.25-12.6-5.25-7.65,0-12,4.5-12,9.45,0,3.6,2.4,7.35,7.35,9.75,4.2,1.95,11.1,4.8,15.75,7.2,9.3,4.8,13.35,11.85,13.35,18.75,0,8.55-7.05,19.35-23.85,19.35Z"/>
      <path class="cls-1" d="M408.19,99.8c-4.5,7.65-14.55,12.3-23.7,12.3-15.15,0-24.3-10.35-24.3-20.7,0-7.5,4.95-15.15,16.05-18.6,9.3-2.85,21.45-5.1,27.75-6.15,1.8-.3,2.4-.75,2.4-1.8,0-.75.15-1.65.15-2.4,0-8.25-3.45-14.7-15.6-14.7-8.1,0-14.1,3.45-17.55,7.2-.9,1.05-2.1,1.5-3.15,1.5-2.25,0-4.2-1.65-4.2-4.05,0-5.7,12.6-12.15,25.5-12.15,13.95,0,23.4,6.15,23.4,22.95,0,1.35,0,2.7-.15,4.2-.45,4.95-.75,11.7-.75,16.65,0,12.45,2.4,15.45,8.4,18.6,1.2.6,1.65,1.8,1.65,3,0,2.1-1.8,4.65-4.5,4.65-.9,0-8.4-2.1-10.5-10.35-.15-.45-.15-.6-.45-.6,0,0-.3.15-.45.45ZM406.09,81.05c0-1.65.15-3.3.15-5.1,0-1.2-.45-1.65-1.5-1.65h-.45c-23.55,3.75-36,6.75-36,17.25,0,6.3,6,12.6,16.05,12.6,13.8,0,21.75-10.35,21.75-23.1Z"/>
      <path class="cls-1" d="M453.35,105.95c0,3.15-2.25,4.65-4.65,4.65s-4.65-1.5-4.65-4.65v-.15c.3-10.8.3-32.7.3-53.25s0-40.35-.3-46.5v-.15c0-3.3,2.4-4.8,4.8-4.8,2.25,0,4.5,1.5,4.5,4.5v.15c-.15,6.9-.3,29.25-.3,51.9,0,18.6.15,37.5.3,48.15v.15Z"/>
      <path class="cls-1" d="M476.29,76.1c0-20.85,14.7-35.85,34.65-35.85s34.95,15,34.95,35.85-15,36-34.95,36-34.65-14.4-34.65-36ZM537.04,76.1c0-16.95-11.7-28.05-26.1-28.05s-25.95,11.1-25.95,28.05,11.55,27.9,25.95,27.9,26.1-11.1,26.1-27.9Z"/>
      <path class="cls-1" d="M616.69,107.15c.15-6.3.3-18,.3-27.45,0-6.15-.15-11.4-.3-13.8-.75-12.15-8.4-17.25-16.8-17.25-10.5,0-22.35,8.1-22.65,20.1-.15,4.65-.3,12.9-.3,23.25,0,4.8,0,9.75.15,15.15v.15c0,2.7-2.1,4.05-4.35,4.05s-4.65-1.5-4.65-4.2v-.15c.3-12.15.6-26.1.6-38.85,0-8.4-.15-16.2-.3-22.8v-.15c0-2.4,2.4-3.9,4.8-3.9,2.1,0,4.2,1.2,4.2,4.05v5.7c0,.45.15.6.15.6.15,0,.45-.15.6-.45,5.4-7.2,13.95-10.8,22.2-10.8,12.45,0,24.45,8.1,25.05,24,.15,4.8.3,15.9.3,26.25,0,6.3,0,12.45-.15,16.5,0,3-2.1,4.35-4.35,4.35s-4.5-1.5-4.5-4.2v-.15Z"/>
      <path class="cls-1" d="M714.49,112.25c-15.6,0-24.3-9-24.3-13.2,0-2.55,2.25-4.35,4.5-4.35,1.35,0,2.7.6,3.75,1.95,3.3,4.65,8.7,7.5,16.05,7.5,8.55,0,15-4.8,15-11.25,0-7.95-6.45-10.95-23.85-18.75-8.25-3.6-12.15-10.2-12.15-16.65,0-8.85,7.2-17.25,20.4-17.25s20.85,6.45,20.85,10.5c0,2.4-1.95,4.35-4.35,4.35-1.2,0-2.7-.6-3.9-2.1-2.4-2.85-6.15-5.25-12.6-5.25-7.65,0-12,4.5-12,9.45,0,3.6,2.4,7.35,7.35,9.75,4.2,1.95,11.1,4.8,15.75,7.2,9.3,4.8,13.35,11.85,13.35,18.75,0,8.55-7.05,19.35-23.85,19.35Z"/>
      <path class="cls-1" d="M766.39,14.75c-7.05,0-7.05-6.45-7.05-7.35,0-4.65,4.2-6.9,7.2-6.9,2.25,0,7.35,1.2,7.35,6.9,0,4.65-3.75,7.35-7.5,7.35ZM771.34,106.7c0,3-2.4,4.5-4.8,4.5-2.25,0-4.65-1.5-4.65-4.5,0-12.75.15-30.3.15-44.25,0-7.05,0-13.2-.15-17.4v-.15c0-2.7,2.4-4.2,4.8-4.2,2.25,0,4.65,1.35,4.65,4.05v.15c-.15,6.3-.3,18.6-.3,31.5,0,10.65.15,21.75.3,30.15v.15Z"/>
      <path class="cls-1" d="M815.89,49.7c-2.4,0-2.4.3-2.4,2.25,0,5.7-.45,21.15-.45,32.25,0,11.7.3,19.65,12,19.65,1.35,0,2.7-.15,4.2-.3h.6c2.25,0,3.6,1.95,3.6,3.9,0,3.9-3.6,4.65-9.6,4.65-19.2,0-19.2-16.35-19.2-22.95,0-9.6.3-27.9.3-35.25v-2.4c0-1.5-.45-1.8-1.5-1.8h-8.85c-2.85,0-4.2-1.95-4.2-3.9s1.35-3.9,4.2-3.9h8.7c1.35,0,1.65-.15,1.65-1.5,0-.6.15-7.8.15-13.05v-3.75c0-2.85,2.25-4.35,4.35-4.35,2.25,0,4.35,1.5,4.35,4.65,0,4.35-.3,16.35-.3,16.35,0,1.65.3,1.65,2.25,1.65h13.35c2.85,0,4.2,1.95,4.2,3.9s-1.35,3.9-4.2,3.9h-13.2Z"/>
      <path class="cls-1" d="M881.74,112.1c-19.05,0-33.9-14.25-33.9-35.4s15.75-36.3,33.45-36.3c20.55,0,29.55,16.05,29.55,24.6,0,5.7-3.45,9.9-10.95,10.05-3.45.15-8.55.15-14.1.15-11.25,0-24-.15-27.3-.15-1.5,0-1.8.6-1.8,2.7,0,16.35,10.8,26.4,25.2,26.4,10.95,0,17.1-4.65,21.75-9.9.9-.9,1.95-1.35,3-1.35,2.25,0,4.5,1.95,4.5,4.35,0,3.45-10.5,14.85-29.4,14.85ZM881.44,47.9c-14.4,0-23.55,12.9-23.55,18.45,0,1.5,1.35,1.5,18.75,1.5,7.8,0,16.2,0,20.4-.15,3.6-.15,4.95-1.8,4.95-4.2,0-4.35-5.25-15.6-20.55-15.6Z"/>
      <path class="cls-1" d="M1020.33,71.15c3.15,0,4.65,2.25,4.65,4.5,0,2.4-1.65,4.8-4.95,4.8-11.55-.15-19.05-.3-25.5-.3-5.4,0-10.2.15-16.2.3-1.35,0-4.95-.15-4.95-4.65,0-2.4,1.5-4.65,4.5-4.65h.15c6,.15,13.05.15,20.4.15s15,0,21.75-.15h.15Z"/>
      <path class="cls-1" d="M1142.28,107c.15-6.3.3-18,.3-27.45,0-6.15-.15-11.4-.3-13.8-.75-12.45-8.7-17.55-17.25-17.55-10.35,0-21.75,7.8-22.2,19.5-.15,4.65-.3,13.5-.3,24.15,0,4.8,0,9.9.15,15.3v.15c0,2.7-2.1,4.05-4.35,4.05s-4.65-1.5-4.65-4.2v-.15c.3-11.7.45-38.85.45-62.7,0-16.8,0-31.95-.15-38.85v-.15c0-2.4,2.25-3.75,4.5-3.75s4.5,1.35,4.5,4.2c0,5.55-.15,41.1-.15,44.25,0,.45.15.75.3.75s.3-.3.6-.6c5.25-6.75,13.8-10.2,22.2-10.2,12.45,0,24.45,7.8,25.05,24.15.15,4.8.3,15.9.3,26.25,0,6.3,0,12.45-.15,16.5,0,3-2.25,4.5-4.35,4.5-2.25,0-4.5-1.5-4.5-4.2v-.15Z"/>
      <path class="cls-1" d="M1219.53,99.8c-4.5,7.65-14.55,12.3-23.7,12.3-15.15,0-24.3-10.35-24.3-20.7,0-7.5,4.95-15.15,16.05-18.6,9.3-2.85,21.45-5.1,27.75-6.15,1.8-.3,2.4-.75,2.4-1.8,0-.75.15-1.65.15-2.4,0-8.25-3.45-14.7-15.6-14.7-8.1,0-14.1,3.45-17.55,7.2-.9,1.05-2.1,1.5-3.15,1.5-2.25,0-4.2-1.65-4.2-4.05,0-5.7,12.6-12.15,25.5-12.15,13.95,0,23.4,6.15,23.4,22.95,0,1.35,0,2.7-.15,4.2-.45,4.95-.75,11.7-.75,16.65,0,12.45,2.4,15.45,8.4,18.6,1.2.6,1.65,1.8,1.65,3,0,2.1-1.8,4.65-4.5,4.65-.9,0-8.4-2.1-10.5-10.35-.15-.45-.15-.6-.45-.6,0,0-.3.15-.45.45ZM1217.43,81.05c0-1.65.15-3.3.15-5.1,0-1.2-.45-1.65-1.5-1.65h-.45c-23.55,3.75-36,6.75-36,17.25,0,6.3,6,12.6,16.05,12.6,13.8,0,21.75-10.35,21.75-23.1Z"/>
      <path class="cls-1" d="M1260.33,14.75c-7.05,0-7.05-6.45-7.05-7.35,0-4.65,4.2-6.9,7.2-6.9,2.25,0,7.35,1.2,7.35,6.9,0,4.65-3.75,7.35-7.5,7.35ZM1265.28,106.7c0,3-2.4,4.5-4.8,4.5-2.25,0-4.65-1.5-4.65-4.5,0-12.75.15-30.3.15-44.25,0-7.05,0-13.2-.15-17.4v-.15c0-2.7,2.4-4.2,4.8-4.2,2.25,0,4.65,1.35,4.65,4.05v.15c-.15,6.3-.3,18.6-.3,31.5,0,10.65.15,21.75.3,30.15v.15Z"/>
      <path class="cls-1" d="M1303.68,107.3c0,2.7-2.1,4.05-4.35,4.05-2.4,0-4.8-1.5-4.8-4.2v-.15c.3-12.15.6-26.25.6-39.15,0-8.4-.15-16.35-.3-22.95v-.15c0-2.4,2.4-3.9,4.65-3.9s4.5,1.35,4.5,4.2c0,2.25-.15,3.3-.15,5.4,0,.45.15.75.15.75.15,0,.45-.3.6-.6,6.6-9.15,20.1-10.05,21.9-10.05,3.15,0,4.65,1.95,4.65,4.05s-1.65,4.35-4.65,4.35c-10.65,0-22.5,6.75-22.8,18.3-.15,3.9-.15,10.8-.15,19.35,0,6.15,0,13.2.15,20.55v.15Z"/>
      <path class="cls-1" d="M1412.73,112.25c-15.6,0-24.3-9-24.3-13.2,0-2.55,2.25-4.35,4.5-4.35,1.35,0,2.7.6,3.75,1.95,3.3,4.65,8.7,7.5,16.05,7.5,8.55,0,15-4.8,15-11.25,0-7.95-6.45-10.95-23.85-18.75-8.25-3.6-12.15-10.2-12.15-16.65,0-8.85,7.2-17.25,20.4-17.25s20.85,6.45,20.85,10.5c0,2.4-1.95,4.35-4.35,4.35-1.2,0-2.7-.6-3.9-2.1-2.4-2.85-6.15-5.25-12.6-5.25-7.65,0-12,4.5-12,9.45,0,3.6,2.4,7.35,7.35,9.75,4.2,1.95,11.1,4.8,15.75,7.2,9.3,4.8,13.35,11.85,13.35,18.75,0,8.55-7.05,19.35-23.85,19.35Z"/>
      <path class="cls-1" d="M1501.38,99.8c-4.5,7.65-14.55,12.3-23.7,12.3-15.15,0-24.3-10.35-24.3-20.7,0-7.5,4.95-15.15,16.05-18.6,9.3-2.85,21.45-5.1,27.75-6.15,1.8-.3,2.4-.75,2.4-1.8,0-.75.15-1.65.15-2.4,0-8.25-3.45-14.7-15.6-14.7-8.1,0-14.1,3.45-17.55,7.2-.9,1.05-2.1,1.5-3.15,1.5-2.25,0-4.2-1.65-4.2-4.05,0-5.7,12.6-12.15,25.5-12.15,13.95,0,23.4,6.15,23.4,22.95,0,1.35,0,2.7-.15,4.2-.45,4.95-.75,11.7-.75,16.65,0,12.45,2.4,15.45,8.4,18.6,1.2.6,1.65,1.8,1.65,3,0,2.1-1.8,4.65-4.5,4.65-.9,0-8.4-2.1-10.5-10.35-.15-.45-.15-.6-.45-.6,0,0-.3.15-.45.45ZM1499.28,81.05c0-1.65.15-3.3.15-5.1,0-1.2-.45-1.65-1.5-1.65h-.45c-23.55,3.75-36,6.75-36,17.25,0,6.3,6,12.6,16.05,12.6,13.8,0,21.75-10.35,21.75-23.1Z"/>
      <path class="cls-1" d="M1546.53,105.95c0,3.15-2.25,4.65-4.65,4.65s-4.65-1.5-4.65-4.65v-.15c.3-10.8.3-32.7.3-53.25s0-40.35-.3-46.5v-.15c0-3.3,2.4-4.8,4.8-4.8,2.25,0,4.5,1.5,4.5,4.5v.15c-.15,6.9-.3,29.25-.3,51.9,0,18.6.15,37.5.3,48.15v.15Z"/>
      <path class="cls-1" d="M1569.48,76.1c0-20.85,14.7-35.85,34.65-35.85s34.95,15,34.95,35.85-15,36-34.95,36-34.65-14.4-34.65-36ZM1630.23,76.1c0-16.95-11.7-28.05-26.1-28.05s-25.95,11.1-25.95,28.05,11.55,27.9,25.95,27.9,26.1-11.1,26.1-27.9Z"/>
      <path class="cls-1" d="M1709.88,107.15c.15-6.3.3-18,.3-27.45,0-6.15-.15-11.4-.3-13.8-.75-12.15-8.4-17.25-16.8-17.25-10.5,0-22.35,8.1-22.65,20.1-.15,4.65-.3,12.9-.3,23.25,0,4.8,0,9.75.15,15.15v.15c0,2.7-2.1,4.05-4.35,4.05s-4.65-1.5-4.65-4.2v-.15c.3-12.15.6-26.1.6-38.85,0-8.4-.15-16.2-.3-22.8v-.15c0-2.4,2.4-3.9,4.8-3.9,2.1,0,4.2,1.2,4.2,4.05v5.7c0,.45.15.6.15.6.15,0,.45-.15.6-.45,5.4-7.2,13.95-10.8,22.2-10.8,12.45,0,24.45,8.1,25.05,24,.15,4.8.3,15.9.3,26.25,0,6.3,0,12.45-.15,16.5,0,3-2.1,4.35-4.35,4.35s-4.5-1.5-4.5-4.2v-.15Z"/>
      <path class="cls-1" d="M1807.68,112.25c-15.6,0-24.3-9-24.3-13.2,0-2.55,2.25-4.35,4.5-4.35,1.35,0,2.7.6,3.75,1.95,3.3,4.65,8.7,7.5,16.05,7.5,8.55,0,15-4.8,15-11.25,0-7.95-6.45-10.95-23.85-18.75-8.25-3.6-12.15-10.2-12.15-16.65,0-8.85,7.2-17.25,20.4-17.25s20.85,6.45,20.85,10.5c0,2.4-1.95,4.35-4.35,4.35-1.2,0-2.7-.6-3.9-2.1-2.4-2.85-6.15-5.25-12.6-5.25-7.65,0-12,4.5-12,9.45,0,3.6,2.4,7.35,7.35,9.75,4.2,1.95,11.1,4.8,15.75,7.2,9.3,4.8,13.35,11.85,13.35,18.75,0,8.55-7.05,19.35-23.85,19.35Z"/>
      <path class="cls-1" d="M1859.58,14.75c-7.05,0-7.05-6.45-7.05-7.35,0-4.65,4.2-6.9,7.2-6.9,2.25,0,7.35,1.2,7.35,6.9,0,4.65-3.75,7.35-7.5,7.35ZM1864.53,106.7c0,3-2.4,4.5-4.8,4.5-2.25,0-4.65-1.5-4.65-4.5,0-12.75.15-30.3.15-44.25,0-7.05,0-13.2-.15-17.4v-.15c0-2.7,2.4-4.2,4.8-4.2,2.25,0,4.65,1.35,4.65,4.05v.15c-.15,6.3-.3,18.6-.3,31.5,0,10.65.15,21.75.3,30.15v.15Z"/>
      <path class="cls-1" d="M1909.08,49.7c-2.4,0-2.4.3-2.4,2.25,0,5.7-.45,21.15-.45,32.25,0,11.7.3,19.65,12,19.65,1.35,0,2.7-.15,4.2-.3h.6c2.25,0,3.6,1.95,3.6,3.9,0,3.9-3.6,4.65-9.6,4.65-19.2,0-19.2-16.35-19.2-22.95,0-9.6.3-27.9.3-35.25v-2.4c0-1.5-.45-1.8-1.5-1.8h-8.85c-2.85,0-4.2-1.95-4.2-3.9s1.35-3.9,4.2-3.9h8.7c1.35,0,1.65-.15,1.65-1.5,0-.6.15-7.8.15-13.05v-3.75c0-2.85,2.25-4.35,4.35-4.35,2.25,0,4.35,1.5,4.35,4.65,0,4.35-.3,16.35-.3,16.35,0,1.65.3,1.65,2.25,1.65h13.35c2.85,0,4.2,1.95,4.2,3.9s-1.35,3.9-4.2,3.9h-13.2Z"/>
      <path class="cls-1" d="M1974.92,112.1c-19.05,0-33.9-14.25-33.9-35.4s15.75-36.3,33.45-36.3c20.55,0,29.55,16.05,29.55,24.6,0,5.7-3.45,9.9-10.95,10.05-3.45.15-8.55.15-14.1.15-11.25,0-24-.15-27.3-.15-1.5,0-1.8.6-1.8,2.7,0,16.35,10.8,26.4,25.2,26.4,10.95,0,17.1-4.65,21.75-9.9.9-.9,1.95-1.35,3-1.35,2.25,0,4.5,1.95,4.5,4.35,0,3.45-10.5,14.85-29.4,14.85ZM1974.62,47.9c-14.4,0-23.55,12.9-23.55,18.45,0,1.5,1.35,1.5,18.75,1.5,7.8,0,16.2,0,20.4-.15,3.6-.15,4.95-1.8,4.95-4.2,0-4.35-5.25-15.6-20.55-15.6Z"/>
      <path class="cls-1" d="M2119.52,107c.15-6.3.3-18,.3-27.45,0-6.15-.15-11.4-.3-13.8-.75-12.45-8.7-17.55-17.25-17.55-10.35,0-21.75,7.8-22.2,19.5-.15,4.65-.3,13.5-.3,24.15,0,4.8,0,9.9.15,15.3v.15c0,2.7-2.1,4.05-4.35,4.05s-4.65-1.5-4.65-4.2v-.15c.3-11.7.45-38.85.45-62.7,0-16.8,0-31.95-.15-38.85v-.15c0-2.4,2.25-3.75,4.5-3.75s4.5,1.35,4.5,4.2c0,5.55-.15,41.1-.15,44.25,0,.45.15.75.3.75s.3-.3.6-.6c5.25-6.75,13.8-10.2,22.2-10.2,12.45,0,24.45,7.8,25.05,24.15.15,4.8.3,15.9.3,26.25,0,6.3,0,12.45-.15,16.5,0,3-2.25,4.5-4.35,4.5-2.25,0-4.5-1.5-4.5-4.2v-.15Z"/>
      <path class="cls-1" d="M2196.77,99.8c-4.5,7.65-14.55,12.3-23.7,12.3-15.15,0-24.3-10.35-24.3-20.7,0-7.5,4.95-15.15,16.05-18.6,9.3-2.85,21.45-5.1,27.75-6.15,1.8-.3,2.4-.75,2.4-1.8,0-.75.15-1.65.15-2.4,0-8.25-3.45-14.7-15.6-14.7-8.1,0-14.1,3.45-17.55,7.2-.9,1.05-2.1,1.5-3.15,1.5-2.25,0-4.2-1.65-4.2-4.05,0-5.7,12.6-12.15,25.5-12.15,13.95,0,23.4,6.15,23.4,22.95,0,1.35,0,2.7-.15,4.2-.45,4.95-.75,11.7-.75,16.65,0,12.45,2.4,15.45,8.4,18.6,1.2.6,1.65,1.8,1.65,3,0,2.1-1.8,4.65-4.5,4.65-.9,0-8.4-2.1-10.5-10.35-.15-.45-.15-.6-.45-.6,0,0-.3.15-.45.45ZM2194.67,81.05c0-1.65.15-3.3.15-5.1,0-1.2-.45-1.65-1.5-1.65h-.45c-23.55,3.75-36,6.75-36,17.25,0,6.3,6,12.6,16.05,12.6,13.8,0,21.75-10.35,21.75-23.1Z"/>
      <path class="cls-1" d="M2237.57,14.75c-7.05,0-7.05-6.45-7.05-7.35,0-4.65,4.2-6.9,7.2-6.9,2.25,0,7.35,1.2,7.35,6.9,0,4.65-3.75,7.35-7.5,7.35ZM2242.52,106.7c0,3-2.4,4.5-4.8,4.5-2.25,0-4.65-1.5-4.65-4.5,0-12.75.15-30.3.15-44.25,0-7.05,0-13.2-.15-17.4v-.15c0-2.7,2.4-4.2,4.8-4.2,2.25,0,4.65,1.35,4.65,4.05v.15c-.15,6.3-.3,18.6-.3,31.5,0,10.65.15,21.75.3,30.15v.15Z"/>
      <path class="cls-1" d="M2280.92,107.3c0,2.7-2.1,4.05-4.35,4.05-2.4,0-4.8-1.5-4.8-4.2v-.15c.3-12.15.6-26.25.6-39.15,0-8.4-.15-16.35-.3-22.95v-.15c0-2.4,2.4-3.9,4.65-3.9s4.5,1.35,4.5,4.2c0,2.25-.15,3.3-.15,5.4,0,.45.15.75.15.75.15,0,.45-.3.6-.6,6.6-9.15,20.1-10.05,21.9-10.05,3.15,0,4.65,1.95,4.65,4.05s-1.65,4.35-4.65,4.35c-10.65,0-22.5,6.75-22.8,18.3-.15,3.9-.15,10.8-.15,19.35,0,6.15,0,13.2.15,20.55v.15Z"/>
      <path class="cls-1" d="M2389.97,112.25c-15.6,0-24.3-9-24.3-13.2,0-2.55,2.25-4.35,4.5-4.35,1.35,0,2.7.6,3.75,1.95,3.3,4.65,8.7,7.5,16.05,7.5,8.55,0,15-4.8,15-11.25,0-7.95-6.45-10.95-23.85-18.75-8.25-3.6-12.15-10.2-12.15-16.65,0-8.85,7.2-17.25,20.4-17.25s20.85,6.45,20.85,10.5c0,2.4-1.95,4.35-4.35,4.35-1.2,0-2.7-.6-3.9-2.1-2.4-2.85-6.15-5.25-12.6-5.25-7.65,0-12,4.5-12,9.45,0,3.6,2.4,7.35,7.35,9.75,4.2,1.95,11.1,4.8,15.75,7.2,9.3,4.8,13.35,11.85,13.35,18.75,0,8.55-7.05,19.35-23.85,19.35Z"/>
      <path class="cls-1" d="M2478.62,99.8c-4.5,7.65-14.55,12.3-23.7,12.3-15.15,0-24.3-10.35-24.3-20.7,0-7.5,4.95-15.15,16.05-18.6,9.3-2.85,21.45-5.1,27.75-6.15,1.8-.3,2.4-.75,2.4-1.8,0-.75.15-1.65.15-2.4,0-8.25-3.45-14.7-15.6-14.7-8.1,0-14.1,3.45-17.55,7.2-.9,1.05-2.1,1.5-3.15,1.5-2.25,0-4.2-1.65-4.2-4.05,0-5.7,12.6-12.15,25.5-12.15,13.95,0,23.4,6.15,23.4,22.95,0,1.35,0,2.7-.15,4.2-.45,4.95-.75,11.7-.75,16.65,0,12.45,2.4,15.45,8.4,18.6,1.2.6,1.65,1.8,1.65,3,0,2.1-1.8,4.65-4.5,4.65-.9,0-8.4-2.1-10.5-10.35-.15-.45-.15-.6-.45-.6,0,0-.3.15-.45.45ZM2476.52,81.05c0-1.65.15-3.3.15-5.1,0-1.2-.45-1.65-1.5-1.65h-.45c-23.55,3.75-36,6.75-36,17.25,0,6.3,6,12.6,16.05,12.6,13.8,0,21.75-10.35,21.75-23.1Z"/>
      <path class="cls-1" d="M2523.77,105.95c0,3.15-2.25,4.65-4.65,4.65s-4.65-1.5-4.65-4.65v-.15c.3-10.8.3-32.7.3-53.25s0-40.35-.3-46.5v-.15c0-3.3,2.4-4.8,4.8-4.8,2.25,0,4.5,1.5,4.5,4.5v.15c-.15,6.9-.3,29.25-.3,51.9,0,18.6.15,37.5.3,48.15v.15Z"/>
      <path class="cls-1" d="M2546.72,76.1c0-20.85,14.7-35.85,34.65-35.85s34.95,15,34.95,35.85-15,36-34.95,36-34.65-14.4-34.65-36ZM2607.46,76.1c0-16.95-11.7-28.05-26.1-28.05s-25.95,11.1-25.95,28.05,11.55,27.9,25.95,27.9,26.1-11.1,26.1-27.9Z"/>
      <path class="cls-1" d="M2687.11,107.15c.15-6.3.3-18,.3-27.45,0-6.15-.15-11.4-.3-13.8-.75-12.15-8.4-17.25-16.8-17.25-10.5,0-22.35,8.1-22.65,20.1-.15,4.65-.3,12.9-.3,23.25,0,4.8,0,9.75.15,15.15v.15c0,2.7-2.1,4.05-4.35,4.05s-4.65-1.5-4.65-4.2v-.15c.3-12.15.6-26.1.6-38.85,0-8.4-.15-16.2-.3-22.8v-.15c0-2.4,2.4-3.9,4.8-3.9,2.1,0,4.2,1.2,4.2,4.05v5.7c0,.45.15.6.15.6.15,0,.45-.15.6-.45,5.4-7.2,13.95-10.8,22.2-10.8,12.45,0,24.45,8.1,25.05,24,.15,4.8.3,15.9.3,26.25,0,6.3,0,12.45-.15,16.5,0,3-2.1,4.35-4.35,4.35s-4.5-1.5-4.5-4.2v-.15Z"/>
      <path class="cls-1" d="M2784.91,112.25c-15.6,0-24.3-9-24.3-13.2,0-2.55,2.25-4.35,4.5-4.35,1.35,0,2.7.6,3.75,1.95,3.3,4.65,8.7,7.5,16.05,7.5,8.55,0,15-4.8,15-11.25,0-7.95-6.45-10.95-23.85-18.75-8.25-3.6-12.15-10.2-12.15-16.65,0-8.85,7.2-17.25,20.4-17.25s20.85,6.45,20.85,10.5c0,2.4-1.95,4.35-4.35,4.35-1.2,0-2.7-.6-3.9-2.1-2.4-2.85-6.15-5.25-12.6-5.25-7.65,0-12,4.5-12,9.45,0,3.6,2.4,7.35,7.35,9.75,4.2,1.95,11.1,4.8,15.75,7.2,9.3,4.8,13.35,11.85,13.35,18.75,0,8.55-7.05,19.35-23.85,19.35Z"/>
      <path class="cls-1" d="M2836.81,14.75c-7.05,0-7.05-6.45-7.05-7.35,0-4.65,4.2-6.9,7.2-6.9,2.25,0,7.35,1.2,7.35,6.9,0,4.65-3.75,7.35-7.5,7.35ZM2841.76,106.7c0,3-2.4,4.5-4.8,4.5-2.25,0-4.65-1.5-4.65-4.5,0-12.75.15-30.3.15-44.25,0-7.05,0-13.2-.15-17.4v-.15c0-2.7,2.4-4.2,4.8-4.2,2.25,0,4.65,1.35,4.65,4.05v.15c-.15,6.3-.3,18.6-.3,31.5,0,10.65.15,21.75.3,30.15v.15Z"/>
      <path class="cls-1" d="M2886.31,49.7c-2.4,0-2.4.3-2.4,2.25,0,5.7-.45,21.15-.45,32.25,0,11.7.3,19.65,12,19.65,1.35,0,2.7-.15,4.2-.3h.6c2.25,0,3.6,1.95,3.6,3.9,0,3.9-3.6,4.65-9.6,4.65-19.2,0-19.2-16.35-19.2-22.95,0-9.6.3-27.9.3-35.25v-2.4c0-1.5-.45-1.8-1.5-1.8h-8.85c-2.85,0-4.2-1.95-4.2-3.9s1.35-3.9,4.2-3.9h8.7c1.35,0,1.65-.15,1.65-1.5,0-.6.15-7.8.15-13.05v-3.75c0-2.85,2.25-4.35,4.35-4.35,2.25,0,4.35,1.5,4.35,4.65,0,4.35-.3,16.35-.3,16.35,0,1.65.3,1.65,2.25,1.65h13.35c2.85,0,4.2,1.95,4.2,3.9s-1.35,3.9-4.2,3.9h-13.2Z"/>
      <path class="cls-1" d="M2952.16,112.1c-19.05,0-33.9-14.25-33.9-35.4s15.75-36.3,33.45-36.3c20.55,0,29.55,16.05,29.55,24.6,0,5.7-3.45,9.9-10.95,10.05-3.45.15-8.55.15-14.1.15-11.25,0-24-.15-27.3-.15-1.5,0-1.8.6-1.8,2.7,0,16.35,10.8,26.4,25.2,26.4,10.95,0,17.1-4.65,21.75-9.9.9-.9,1.95-1.35,3-1.35,2.25,0,4.5,1.95,4.5,4.35,0,3.45-10.5,14.85-29.4,14.85ZM2951.86,47.9c-14.4,0-23.55,12.9-23.55,18.45,0,1.5,1.35,1.5,18.75,1.5,7.8,0,16.2,0,20.4-.15,3.6-.15,4.95-1.8,4.95-4.2,0-4.35-5.25-15.6-20.55-15.6Z"/>
      <path class="cls-1" d="M3090.76,71.15c3.15,0,4.65,2.25,4.65,4.5,0,2.4-1.65,4.8-4.95,4.8-11.55-.15-19.05-.3-25.5-.3-5.4,0-10.2.15-16.2.3-1.35,0-4.95-.15-4.95-4.65,0-2.4,1.5-4.65,4.5-4.65h.15c6,.15,13.05.15,20.4.15s15,0,21.75-.15h.15Z"/>
      <path class="cls-1" d="M3212.7,107c.15-6.3.3-18,.3-27.45,0-6.15-.15-11.4-.3-13.8-.75-12.45-8.7-17.55-17.25-17.55-10.35,0-21.75,7.8-22.2,19.5-.15,4.65-.3,13.5-.3,24.15,0,4.8,0,9.9.15,15.3v.15c0,2.7-2.1,4.05-4.35,4.05s-4.65-1.5-4.65-4.2v-.15c.3-11.7.45-38.85.45-62.7,0-16.8,0-31.95-.15-38.85v-.15c0-2.4,2.25-3.75,4.5-3.75s4.5,1.35,4.5,4.2c0,5.55-.15,41.1-.15,44.25,0,.45.15.75.3.75s.3-.3.6-.6c5.25-6.75,13.8-10.2,22.2-10.2,12.45,0,24.45,7.8,25.05,24.15.15,4.8.3,15.9.3,26.25,0,6.3,0,12.45-.15,16.5,0,3-2.25,4.5-4.35,4.5-2.25,0-4.5-1.5-4.5-4.2v-.15Z"/>
      <path class="cls-1" d="M3289.96,99.8c-4.5,7.65-14.55,12.3-23.7,12.3-15.15,0-24.3-10.35-24.3-20.7,0-7.5,4.95-15.15,16.05-18.6,9.3-2.85,21.45-5.1,27.75-6.15,1.8-.3,2.4-.75,2.4-1.8,0-.75.15-1.65.15-2.4,0-8.25-3.45-14.7-15.6-14.7-8.1,0-14.1,3.45-17.55,7.2-.9,1.05-2.1,1.5-3.15,1.5-2.25,0-4.2-1.65-4.2-4.05,0-5.7,12.6-12.15,25.5-12.15,13.95,0,23.4,6.15,23.4,22.95,0,1.35,0,2.7-.15,4.2-.45,4.95-.75,11.7-.75,16.65,0,12.45,2.4,15.45,8.4,18.6,1.2.6,1.65,1.8,1.65,3,0,2.1-1.8,4.65-4.5,4.65-.9,0-8.4-2.1-10.5-10.35-.15-.45-.15-.6-.45-.6,0,0-.3.15-.45.45ZM3287.86,81.05c0-1.65.15-3.3.15-5.1,0-1.2-.45-1.65-1.5-1.65h-.45c-23.55,3.75-36,6.75-36,17.25,0,6.3,6,12.6,16.05,12.6,13.8,0,21.75-10.35,21.75-23.1Z"/>
      <path class="cls-1" d="M3330.76,14.75c-7.05,0-7.05-6.45-7.05-7.35,0-4.65,4.2-6.9,7.2-6.9,2.25,0,7.35,1.2,7.35,6.9,0,4.65-3.75,7.35-7.5,7.35ZM3335.71,106.7c0,3-2.4,4.5-4.8,4.5-2.25,0-4.65-1.5-4.65-4.5,0-12.75.15-30.3.15-44.25,0-7.05,0-13.2-.15-17.4v-.15c0-2.7,2.4-4.2,4.8-4.2,2.25,0,4.65,1.35,4.65,4.05v.15c-.15,6.3-.3,18.6-.3,31.5,0,10.65.15,21.75.3,30.15v.15Z"/>
      <path class="cls-1" d="M3374.11,107.3c0,2.7-2.1,4.05-4.35,4.05-2.4,0-4.8-1.5-4.8-4.2v-.15c.3-12.15.6-26.25.6-39.15,0-8.4-.15-16.35-.3-22.95v-.15c0-2.4,2.4-3.9,4.65-3.9s4.5,1.35,4.5,4.2c0,2.25-.15,3.3-.15,5.4,0,.45.15.75.15.75.15,0,.45-.3.6-.6,6.6-9.15,20.1-10.05,21.9-10.05,3.15,0,4.65,1.95,4.65,4.05s-1.65,4.35-4.65,4.35c-10.65,0-22.5,6.75-22.8,18.3-.15,3.9-.15,10.8-.15,19.35,0,6.15,0,13.2.15,20.55v.15Z"/>
      <path class="cls-1" d="M3483.15,112.25c-15.6,0-24.3-9-24.3-13.2,0-2.55,2.25-4.35,4.5-4.35,1.35,0,2.7.6,3.75,1.95,3.3,4.65,8.7,7.5,16.05,7.5,8.55,0,15-4.8,15-11.25,0-7.95-6.45-10.95-23.85-18.75-8.25-3.6-12.15-10.2-12.15-16.65,0-8.85,7.2-17.25,20.4-17.25s20.85,6.45,20.85,10.5c0,2.4-1.95,4.35-4.35,4.35-1.2,0-2.7-.6-3.9-2.1-2.4-2.85-6.15-5.25-12.6-5.25-7.65,0-12,4.5-12,9.45,0,3.6,2.4,7.35,7.35,9.75,4.2,1.95,11.1,4.8,15.75,7.2,9.3,4.8,13.35,11.85,13.35,18.75,0,8.55-7.05,19.35-23.85,19.35Z"/>
      <path class="cls-1" d="M3571.8,99.8c-4.5,7.65-14.55,12.3-23.7,12.3-15.15,0-24.3-10.35-24.3-20.7,0-7.5,4.95-15.15,16.05-18.6,9.3-2.85,21.45-5.1,27.75-6.15,1.8-.3,2.4-.75,2.4-1.8,0-.75.15-1.65.15-2.4,0-8.25-3.45-14.7-15.6-14.7-8.1,0-14.1,3.45-17.55,7.2-.9,1.05-2.1,1.5-3.15,1.5-2.25,0-4.2-1.65-4.2-4.05,0-5.7,12.6-12.15,25.5-12.15,13.95,0,23.4,6.15,23.4,22.95,0,1.35,0,2.7-.15,4.2-.45,4.95-.75,11.7-.75,16.65,0,12.45,2.4,15.45,8.4,18.6,1.2.6,1.65,1.8,1.65,3,0,2.1-1.8,4.65-4.5,4.65-.9,0-8.4-2.1-10.5-10.35-.15-.45-.15-.6-.45-.6,0,0-.3.15-.45.45ZM3569.7,81.05c0-1.65.15-3.3.15-5.1,0-1.2-.45-1.65-1.5-1.65h-.45c-23.55,3.75-36,6.75-36,17.25,0,6.3,6,12.6,16.05,12.6,13.8,0,21.75-10.35,21.75-23.1Z"/>
      <path class="cls-1" d="M3616.95,105.95c0,3.15-2.25,4.65-4.65,4.65s-4.65-1.5-4.65-4.65v-.15c.3-10.8.3-32.7.3-53.25s0-40.35-.3-46.5v-.15c0-3.3,2.4-4.8,4.8-4.8,2.25,0,4.5,1.5,4.5,4.5v.15c-.15,6.9-.3,29.25-.3,51.9,0,18.6.15,37.5.3,48.15v.15Z"/>
      <path class="cls-1" d="M3639.9,76.1c0-20.85,14.7-35.85,34.65-35.85s34.95,15,34.95,35.85-15,36-34.95,36-34.65-14.4-34.65-36ZM3700.65,76.1c0-16.95-11.7-28.05-26.1-28.05s-25.95,11.1-25.95,28.05,11.55,27.9,25.95,27.9,26.1-11.1,26.1-27.9Z"/>
      <path class="cls-1" d="M3780.3,107.15c.15-6.3.3-18,.3-27.45,0-6.15-.15-11.4-.3-13.8-.75-12.15-8.4-17.25-16.8-17.25-10.5,0-22.35,8.1-22.65,20.1-.15,4.65-.3,12.9-.3,23.25,0,4.8,0,9.75.15,15.15v.15c0,2.7-2.1,4.05-4.35,4.05s-4.65-1.5-4.65-4.2v-.15c.3-12.15.6-26.1.6-38.85,0-8.4-.15-16.2-.3-22.8v-.15c0-2.4,2.4-3.9,4.8-3.9,2.1,0,4.2,1.2,4.2,4.05v5.7c0,.45.15.6.15.6.15,0,.45-.15.6-.45,5.4-7.2,13.95-10.8,22.2-10.8,12.45,0,24.45,8.1,25.05,24,.15,4.8.3,15.9.3,26.25,0,6.3,0,12.45-.15,16.5,0,3-2.1,4.35-4.35,4.35s-4.5-1.5-4.5-4.2v-.15Z"/>
      <path class="cls-1" d="M3878.1,112.25c-15.6,0-24.3-9-24.3-13.2,0-2.55,2.25-4.35,4.5-4.35,1.35,0,2.7.6,3.75,1.95,3.3,4.65,8.7,7.5,16.05,7.5,8.55,0,15-4.8,15-11.25,0-7.95-6.45-10.95-23.85-18.75-8.25-3.6-12.15-10.2-12.15-16.65,0-8.85,7.2-17.25,20.4-17.25s20.85,6.45,20.85,10.5c0,2.4-1.95,4.35-4.35,4.35-1.2,0-2.7-.6-3.9-2.1-2.4-2.85-6.15-5.25-12.6-5.25-7.65,0-12,4.5-12,9.45,0,3.6,2.4,7.35,7.35,9.75,4.2,1.95,11.1,4.8,15.75,7.2,9.3,4.8,13.35,11.85,13.35,18.75,0,8.55-7.05,19.35-23.85,19.35Z"/>
      <path class="cls-1" d="M3930,14.75c-7.05,0-7.05-6.45-7.05-7.35,0-4.65,4.2-6.9,7.2-6.9,2.25,0,7.35,1.2,7.35,6.9,0,4.65-3.75,7.35-7.5,7.35ZM3934.95,106.7c0,3-2.4,4.5-4.8,4.5-2.25,0-4.65-1.5-4.65-4.5,0-12.75.15-30.3.15-44.25,0-7.05,0-13.2-.15-17.4v-.15c0-2.7,2.4-4.2,4.8-4.2,2.25,0,4.65,1.35,4.65,4.05v.15c-.15,6.3-.3,18.6-.3,31.5,0,10.65.15,21.75.3,30.15v.15Z"/>
    </g>
  </g>
</svg>