<?xml version="1.0" encoding="UTF-8"?>
<svg id="_レイヤー_2" data-name="レイヤー 2" xmlns="http://www.w3.org/2000/svg" viewBox="0 0 3571.09 112.75">
  <defs>
    <style>
      .cls-1 {
        fill: none;
        stroke: #404648;
        stroke-miterlimit: 10;
      }
    </style>
  </defs>
  <g id="letter">
    <g>
      <path class="cls-1" d="M33.35,102.65c-1.65,5.85-5.55,8.7-9.45,8.7s-7.65-2.85-9-8.55C11.6,89,3.65,59.15.65,45.95c-.15-.3-.15-.6-.15-1.05,0-2.4,2.25-3.75,4.5-3.75,1.95,0,3.75,1.05,4.35,3.3,2.85,11.85,10.5,44.25,13.05,55.95.45,1.95,1.05,2.7,1.8,2.7s1.5-.9,1.95-2.7c2.85-10.8,10.8-41.1,13.05-52.2.9-4.8,4.65-7.05,8.25-7.05s7.5,2.4,8.4,6.6c1.95,9.6,10.35,41.4,12.9,52.8.45,1.8,1.05,2.7,1.65,2.7.75,0,1.35-1.05,1.8-2.4,3.3-11.55,12.45-45,14.85-56.4.45-2.4,2.4-3.45,4.2-3.45,2.25,0,4.65,1.65,4.65,4.05,0,3.3-9.9,37.8-16.5,58.2-1.65,5.1-5.55,7.95-9.3,7.95s-7.05-2.7-8.55-8.25c-1.95-7.65-10.2-39-12.45-51.15-.3-1.65-.9-2.4-1.5-2.4s-1.2.9-1.65,2.55c-2.7,13.35-9.9,40.65-12.6,50.7Z"/>
      <path class="cls-1" d="M109.25,76.1c0-20.85,14.7-35.85,34.65-35.85s34.95,15,34.95,35.85-15,36-34.95,36-34.65-14.4-34.65-36ZM170,76.1c0-16.95-11.7-28.05-26.1-28.05s-25.95,11.1-25.95,28.05,11.55,27.9,25.95,27.9,26.1-11.1,26.1-27.9Z"/>
      <path class="cls-1" d="M210.05,107.3c0,2.7-2.1,4.05-4.35,4.05-2.4,0-4.8-1.5-4.8-4.2v-.15c.3-12.15.6-26.25.6-39.15,0-8.4-.15-16.35-.3-22.95v-.15c0-2.4,2.4-3.9,4.65-3.9s4.5,1.35,4.5,4.2c0,2.25-.15,3.3-.15,5.4,0,.45.15.75.15.75.15,0,.45-.3.6-.6,6.6-9.15,20.1-10.05,21.9-10.05,3.15,0,4.65,1.95,4.65,4.05s-1.65,4.35-4.65,4.35c-10.65,0-22.5,6.75-22.8,18.3-.15,3.9-.15,10.8-.15,19.35,0,6.15,0,13.2.15,20.55v.15Z"/>
      <path class="cls-1" d="M256.4,107c.45-19.35.6-49.05.6-72.75,0-11.85,0-22.2-.15-29.1,0-2.7,2.25-4.05,4.5-4.05s4.5,1.35,4.5,4.05v.15c-.3,10.5-.3,29.7-.3,43.35v15.75c0,1.65.75,2.25,2.25,2.25.9,0,1.95-.3,3-1.05,9.15-6.3,24-16.95,32.7-23.55,1.05-.75,1.95-1.05,2.85-1.05,2.7,0,4.65,2.55,4.65,4.95,0,1.2-.45,2.4-1.65,3.15-9.15,6.3-22.35,15.3-30.6,20.55-.9.6-1.35,1.05-1.35,1.5s.45.9,1.2,1.65c7.8,7.5,27.9,24.75,33,29.55,1.35,1.2,1.8,2.55,1.8,3.9,0,2.55-2.25,4.8-4.8,4.8-1.2,0-2.25-.3-3.3-1.35-4.65-4.5-26.7-25.65-33.6-32.85-1.5-1.65-2.7-1.8-4.2-1.8-2.4,0-2.4,1.05-2.4,15.45,0,4.05,0,9.15.15,16.2,0,2.85-2.25,4.2-4.5,4.2s-4.35-1.2-4.35-3.75v-.15Z"/>
      <path class="cls-1" d="M361.84,112.1c-19.05,0-33.9-14.25-33.9-35.4s15.75-36.3,33.45-36.3c20.55,0,29.55,16.05,29.55,24.6,0,5.7-3.45,9.9-10.95,10.05-3.45.15-8.55.15-14.1.15-11.25,0-24-.15-27.3-.15-1.5,0-1.8.6-1.8,2.7,0,16.35,10.8,26.4,25.2,26.4,10.95,0,17.1-4.65,21.75-9.9.9-.9,1.95-1.35,3-1.35,2.25,0,4.5,1.95,4.5,4.35,0,3.45-10.5,14.85-29.4,14.85ZM361.54,47.9c-14.4,0-23.55,12.9-23.55,18.45,0,1.5,1.35,1.5,18.75,1.5,7.8,0,16.2,0,20.4-.15,3.6-.15,4.95-1.8,4.95-4.2,0-4.35-5.25-15.6-20.55-15.6Z"/>
      <path class="cls-1" d="M421.84,107.3c0,2.7-2.1,4.05-4.35,4.05-2.4,0-4.8-1.5-4.8-4.2v-.15c.3-12.15.6-26.25.6-39.15,0-8.4-.15-16.35-.3-22.95v-.15c0-2.4,2.4-3.9,4.65-3.9s4.5,1.35,4.5,4.2c0,2.25-.15,3.3-.15,5.4,0,.45.15.75.15.75.15,0,.45-.3.6-.6,6.6-9.15,20.1-10.05,21.9-10.05,3.15,0,4.65,1.95,4.65,4.05s-1.65,4.35-4.65,4.35c-10.65,0-22.5,6.75-22.8,18.3-.15,3.9-.15,10.8-.15,19.35,0,6.15,0,13.2.15,20.55v.15Z"/>
      <path class="cls-1" d="M485.89,112.25c-15.6,0-24.3-9-24.3-13.2,0-2.55,2.25-4.35,4.5-4.35,1.35,0,2.7.6,3.75,1.95,3.3,4.65,8.7,7.5,16.05,7.5,8.55,0,15-4.8,15-11.25,0-7.95-6.45-10.95-23.85-18.75-8.25-3.6-12.15-10.2-12.15-16.65,0-8.85,7.2-17.25,20.4-17.25s20.85,6.45,20.85,10.5c0,2.4-1.95,4.35-4.35,4.35-1.2,0-2.7-.6-3.9-2.1-2.4-2.85-6.15-5.25-12.6-5.25-7.65,0-12,4.5-12,9.45,0,3.6,2.4,7.35,7.35,9.75,4.2,1.95,11.1,4.8,15.75,7.2,9.3,4.8,13.35,11.85,13.35,18.75,0,8.55-7.05,19.35-23.85,19.35Z"/>
      <path class="cls-1" d="M595.09,112.25c-15.6,0-24.3-9-24.3-13.2,0-2.55,2.25-4.35,4.5-4.35,1.35,0,2.7.6,3.75,1.95,3.3,4.65,8.7,7.5,16.05,7.5,8.55,0,15-4.8,15-11.25,0-7.95-6.45-10.95-23.85-18.75-8.25-3.6-12.15-10.2-12.15-16.65,0-8.85,7.2-17.25,20.4-17.25s20.85,6.45,20.85,10.5c0,2.4-1.95,4.35-4.35,4.35-1.2,0-2.7-.6-3.9-2.1-2.4-2.85-6.15-5.25-12.6-5.25-7.65,0-12,4.5-12,9.45,0,3.6,2.4,7.35,7.35,9.75,4.2,1.95,11.1,4.8,15.75,7.2,9.3,4.8,13.35,11.85,13.35,18.75,0,8.55-7.05,19.35-23.85,19.35Z"/>
      <path class="cls-1" d="M646.99,14.75c-7.05,0-7.05-6.45-7.05-7.35,0-4.65,4.2-6.9,7.2-6.9,2.25,0,7.35,1.2,7.35,6.9,0,4.65-3.75,7.35-7.5,7.35ZM651.94,106.7c0,3-2.4,4.5-4.8,4.5-2.25,0-4.65-1.5-4.65-4.5,0-12.75.15-30.3.15-44.25,0-7.05,0-13.2-.15-17.4v-.15c0-2.7,2.4-4.2,4.8-4.2,2.25,0,4.65,1.35,4.65,4.05v.15c-.15,6.3-.3,18.6-.3,31.5,0,10.65.15,21.75.3,30.15v.15Z"/>
      <path class="cls-1" d="M696.49,49.7c-2.4,0-2.4.3-2.4,2.25,0,5.7-.45,21.15-.45,32.25,0,11.7.3,19.65,12,19.65,1.35,0,2.7-.15,4.2-.3h.6c2.25,0,3.6,1.95,3.6,3.9,0,3.9-3.6,4.65-9.6,4.65-19.2,0-19.2-16.35-19.2-22.95,0-9.6.3-27.9.3-35.25v-2.4c0-1.5-.45-1.8-1.5-1.8h-8.85c-2.85,0-4.2-1.95-4.2-3.9s1.35-3.9,4.2-3.9h8.7c1.35,0,1.65-.15,1.65-1.5,0-.6.15-7.8.15-13.05v-3.75c0-2.85,2.25-4.35,4.35-4.35,2.25,0,4.35,1.5,4.35,4.65,0,4.35-.3,16.35-.3,16.35,0,1.65.3,1.65,2.25,1.65h13.35c2.85,0,4.2,1.95,4.2,3.9s-1.35,3.9-4.2,3.9h-13.2Z"/>
      <path class="cls-1" d="M762.34,112.1c-19.05,0-33.9-14.25-33.9-35.4s15.75-36.3,33.45-36.3c20.55,0,29.55,16.05,29.55,24.6,0,5.7-3.45,9.9-10.95,10.05-3.45.15-8.55.15-14.1.15-11.25,0-24-.15-27.3-.15-1.5,0-1.8.6-1.8,2.7,0,16.35,10.8,26.4,25.2,26.4,10.95,0,17.1-4.65,21.75-9.9.9-.9,1.95-1.35,3-1.35,2.25,0,4.5,1.95,4.5,4.35,0,3.45-10.5,14.85-29.4,14.85ZM762.04,47.9c-14.4,0-23.55,12.9-23.55,18.45,0,1.5,1.35,1.5,18.75,1.5,7.8,0,16.2,0,20.4-.15,3.6-.15,4.95-1.8,4.95-4.2,0-4.35-5.25-15.6-20.55-15.6Z"/>
      <path class="cls-1" d="M900.93,71.15c3.15,0,4.65,2.25,4.65,4.5,0,2.4-1.65,4.8-4.95,4.8-11.55-.15-19.05-.3-25.5-.3-5.4,0-10.2.15-16.2.3-1.35,0-4.95-.15-4.95-4.65,0-2.4,1.5-4.65,4.5-4.65h.15c6,.15,13.05.15,20.4.15s15,0,21.75-.15h.15Z"/>
      <path class="cls-1" d="M998.28,102.65c-1.65,5.85-5.55,8.7-9.45,8.7s-7.65-2.85-9-8.55c-3.3-13.8-11.25-43.65-14.25-56.85-.15-.3-.15-.6-.15-1.05,0-2.4,2.25-3.75,4.5-3.75,1.95,0,3.75,1.05,4.35,3.3,2.85,11.85,10.5,44.25,13.05,55.95.45,1.95,1.05,2.7,1.8,2.7s1.5-.9,1.95-2.7c2.85-10.8,10.8-41.1,13.05-52.2.9-4.8,4.65-7.05,8.25-7.05s7.5,2.4,8.4,6.6c1.95,9.6,10.35,41.4,12.9,52.8.45,1.8,1.05,2.7,1.65,2.7.75,0,1.35-1.05,1.8-2.4,3.3-11.55,12.45-45,14.85-56.4.45-2.4,2.4-3.45,4.2-3.45,2.25,0,4.65,1.65,4.65,4.05,0,3.3-9.9,37.8-16.5,58.2-1.65,5.1-5.55,7.95-9.3,7.95s-7.05-2.7-8.55-8.25c-1.95-7.65-10.2-39-12.45-51.15-.3-1.65-.9-2.4-1.5-2.4s-1.2.9-1.65,2.55c-2.7,13.35-9.9,40.65-12.6,50.7Z"/>
      <path class="cls-1" d="M1074.18,76.1c0-20.85,14.7-35.85,34.65-35.85s34.95,15,34.95,35.85-15,36-34.95,36-34.65-14.4-34.65-36ZM1134.93,76.1c0-16.95-11.7-28.05-26.1-28.05s-25.95,11.1-25.95,28.05,11.55,27.9,25.95,27.9,26.1-11.1,26.1-27.9Z"/>
      <path class="cls-1" d="M1174.98,107.3c0,2.7-2.1,4.05-4.35,4.05-2.4,0-4.8-1.5-4.8-4.2v-.15c.3-12.15.6-26.25.6-39.15,0-8.4-.15-16.35-.3-22.95v-.15c0-2.4,2.4-3.9,4.65-3.9s4.5,1.35,4.5,4.2c0,2.25-.15,3.3-.15,5.4,0,.45.15.75.15.75.15,0,.45-.3.6-.6,6.6-9.15,20.1-10.05,21.9-10.05,3.15,0,4.65,1.95,4.65,4.05s-1.65,4.35-4.65,4.35c-10.65,0-22.5,6.75-22.8,18.3-.15,3.9-.15,10.8-.15,19.35,0,6.15,0,13.2.15,20.55v.15Z"/>
      <path class="cls-1" d="M1221.33,107c.45-19.35.6-49.05.6-72.75,0-11.85,0-22.2-.15-29.1,0-2.7,2.25-4.05,4.5-4.05s4.5,1.35,4.5,4.05v.15c-.3,10.5-.3,29.7-.3,43.35v15.75c0,1.65.75,2.25,2.25,2.25.9,0,1.95-.3,3-1.05,9.15-6.3,24-16.95,32.7-23.55,1.05-.75,1.95-1.05,2.85-1.05,2.7,0,4.65,2.55,4.65,4.95,0,1.2-.45,2.4-1.65,3.15-9.15,6.3-22.35,15.3-30.6,20.55-.9.6-1.35,1.05-1.35,1.5s.45.9,1.2,1.65c7.8,7.5,27.9,24.75,33,29.55,1.35,1.2,1.8,2.55,1.8,3.9,0,2.55-2.25,4.8-4.8,4.8-1.2,0-2.25-.3-3.3-1.35-4.65-4.5-26.7-25.65-33.6-32.85-1.5-1.65-2.7-1.8-4.2-1.8-2.4,0-2.4,1.05-2.4,15.45,0,4.05,0,9.15.15,16.2,0,2.85-2.25,4.2-4.5,4.2s-4.35-1.2-4.35-3.75v-.15Z"/>
      <path class="cls-1" d="M1326.78,112.1c-19.05,0-33.9-14.25-33.9-35.4s15.75-36.3,33.45-36.3c20.55,0,29.55,16.05,29.55,24.6,0,5.7-3.45,9.9-10.95,10.05-3.45.15-8.55.15-14.1.15-11.25,0-24-.15-27.3-.15-1.5,0-1.8.6-1.8,2.7,0,16.35,10.8,26.4,25.2,26.4,10.95,0,17.1-4.65,21.75-9.9.9-.9,1.95-1.35,3-1.35,2.25,0,4.5,1.95,4.5,4.35,0,3.45-10.5,14.85-29.4,14.85ZM1326.48,47.9c-14.4,0-23.55,12.9-23.55,18.45,0,1.5,1.35,1.5,18.75,1.5,7.8,0,16.2,0,20.4-.15,3.6-.15,4.95-1.8,4.95-4.2,0-4.35-5.25-15.6-20.55-15.6Z"/>
      <path class="cls-1" d="M1386.78,107.3c0,2.7-2.1,4.05-4.35,4.05-2.4,0-4.8-1.5-4.8-4.2v-.15c.3-12.15.6-26.25.6-39.15,0-8.4-.15-16.35-.3-22.95v-.15c0-2.4,2.4-3.9,4.65-3.9s4.5,1.35,4.5,4.2c0,2.25-.15,3.3-.15,5.4,0,.45.15.75.15.75.15,0,.45-.3.6-.6,6.6-9.15,20.1-10.05,21.9-10.05,3.15,0,4.65,1.95,4.65,4.05s-1.65,4.35-4.65,4.35c-10.65,0-22.5,6.75-22.8,18.3-.15,3.9-.15,10.8-.15,19.35,0,6.15,0,13.2.15,20.55v.15Z"/>
      <path class="cls-1" d="M1450.82,112.25c-15.6,0-24.3-9-24.3-13.2,0-2.55,2.25-4.35,4.5-4.35,1.35,0,2.7.6,3.75,1.95,3.3,4.65,8.7,7.5,16.05,7.5,8.55,0,15-4.8,15-11.25,0-7.95-6.45-10.95-23.85-18.75-8.25-3.6-12.15-10.2-12.15-16.65,0-8.85,7.2-17.25,20.4-17.25s20.85,6.45,20.85,10.5c0,2.4-1.95,4.35-4.35,4.35-1.2,0-2.7-.6-3.9-2.1-2.4-2.85-6.15-5.25-12.6-5.25-7.65,0-12,4.5-12,9.45,0,3.6,2.4,7.35,7.35,9.75,4.2,1.95,11.1,4.8,15.75,7.2,9.3,4.8,13.35,11.85,13.35,18.75,0,8.55-7.05,19.35-23.85,19.35Z"/>
      <path class="cls-1" d="M1560.02,112.25c-15.6,0-24.3-9-24.3-13.2,0-2.55,2.25-4.35,4.5-4.35,1.35,0,2.7.6,3.75,1.95,3.3,4.65,8.7,7.5,16.05,7.5,8.55,0,15-4.8,15-11.25,0-7.95-6.45-10.95-23.85-18.75-8.25-3.6-12.15-10.2-12.15-16.65,0-8.85,7.2-17.25,20.4-17.25s20.85,6.45,20.85,10.5c0,2.4-1.95,4.35-4.35,4.35-1.2,0-2.7-.6-3.9-2.1-2.4-2.85-6.15-5.25-12.6-5.25-7.65,0-12,4.5-12,9.45,0,3.6,2.4,7.35,7.35,9.75,4.2,1.95,11.1,4.8,15.75,7.2,9.3,4.8,13.35,11.85,13.35,18.75,0,8.55-7.05,19.35-23.85,19.35Z"/>
      <path class="cls-1" d="M1611.92,14.75c-7.05,0-7.05-6.45-7.05-7.35,0-4.65,4.2-6.9,7.2-6.9,2.25,0,7.35,1.2,7.35,6.9,0,4.65-3.75,7.35-7.5,7.35ZM1616.87,106.7c0,3-2.4,4.5-4.8,4.5-2.25,0-4.65-1.5-4.65-4.5,0-12.75.15-30.3.15-44.25,0-7.05,0-13.2-.15-17.4v-.15c0-2.7,2.4-4.2,4.8-4.2,2.25,0,4.65,1.35,4.65,4.05v.15c-.15,6.3-.3,18.6-.3,31.5,0,10.65.15,21.75.3,30.15v.15Z"/>
      <path class="cls-1" d="M1661.42,49.7c-2.4,0-2.4.3-2.4,2.25,0,5.7-.45,21.15-.45,32.25,0,11.7.3,19.65,12,19.65,1.35,0,2.7-.15,4.2-.3h.6c2.25,0,3.6,1.95,3.6,3.9,0,3.9-3.6,4.65-9.6,4.65-19.2,0-19.2-16.35-19.2-22.95,0-9.6.3-27.9.3-35.25v-2.4c0-1.5-.45-1.8-1.5-1.8h-8.85c-2.85,0-4.2-1.95-4.2-3.9s1.35-3.9,4.2-3.9h8.7c1.35,0,1.65-.15,1.65-1.5,0-.6.15-7.8.15-13.05v-3.75c0-2.85,2.25-4.35,4.35-4.35,2.25,0,4.35,1.5,4.35,4.65,0,4.35-.3,16.35-.3,16.35,0,1.65.3,1.65,2.25,1.65h13.35c2.85,0,4.2,1.95,4.2,3.9s-1.35,3.9-4.2,3.9h-13.2Z"/>
      <path class="cls-1" d="M1727.27,112.1c-19.05,0-33.9-14.25-33.9-35.4s15.75-36.3,33.45-36.3c20.55,0,29.55,16.05,29.55,24.6,0,5.7-3.45,9.9-10.95,10.05-3.45.15-8.55.15-14.1.15-11.25,0-24-.15-27.3-.15-1.5,0-1.8.6-1.8,2.7,0,16.35,10.8,26.4,25.2,26.4,10.95,0,17.1-4.65,21.75-9.9.9-.9,1.95-1.35,3-1.35,2.25,0,4.5,1.95,4.5,4.35,0,3.45-10.5,14.85-29.4,14.85ZM1726.97,47.9c-14.4,0-23.55,12.9-23.55,18.45,0,1.5,1.35,1.5,18.75,1.5,7.8,0,16.2,0,20.4-.15,3.6-.15,4.95-1.8,4.95-4.2,0-4.35-5.25-15.6-20.55-15.6Z"/>
      <path class="cls-1" d="M1847.27,102.65c-1.65,5.85-5.55,8.7-9.45,8.7s-7.65-2.85-9-8.55c-3.3-13.8-11.25-43.65-14.25-56.85-.15-.3-.15-.6-.15-1.05,0-2.4,2.25-3.75,4.5-3.75,1.95,0,3.75,1.05,4.35,3.3,2.85,11.85,10.5,44.25,13.05,55.95.45,1.95,1.05,2.7,1.8,2.7s1.5-.9,1.95-2.7c2.85-10.8,10.8-41.1,13.05-52.2.9-4.8,4.65-7.05,8.25-7.05s7.5,2.4,8.4,6.6c1.95,9.6,10.35,41.4,12.9,52.8.45,1.8,1.05,2.7,1.65,2.7.75,0,1.35-1.05,1.8-2.4,3.3-11.55,12.45-45,14.85-56.4.45-2.4,2.4-3.45,4.2-3.45,2.25,0,4.65,1.65,4.65,4.05,0,3.3-9.9,37.8-16.5,58.2-1.65,5.1-5.55,7.95-9.3,7.95s-7.05-2.7-8.55-8.25c-1.95-7.65-10.2-39-12.45-51.15-.3-1.65-.9-2.4-1.5-2.4s-1.2.9-1.65,2.55c-2.7,13.35-9.9,40.65-12.6,50.7Z"/>
      <path class="cls-1" d="M1923.17,76.1c0-20.85,14.7-35.85,34.65-35.85s34.95,15,34.95,35.85-15,36-34.95,36-34.65-14.4-34.65-36ZM1983.92,76.1c0-16.95-11.7-28.05-26.1-28.05s-25.95,11.1-25.95,28.05,11.55,27.9,25.95,27.9,26.1-11.1,26.1-27.9Z"/>
      <path class="cls-1" d="M2023.96,107.3c0,2.7-2.1,4.05-4.35,4.05-2.4,0-4.8-1.5-4.8-4.2v-.15c.3-12.15.6-26.25.6-39.15,0-8.4-.15-16.35-.3-22.95v-.15c0-2.4,2.4-3.9,4.65-3.9s4.5,1.35,4.5,4.2c0,2.25-.15,3.3-.15,5.4,0,.45.15.75.15.75.15,0,.45-.3.6-.6,6.6-9.15,20.1-10.05,21.9-10.05,3.15,0,4.65,1.95,4.65,4.05s-1.65,4.35-4.65,4.35c-10.65,0-22.5,6.75-22.8,18.3-.15,3.9-.15,10.8-.15,19.35,0,6.15,0,13.2.15,20.55v.15Z"/>
      <path class="cls-1" d="M2070.31,107c.45-19.35.6-49.05.6-72.75,0-11.85,0-22.2-.15-29.1,0-2.7,2.25-4.05,4.5-4.05s4.5,1.35,4.5,4.05v.15c-.3,10.5-.3,29.7-.3,43.35v15.75c0,1.65.75,2.25,2.25,2.25.9,0,1.95-.3,3-1.05,9.15-6.3,24-16.95,32.7-23.55,1.05-.75,1.95-1.05,2.85-1.05,2.7,0,4.65,2.55,4.65,4.95,0,1.2-.45,2.4-1.65,3.15-9.15,6.3-22.35,15.3-30.6,20.55-.9.6-1.35,1.05-1.35,1.5s.45.9,1.2,1.65c7.8,7.5,27.9,24.75,33,29.55,1.35,1.2,1.8,2.55,1.8,3.9,0,2.55-2.25,4.8-4.8,4.8-1.2,0-2.25-.3-3.3-1.35-4.65-4.5-26.7-25.65-33.6-32.85-1.5-1.65-2.7-1.8-4.2-1.8-2.4,0-2.4,1.05-2.4,15.45,0,4.05,0,9.15.15,16.2,0,2.85-2.25,4.2-4.5,4.2s-4.35-1.2-4.35-3.75v-.15Z"/>
      <path class="cls-1" d="M2175.76,112.1c-19.05,0-33.9-14.25-33.9-35.4s15.75-36.3,33.45-36.3c20.55,0,29.55,16.05,29.55,24.6,0,5.7-3.45,9.9-10.95,10.05-3.45.15-8.55.15-14.1.15-11.25,0-24-.15-27.3-.15-1.5,0-1.8.6-1.8,2.7,0,16.35,10.8,26.4,25.2,26.4,10.95,0,17.1-4.65,21.75-9.9.9-.9,1.95-1.35,3-1.35,2.25,0,4.5,1.95,4.5,4.35,0,3.45-10.5,14.85-29.4,14.85ZM2175.46,47.9c-14.4,0-23.55,12.9-23.55,18.45,0,1.5,1.35,1.5,18.75,1.5,7.8,0,16.2,0,20.4-.15,3.6-.15,4.95-1.8,4.95-4.2,0-4.35-5.25-15.6-20.55-15.6Z"/>
      <path class="cls-1" d="M2235.76,107.3c0,2.7-2.1,4.05-4.35,4.05-2.4,0-4.8-1.5-4.8-4.2v-.15c.3-12.15.6-26.25.6-39.15,0-8.4-.15-16.35-.3-22.95v-.15c0-2.4,2.4-3.9,4.65-3.9s4.5,1.35,4.5,4.2c0,2.25-.15,3.3-.15,5.4,0,.45.15.75.15.75.15,0,.45-.3.6-.6,6.6-9.15,20.1-10.05,21.9-10.05,3.15,0,4.65,1.95,4.65,4.05s-1.65,4.35-4.65,4.35c-10.65,0-22.5,6.75-22.8,18.3-.15,3.9-.15,10.8-.15,19.35,0,6.15,0,13.2.15,20.55v.15Z"/>
      <path class="cls-1" d="M2299.81,112.25c-15.6,0-24.3-9-24.3-13.2,0-2.55,2.25-4.35,4.5-4.35,1.35,0,2.7.6,3.75,1.95,3.3,4.65,8.7,7.5,16.05,7.5,8.55,0,15-4.8,15-11.25,0-7.95-6.45-10.95-23.85-18.75-8.25-3.6-12.15-10.2-12.15-16.65,0-8.85,7.2-17.25,20.4-17.25s20.85,6.45,20.85,10.5c0,2.4-1.95,4.35-4.35,4.35-1.2,0-2.7-.6-3.9-2.1-2.4-2.85-6.15-5.25-12.6-5.25-7.65,0-12,4.5-12,9.45,0,3.6,2.4,7.35,7.35,9.75,4.2,1.95,11.1,4.8,15.75,7.2,9.3,4.8,13.35,11.85,13.35,18.75,0,8.55-7.05,19.35-23.85,19.35Z"/>
      <path class="cls-1" d="M2409.01,112.25c-15.6,0-24.3-9-24.3-13.2,0-2.55,2.25-4.35,4.5-4.35,1.35,0,2.7.6,3.75,1.95,3.3,4.65,8.7,7.5,16.05,7.5,8.55,0,15-4.8,15-11.25,0-7.95-6.45-10.95-23.85-18.75-8.25-3.6-12.15-10.2-12.15-16.65,0-8.85,7.2-17.25,20.4-17.25s20.85,6.45,20.85,10.5c0,2.4-1.95,4.35-4.35,4.35-1.2,0-2.7-.6-3.9-2.1-2.4-2.85-6.15-5.25-12.6-5.25-7.65,0-12,4.5-12,9.45,0,3.6,2.4,7.35,7.35,9.75,4.2,1.95,11.1,4.8,15.75,7.2,9.3,4.8,13.35,11.85,13.35,18.75,0,8.55-7.05,19.35-23.85,19.35Z"/>
      <path class="cls-1" d="M2460.91,14.75c-7.05,0-7.05-6.45-7.05-7.35,0-4.65,4.2-6.9,7.2-6.9,2.25,0,7.35,1.2,7.35,6.9,0,4.65-3.75,7.35-7.5,7.35ZM2465.86,106.7c0,3-2.4,4.5-4.8,4.5-2.25,0-4.65-1.5-4.65-4.5,0-12.75.15-30.3.15-44.25,0-7.05,0-13.2-.15-17.4v-.15c0-2.7,2.4-4.2,4.8-4.2,2.25,0,4.65,1.35,4.65,4.05v.15c-.15,6.3-.3,18.6-.3,31.5,0,10.65.15,21.75.3,30.15v.15Z"/>
      <path class="cls-1" d="M2510.41,49.7c-2.4,0-2.4.3-2.4,2.25,0,5.7-.45,21.15-.45,32.25,0,11.7.3,19.65,12,19.65,1.35,0,2.7-.15,4.2-.3h.6c2.25,0,3.6,1.95,3.6,3.9,0,3.9-3.6,4.65-9.6,4.65-19.2,0-19.2-16.35-19.2-22.95,0-9.6.3-27.9.3-35.25v-2.4c0-1.5-.45-1.8-1.5-1.8h-8.85c-2.85,0-4.2-1.95-4.2-3.9s1.35-3.9,4.2-3.9h8.7c1.35,0,1.65-.15,1.65-1.5,0-.6.15-7.8.15-13.05v-3.75c0-2.85,2.25-4.35,4.35-4.35,2.25,0,4.35,1.5,4.35,4.65,0,4.35-.3,16.35-.3,16.35,0,1.65.3,1.65,2.25,1.65h13.35c2.85,0,4.2,1.95,4.2,3.9s-1.35,3.9-4.2,3.9h-13.2Z"/>
      <path class="cls-1" d="M2576.25,112.1c-19.05,0-33.9-14.25-33.9-35.4s15.75-36.3,33.45-36.3c20.55,0,29.55,16.05,29.55,24.6,0,5.7-3.45,9.9-10.95,10.05-3.45.15-8.55.15-14.1.15-11.25,0-24-.15-27.3-.15-1.5,0-1.8.6-1.8,2.7,0,16.35,10.8,26.4,25.2,26.4,10.95,0,17.1-4.65,21.75-9.9.9-.9,1.95-1.35,3-1.35,2.25,0,4.5,1.95,4.5,4.35,0,3.45-10.5,14.85-29.4,14.85ZM2575.96,47.9c-14.4,0-23.55,12.9-23.55,18.45,0,1.5,1.35,1.5,18.75,1.5,7.8,0,16.2,0,20.4-.15,3.6-.15,4.95-1.8,4.95-4.2,0-4.35-5.25-15.6-20.55-15.6Z"/>
      <path class="cls-1" d="M2714.85,71.15c3.15,0,4.65,2.25,4.65,4.5,0,2.4-1.65,4.8-4.95,4.8-11.55-.15-19.05-.3-25.5-.3-5.4,0-10.2.15-16.2.3-1.35,0-4.95-.15-4.95-4.65,0-2.4,1.5-4.65,4.5-4.65h.15c6,.15,13.05.15,20.4.15s15,0,21.75-.15h.15Z"/>
      <path class="cls-1" d="M2812.2,102.65c-1.65,5.85-5.55,8.7-9.45,8.7s-7.65-2.85-9-8.55c-3.3-13.8-11.25-43.65-14.25-56.85-.15-.3-.15-.6-.15-1.05,0-2.4,2.25-3.75,4.5-3.75,1.95,0,3.75,1.05,4.35,3.3,2.85,11.85,10.5,44.25,13.05,55.95.45,1.95,1.05,2.7,1.8,2.7s1.5-.9,1.95-2.7c2.85-10.8,10.8-41.1,13.05-52.2.9-4.8,4.65-7.05,8.25-7.05s7.5,2.4,8.4,6.6c1.95,9.6,10.35,41.4,12.9,52.8.45,1.8,1.05,2.7,1.65,2.7.75,0,1.35-1.05,1.8-2.4,3.3-11.55,12.45-45,14.85-56.4.45-2.4,2.4-3.45,4.2-3.45,2.25,0,4.65,1.65,4.65,4.05,0,3.3-9.9,37.8-16.5,58.2-1.65,5.1-5.55,7.95-9.3,7.95s-7.05-2.7-8.55-8.25c-1.95-7.65-10.2-39-12.45-51.15-.3-1.65-.9-2.4-1.5-2.4s-1.2.9-1.65,2.55c-2.7,13.35-9.9,40.65-12.6,50.7Z"/>
      <path class="cls-1" d="M2888.1,76.1c0-20.85,14.7-35.85,34.65-35.85s34.95,15,34.95,35.85-15,36-34.95,36-34.65-14.4-34.65-36ZM2948.85,76.1c0-16.95-11.7-28.05-26.1-28.05s-25.95,11.1-25.95,28.05,11.55,27.9,25.95,27.9,26.1-11.1,26.1-27.9Z"/>
      <path class="cls-1" d="M2988.9,107.3c0,2.7-2.1,4.05-4.35,4.05-2.4,0-4.8-1.5-4.8-4.2v-.15c.3-12.15.6-26.25.6-39.15,0-8.4-.15-16.35-.3-22.95v-.15c0-2.4,2.4-3.9,4.65-3.9s4.5,1.35,4.5,4.2c0,2.25-.15,3.3-.15,5.4,0,.45.15.75.15.75.15,0,.45-.3.6-.6,6.6-9.15,20.1-10.05,21.9-10.05,3.15,0,4.65,1.95,4.65,4.05s-1.65,4.35-4.65,4.35c-10.65,0-22.5,6.75-22.8,18.3-.15,3.9-.15,10.8-.15,19.35,0,6.15,0,13.2.15,20.55v.15Z"/>
      <path class="cls-1" d="M3035.25,107c.45-19.35.6-49.05.6-72.75,0-11.85,0-22.2-.15-29.1,0-2.7,2.25-4.05,4.5-4.05s4.5,1.35,4.5,4.05v.15c-.3,10.5-.3,29.7-.3,43.35v15.75c0,1.65.75,2.25,2.25,2.25.9,0,1.95-.3,3-1.05,9.15-6.3,24-16.95,32.7-23.55,1.05-.75,1.95-1.05,2.85-1.05,2.7,0,4.65,2.55,4.65,4.95,0,1.2-.45,2.4-1.65,3.15-9.15,6.3-22.35,15.3-30.6,20.55-.9.6-1.35,1.05-1.35,1.5s.45.9,1.2,1.65c7.8,7.5,27.9,24.75,33,29.55,1.35,1.2,1.8,2.55,1.8,3.9,0,2.55-2.25,4.8-4.8,4.8-1.2,0-2.25-.3-3.3-1.35-4.65-4.5-26.7-25.65-33.6-32.85-1.5-1.65-2.7-1.8-4.2-1.8-2.4,0-2.4,1.05-2.4,15.45,0,4.05,0,9.15.15,16.2,0,2.85-2.25,4.2-4.5,4.2s-4.35-1.2-4.35-3.75v-.15Z"/>
      <path class="cls-1" d="M3140.69,112.1c-19.05,0-33.9-14.25-33.9-35.4s15.75-36.3,33.45-36.3c20.55,0,29.55,16.05,29.55,24.6,0,5.7-3.45,9.9-10.95,10.05-3.45.15-8.55.15-14.1.15-11.25,0-24-.15-27.3-.15-1.5,0-1.8.6-1.8,2.7,0,16.35,10.8,26.4,25.2,26.4,10.95,0,17.1-4.65,21.75-9.9.9-.9,1.95-1.35,3-1.35,2.25,0,4.5,1.95,4.5,4.35,0,3.45-10.5,14.85-29.4,14.85ZM3140.39,47.9c-14.4,0-23.55,12.9-23.55,18.45,0,1.5,1.35,1.5,18.75,1.5,7.8,0,16.2,0,20.4-.15,3.6-.15,4.95-1.8,4.95-4.2,0-4.35-5.25-15.6-20.55-15.6Z"/>
      <path class="cls-1" d="M3200.69,107.3c0,2.7-2.1,4.05-4.35,4.05-2.4,0-4.8-1.5-4.8-4.2v-.15c.3-12.15.6-26.25.6-39.15,0-8.4-.15-16.35-.3-22.95v-.15c0-2.4,2.4-3.9,4.65-3.9s4.5,1.35,4.5,4.2c0,2.25-.15,3.3-.15,5.4,0,.45.15.75.15.75.15,0,.45-.3.6-.6,6.6-9.15,20.1-10.05,21.9-10.05,3.15,0,4.65,1.95,4.65,4.05s-1.65,4.35-4.65,4.35c-10.65,0-22.5,6.75-22.8,18.3-.15,3.9-.15,10.8-.15,19.35,0,6.15,0,13.2.15,20.55v.15Z"/>
      <path class="cls-1" d="M3264.74,112.25c-15.6,0-24.3-9-24.3-13.2,0-2.55,2.25-4.35,4.5-4.35,1.35,0,2.7.6,3.75,1.95,3.3,4.65,8.7,7.5,16.05,7.5,8.55,0,15-4.8,15-11.25,0-7.95-6.45-10.95-23.85-18.75-8.25-3.6-12.15-10.2-12.15-16.65,0-8.85,7.2-17.25,20.4-17.25s20.85,6.45,20.85,10.5c0,2.4-1.95,4.35-4.35,4.35-1.2,0-2.7-.6-3.9-2.1-2.4-2.85-6.15-5.25-12.6-5.25-7.65,0-12,4.5-12,9.45,0,3.6,2.4,7.35,7.35,9.75,4.2,1.95,11.1,4.8,15.75,7.2,9.3,4.8,13.35,11.85,13.35,18.75,0,8.55-7.05,19.35-23.85,19.35Z"/>
      <path class="cls-1" d="M3373.94,112.25c-15.6,0-24.3-9-24.3-13.2,0-2.55,2.25-4.35,4.5-4.35,1.35,0,2.7.6,3.75,1.95,3.3,4.65,8.7,7.5,16.05,7.5,8.55,0,15-4.8,15-11.25,0-7.95-6.45-10.95-23.85-18.75-8.25-3.6-12.15-10.2-12.15-16.65,0-8.85,7.2-17.25,20.4-17.25s20.85,6.45,20.85,10.5c0,2.4-1.95,4.35-4.35,4.35-1.2,0-2.7-.6-3.9-2.1-2.4-2.85-6.15-5.25-12.6-5.25-7.65,0-12,4.5-12,9.45,0,3.6,2.4,7.35,7.35,9.75,4.2,1.95,11.1,4.8,15.75,7.2,9.3,4.8,13.35,11.85,13.35,18.75,0,8.55-7.05,19.35-23.85,19.35Z"/>
      <path class="cls-1" d="M3425.84,14.75c-7.05,0-7.05-6.45-7.05-7.35,0-4.65,4.2-6.9,7.2-6.9,2.25,0,7.35,1.2,7.35,6.9,0,4.65-3.75,7.35-7.5,7.35ZM3430.79,106.7c0,3-2.4,4.5-4.8,4.5-2.25,0-4.65-1.5-4.65-4.5,0-12.75.15-30.3.15-44.25,0-7.05,0-13.2-.15-17.4v-.15c0-2.7,2.4-4.2,4.8-4.2,2.25,0,4.65,1.35,4.65,4.05v.15c-.15,6.3-.3,18.6-.3,31.5,0,10.65.15,21.75.3,30.15v.15Z"/>
      <path class="cls-1" d="M3475.34,49.7c-2.4,0-2.4.3-2.4,2.25,0,5.7-.45,21.15-.45,32.25,0,11.7.3,19.65,12,19.65,1.35,0,2.7-.15,4.2-.3h.6c2.25,0,3.6,1.95,3.6,3.9,0,3.9-3.6,4.65-9.6,4.65-19.2,0-19.2-16.35-19.2-22.95,0-9.6.3-27.9.3-35.25v-2.4c0-1.5-.45-1.8-1.5-1.8h-8.85c-2.85,0-4.2-1.95-4.2-3.9s1.35-3.9,4.2-3.9h8.7c1.35,0,1.65-.15,1.65-1.5,0-.6.15-7.8.15-13.05v-3.75c0-2.85,2.25-4.35,4.35-4.35,2.25,0,4.35,1.5,4.35,4.65,0,4.35-.3,16.35-.3,16.35,0,1.65.3,1.65,2.25,1.65h13.35c2.85,0,4.2,1.95,4.2,3.9s-1.35,3.9-4.2,3.9h-13.2Z"/>
      <path class="cls-1" d="M3541.19,112.1c-19.05,0-33.9-14.25-33.9-35.4s15.75-36.3,33.45-36.3c20.55,0,29.55,16.05,29.55,24.6,0,5.7-3.45,9.9-10.95,10.05-3.45.15-8.55.15-14.1.15-11.25,0-24-.15-27.3-.15-1.5,0-1.8.6-1.8,2.7,0,16.35,10.8,26.4,25.2,26.4,10.95,0,17.1-4.65,21.75-9.9.9-.9,1.95-1.35,3-1.35,2.25,0,4.5,1.95,4.5,4.35,0,3.45-10.5,14.85-29.4,14.85ZM3540.89,47.9c-14.4,0-23.55,12.9-23.55,18.45,0,1.5,1.35,1.5,18.75,1.5,7.8,0,16.2,0,20.4-.15,3.6-.15,4.95-1.8,4.95-4.2,0-4.35-5.25-15.6-20.55-15.6Z"/>
    </g>
  </g>
</svg>