<?xml version="1.0" encoding="UTF-8"?>
<svg id="_レイヤー_2" data-name="レイヤー 2" xmlns="http://www.w3.org/2000/svg" viewBox="0 0 2858.45 112.3">
  <defs>
    <style>
      .cls-1 {
        fill: none;
        stroke: #404648;
        stroke-miterlimit: 10;
      }
    </style>
  </defs>
  <g id="letter">
    <g>
      <path class="cls-1" d="M9.65,106.85c0,2.7-2.1,4.05-4.35,4.05-2.4,0-4.8-1.5-4.8-4.2v-.15c.3-12.15.6-26.25.6-39.15,0-8.4-.15-16.35-.3-22.95v-.15c0-2.4,2.4-3.9,4.65-3.9s4.5,1.35,4.5,4.2c0,2.25-.15,3.3-.15,5.4,0,.45.15.75.15.75.15,0,.45-.3.6-.6,6.6-9.15,20.1-10.05,21.9-10.05,3.15,0,4.65,1.95,4.65,4.05s-1.65,4.35-4.65,4.35c-10.65,0-22.5,6.75-22.8,18.3-.15,3.9-.15,10.8-.15,19.35,0,6.15,0,13.2.15,20.55v.15Z"/>
      <path class="cls-1" d="M84.05,111.65c-19.05,0-33.9-14.25-33.9-35.4s15.75-36.3,33.45-36.3c20.55,0,29.55,16.05,29.55,24.6,0,5.7-3.45,9.9-10.95,10.05-3.45.15-8.55.15-14.1.15-11.25,0-24-.15-27.3-.15-1.5,0-1.8.6-1.8,2.7,0,16.35,10.8,26.4,25.2,26.4,10.95,0,17.1-4.65,21.75-9.9.9-.9,1.95-1.35,3-1.35,2.25,0,4.5,1.95,4.5,4.35,0,3.45-10.5,14.85-29.4,14.85ZM83.75,47.45c-14.4,0-23.55,12.9-23.55,18.45,0,1.5,1.35,1.5,18.75,1.5,7.8,0,16.2,0,20.4-.15,3.6-.15,4.95-1.8,4.95-4.2,0-4.35-5.25-15.6-20.55-15.6Z"/>
      <path class="cls-1" d="M164.6,111.5c-23.1,0-35.25-17.55-35.25-35.4,0-19.95,14.1-36.75,34.5-36.75,15.15,0,25.05,8.25,25.05,12.75,0,2.55-2.1,4.5-4.35,4.5-1.35,0-2.7-.6-3.9-2.1-3.9-4.95-10.35-7.35-16.8-7.35-14.7,0-25.65,12.15-25.65,28.2,0,14.1,9.3,27.9,26.25,27.9,7.5,0,14.85-2.85,18.9-8.55,1.2-1.65,2.55-2.25,3.9-2.25,2.55,0,4.8,2.1,4.8,4.65,0,4.35-11.25,14.4-27.45,14.4Z"/>
      <path class="cls-1" d="M205.7,75.65c0-20.85,14.7-35.85,34.65-35.85s34.95,15,34.95,35.85-15,36-34.95,36-34.65-14.4-34.65-36ZM266.44,75.65c0-16.95-11.7-28.05-26.1-28.05s-25.95,11.1-25.95,28.05,11.55,27.9,25.95,27.9,26.1-11.1,26.1-27.9Z"/>
      <path class="cls-1" d="M384.64,106.55c.15-6,.15-17.25.15-26.85,0-7.05,0-13.2-.15-15.75-.6-11.55-7.5-16.05-14.85-16.05-9.6,0-20.1,7.35-20.55,17.55-.15,2.55-.15,7.35-.15,12.9,0,9.15.15,20.4.3,28.2v.15c0,2.7-2.25,4.2-4.5,4.2-2.1,0-4.2-1.35-4.2-4.2v-.15c.15-6,.15-17.25.15-26.85,0-7.05,0-13.2-.15-15.75-.6-11.7-7.5-16.5-14.85-16.5-9.45,0-19.8,7.65-20.25,18.75-.15,2.55-.15,7.5-.15,13.2,0,9.15.15,20.4.3,27.15v.15c0,3-2.1,4.5-4.2,4.5-2.25,0-4.5-1.65-4.5-4.65v-.15c.3-11.85.45-27.6.45-41.55,0-7.35,0-14.4-.15-19.95v-.15c0-2.7,2.1-4.05,4.35-4.05,2.1,0,4.2,1.35,4.2,4.2v4.05c0,.6,0,.9.15.9s.3-.15.45-.45c4.8-6.15,12.9-9.45,20.55-9.45,8.7,0,17.1,4.2,20.1,13.2,5.7-8.85,14.7-13.2,23.4-13.2,11.55,0,22.2,7.8,22.65,22.5.15,6.3.3,25.35.3,37.05v6.75c0,3.3-2.25,4.95-4.35,4.95-2.25,0-4.5-1.65-4.5-4.5v-.15Z"/>
      <path class="cls-1" d="M507.49,106.55c.15-6,.15-17.25.15-26.85,0-7.05,0-13.2-.15-15.75-.6-11.55-7.5-16.05-14.85-16.05-9.6,0-20.1,7.35-20.55,17.55-.15,2.55-.15,7.35-.15,12.9,0,9.15.15,20.4.3,28.2v.15c0,2.7-2.25,4.2-4.5,4.2-2.1,0-4.2-1.35-4.2-4.2v-.15c.15-6,.15-17.25.15-26.85,0-7.05,0-13.2-.15-15.75-.6-11.7-7.5-16.5-14.85-16.5-9.45,0-19.8,7.65-20.25,18.75-.15,2.55-.15,7.5-.15,13.2,0,9.15.15,20.4.3,27.15v.15c0,3-2.1,4.5-4.2,4.5-2.25,0-4.5-1.65-4.5-4.65v-.15c.3-11.85.45-27.6.45-41.55,0-7.35,0-14.4-.15-19.95v-.15c0-2.7,2.1-4.05,4.35-4.05,2.1,0,4.2,1.35,4.2,4.2v4.05c0,.6,0,.9.15.9s.3-.15.45-.45c4.8-6.15,12.9-9.45,20.55-9.45,8.7,0,17.1,4.2,20.1,13.2,5.7-8.85,14.7-13.2,23.4-13.2,11.55,0,22.2,7.8,22.65,22.5.15,6.3.3,25.35.3,37.05v6.75c0,3.3-2.25,4.95-4.35,4.95-2.25,0-4.5-1.65-4.5-4.5v-.15Z"/>
      <path class="cls-1" d="M571.54,111.65c-19.05,0-33.9-14.25-33.9-35.4s15.75-36.3,33.45-36.3c20.55,0,29.55,16.05,29.55,24.6,0,5.7-3.45,9.9-10.95,10.05-3.45.15-8.55.15-14.1.15-11.25,0-24-.15-27.3-.15-1.5,0-1.8.6-1.8,2.7,0,16.35,10.8,26.4,25.2,26.4,10.95,0,17.1-4.65,21.75-9.9.9-.9,1.95-1.35,3-1.35,2.25,0,4.5,1.95,4.5,4.35,0,3.45-10.5,14.85-29.4,14.85ZM571.24,47.45c-14.4,0-23.55,12.9-23.55,18.45,0,1.5,1.35,1.5,18.75,1.5,7.8,0,16.2,0,20.4-.15,3.6-.15,4.95-1.8,4.95-4.2,0-4.35-5.25-15.6-20.55-15.6Z"/>
      <path class="cls-1" d="M671.14,106.7c.15-6.3.3-18,.3-27.45,0-6.15-.15-11.4-.3-13.8-.75-12.15-8.4-17.25-16.8-17.25-10.5,0-22.35,8.1-22.65,20.1-.15,4.65-.3,12.9-.3,23.25,0,4.8,0,9.75.15,15.15v.15c0,2.7-2.1,4.05-4.35,4.05s-4.65-1.5-4.65-4.2v-.15c.3-12.15.6-26.1.6-38.85,0-8.4-.15-16.2-.3-22.8v-.15c0-2.4,2.4-3.9,4.8-3.9,2.1,0,4.2,1.2,4.2,4.05v5.7c0,.45.15.6.15.6.15,0,.45-.15.6-.45,5.4-7.2,13.95-10.8,22.2-10.8,12.45,0,24.45,8.1,25.05,24,.15,4.8.3,15.9.3,26.25,0,6.3,0,12.45-.15,16.5,0,3-2.1,4.35-4.35,4.35s-4.5-1.5-4.5-4.2v-.15Z"/>
      <path class="cls-1" d="M769.54,110c-1.5,0-3-.6-4.05-2.4-.75-1.35-2.7-6.6-3.15-9.45-.3-1.65-.45-2.25-.75-2.25-.15,0-.45.6-1.05,1.35-6.45,9.6-16.35,14.1-26.25,14.1-19.5,0-34.2-14.1-34.2-35.85s14.7-35.55,34.2-35.55c9.6,0,18.3,4.2,23.7,11.1.75,1.05,1.35,1.8,1.65,1.8.15,0,.3-.75.3-2.85,0-18-.15-38.25-.3-44.7-.15-4.05,3-4.8,4.5-4.8,2.4,0,4.65,1.65,4.65,4.65v.3c-.3,6.45-.45,22.2-.45,39.6,0,47.25,0,48.3,5.25,57.9.45.9.6,1.65.6,2.55,0,2.55-2.25,4.5-4.65,4.5ZM759.94,75.5c0-16.8-11.1-27.75-25.35-27.75-15.15,0-25.5,10.5-25.5,27.75s10.5,27.6,25.5,27.6c14.1,0,25.35-10.95,25.35-27.6Z"/>
      <path class="cls-1" d="M825.64,111.65c-19.05,0-33.9-14.25-33.9-35.4s15.75-36.3,33.45-36.3c20.55,0,29.55,16.05,29.55,24.6,0,5.7-3.45,9.9-10.95,10.05-3.45.15-8.55.15-14.1.15-11.25,0-24-.15-27.3-.15-1.5,0-1.8.6-1.8,2.7,0,16.35,10.8,26.4,25.2,26.4,10.95,0,17.1-4.65,21.75-9.9.9-.9,1.95-1.35,3-1.35,2.25,0,4.5,1.95,4.5,4.35,0,3.45-10.5,14.85-29.4,14.85ZM825.34,47.45c-14.4,0-23.55,12.9-23.55,18.45,0,1.5,1.35,1.5,18.75,1.5,7.8,0,16.2,0,20.4-.15,3.6-.15,4.95-1.8,4.95-4.2,0-4.35-5.25-15.6-20.55-15.6Z"/>
      <path class="cls-1" d="M940.23,110c-1.5,0-3-.6-4.05-2.4-.75-1.35-2.7-6.6-3.15-9.45-.3-1.65-.45-2.25-.75-2.25-.15,0-.45.6-1.05,1.35-6.45,9.6-16.35,14.1-26.25,14.1-19.5,0-34.2-14.1-34.2-35.85s14.7-35.55,34.2-35.55c9.6,0,18.3,4.2,23.7,11.1.75,1.05,1.35,1.8,1.65,1.8.15,0,.3-.75.3-2.85,0-18-.15-38.25-.3-44.7-.15-4.05,3-4.8,4.5-4.8,2.4,0,4.65,1.65,4.65,4.65v.3c-.3,6.45-.45,22.2-.45,39.6,0,47.25,0,48.3,5.25,57.9.45.9.6,1.65.6,2.55,0,2.55-2.25,4.5-4.65,4.5ZM930.63,75.5c0-16.8-11.1-27.75-25.35-27.75-15.15,0-25.5,10.5-25.5,27.75s10.5,27.6,25.5,27.6c14.1,0,25.35-10.95,25.35-27.6Z"/>
      <path class="cls-1" d="M1023.18,5.3c-.3,11.4-.45,27.6-.45,45.6,0,1.05,0,1.65.3,1.65s.75-.3,1.35-1.2c5.25-7.05,14.1-11.55,24.3-11.55,19.5,0,34.05,14.7,34.05,35.7s-14.55,35.7-34.05,35.7c-8.85,0-17.7-3.6-23.7-10.8-.9-1.2-1.35-1.8-1.65-1.8-.15,0-.3,0-.3,6.15s-4.2,6-4.5,6c-2.25,0-4.35-1.65-4.35-5.1,0-15.45.3-48.3.3-72.75,0-12.3,0-22.5-.3-27.3-.15-4.5,3.15-5.1,4.5-5.1,2.25,0,4.5,1.65,4.5,4.65v.15ZM1073.73,75.5c0-16.8-11.1-28.05-25.35-28.05s-25.5,11.25-25.5,28.05,11.25,27.6,25.5,27.6,25.35-10.8,25.35-27.6Z"/>
      <path class="cls-1" d="M1098.78,75.65c0-20.85,14.7-35.85,34.65-35.85s34.95,15,34.95,35.85-15,36-34.95,36-34.65-14.4-34.65-36ZM1159.53,75.65c0-16.95-11.7-28.05-26.1-28.05s-25.95,11.1-25.95,28.05,11.55,27.9,25.95,27.9,26.1-11.1,26.1-27.9Z"/>
      <path class="cls-1" d="M1184.58,75.65c0-20.85,14.7-35.85,34.65-35.85s34.95,15,34.95,35.85-15,36-34.95,36-34.65-14.4-34.65-36ZM1245.33,75.65c0-16.95-11.7-28.05-26.1-28.05s-25.95,11.1-25.95,28.05,11.55,27.9,25.95,27.9,26.1-11.1,26.1-27.9Z"/>
      <path class="cls-1" d="M1276.68,106.55c.45-19.35.6-49.05.6-72.75,0-11.85,0-22.2-.15-29.1,0-2.7,2.25-4.05,4.5-4.05s4.5,1.35,4.5,4.05v.15c-.3,10.5-.3,29.7-.3,43.35v15.75c0,1.65.75,2.25,2.25,2.25.9,0,1.95-.3,3-1.05,9.15-6.3,24-16.95,32.7-23.55,1.05-.75,1.95-1.05,2.85-1.05,2.7,0,4.65,2.55,4.65,4.95,0,1.2-.45,2.4-1.65,3.15-9.15,6.3-22.35,15.3-30.6,20.55-.9.6-1.35,1.05-1.35,1.5s.45.9,1.2,1.65c7.8,7.5,27.9,24.75,33,29.55,1.35,1.2,1.8,2.55,1.8,3.9,0,2.55-2.25,4.8-4.8,4.8-1.2,0-2.25-.3-3.3-1.35-4.65-4.5-26.7-25.65-33.6-32.85-1.5-1.65-2.7-1.8-4.2-1.8-2.4,0-2.4,1.05-2.4,15.45,0,4.05,0,9.15.15,16.2,0,2.85-2.25,4.2-4.5,4.2s-4.35-1.2-4.35-3.75v-.15Z"/>
      <path class="cls-1" d="M1371.78,111.8c-15.6,0-24.3-9-24.3-13.2,0-2.55,2.25-4.35,4.5-4.35,1.35,0,2.7.6,3.75,1.95,3.3,4.65,8.7,7.5,16.05,7.5,8.55,0,15-4.8,15-11.25,0-7.95-6.45-10.95-23.85-18.75-8.25-3.6-12.15-10.2-12.15-16.65,0-8.85,7.2-17.25,20.4-17.25s20.85,6.45,20.85,10.5c0,2.4-1.95,4.35-4.35,4.35-1.2,0-2.7-.6-3.9-2.1-2.4-2.85-6.15-5.25-12.6-5.25-7.65,0-12,4.5-12,9.45,0,3.6,2.4,7.35,7.35,9.75,4.2,1.95,11.1,4.8,15.75,7.2,9.3,4.8,13.35,11.85,13.35,18.75,0,8.55-7.05,19.35-23.85,19.35Z"/>
      <path class="cls-1" d="M1471.97,106.85c0,2.7-2.1,4.05-4.35,4.05-2.4,0-4.8-1.5-4.8-4.2v-.15c.3-12.15.6-26.25.6-39.15,0-8.4-.15-16.35-.3-22.95v-.15c0-2.4,2.4-3.9,4.65-3.9s4.5,1.35,4.5,4.2c0,2.25-.15,3.3-.15,5.4,0,.45.15.75.15.75.15,0,.45-.3.6-.6,6.6-9.15,20.1-10.05,21.9-10.05,3.15,0,4.65,1.95,4.65,4.05s-1.65,4.35-4.65,4.35c-10.65,0-22.5,6.75-22.8,18.3-.15,3.9-.15,10.8-.15,19.35,0,6.15,0,13.2.15,20.55v.15Z"/>
      <path class="cls-1" d="M1546.37,111.65c-19.05,0-33.9-14.25-33.9-35.4s15.75-36.3,33.45-36.3c20.55,0,29.55,16.05,29.55,24.6,0,5.7-3.45,9.9-10.95,10.05-3.45.15-8.55.15-14.1.15-11.25,0-24-.15-27.3-.15-1.5,0-1.8.6-1.8,2.7,0,16.35,10.8,26.4,25.2,26.4,10.95,0,17.1-4.65,21.75-9.9.9-.9,1.95-1.35,3-1.35,2.25,0,4.5,1.95,4.5,4.35,0,3.45-10.5,14.85-29.4,14.85ZM1546.07,47.45c-14.4,0-23.55,12.9-23.55,18.45,0,1.5,1.35,1.5,18.75,1.5,7.8,0,16.2,0,20.4-.15,3.6-.15,4.95-1.8,4.95-4.2,0-4.35-5.25-15.6-20.55-15.6Z"/>
      <path class="cls-1" d="M1626.92,111.5c-23.1,0-35.25-17.55-35.25-35.4,0-19.95,14.1-36.75,34.5-36.75,15.15,0,25.05,8.25,25.05,12.75,0,2.55-2.1,4.5-4.35,4.5-1.35,0-2.7-.6-3.9-2.1-3.9-4.95-10.35-7.35-16.8-7.35-14.7,0-25.65,12.15-25.65,28.2,0,14.1,9.3,27.9,26.25,27.9,7.5,0,14.85-2.85,18.9-8.55,1.2-1.65,2.55-2.25,3.9-2.25,2.55,0,4.8,2.1,4.8,4.65,0,4.35-11.25,14.4-27.45,14.4Z"/>
      <path class="cls-1" d="M1668.02,75.65c0-20.85,14.7-35.85,34.65-35.85s34.95,15,34.95,35.85-15,36-34.95,36-34.65-14.4-34.65-36ZM1728.77,75.65c0-16.95-11.7-28.05-26.1-28.05s-25.95,11.1-25.95,28.05,11.55,27.9,25.95,27.9,26.1-11.1,26.1-27.9Z"/>
      <path class="cls-1" d="M1846.97,106.55c.15-6,.15-17.25.15-26.85,0-7.05,0-13.2-.15-15.75-.6-11.55-7.5-16.05-14.85-16.05-9.6,0-20.1,7.35-20.55,17.55-.15,2.55-.15,7.35-.15,12.9,0,9.15.15,20.4.3,28.2v.15c0,2.7-2.25,4.2-4.5,4.2-2.1,0-4.2-1.35-4.2-4.2v-.15c.15-6,.15-17.25.15-26.85,0-7.05,0-13.2-.15-15.75-.6-11.7-7.5-16.5-14.85-16.5-9.45,0-19.8,7.65-20.25,18.75-.15,2.55-.15,7.5-.15,13.2,0,9.15.15,20.4.3,27.15v.15c0,3-2.1,4.5-4.2,4.5-2.25,0-4.5-1.65-4.5-4.65v-.15c.3-11.85.45-27.6.45-41.55,0-7.35,0-14.4-.15-19.95v-.15c0-2.7,2.1-4.05,4.35-4.05,2.1,0,4.2,1.35,4.2,4.2v4.05c0,.6,0,.9.15.9s.3-.15.45-.45c4.8-6.15,12.9-9.45,20.55-9.45,8.7,0,17.1,4.2,20.1,13.2,5.7-8.85,14.7-13.2,23.4-13.2,11.55,0,22.2,7.8,22.65,22.5.15,6.3.3,25.35.3,37.05v6.75c0,3.3-2.25,4.95-4.35,4.95-2.25,0-4.5-1.65-4.5-4.5v-.15Z"/>
      <path class="cls-1" d="M1969.81,106.55c.15-6,.15-17.25.15-26.85,0-7.05,0-13.2-.15-15.75-.6-11.55-7.5-16.05-14.85-16.05-9.6,0-20.1,7.35-20.55,17.55-.15,2.55-.15,7.35-.15,12.9,0,9.15.15,20.4.3,28.2v.15c0,2.7-2.25,4.2-4.5,4.2-2.1,0-4.2-1.35-4.2-4.2v-.15c.15-6,.15-17.25.15-26.85,0-7.05,0-13.2-.15-15.75-.6-11.7-7.5-16.5-14.85-16.5-9.45,0-19.8,7.65-20.25,18.75-.15,2.55-.15,7.5-.15,13.2,0,9.15.15,20.4.3,27.15v.15c0,3-2.1,4.5-4.2,4.5-2.25,0-4.5-1.65-4.5-4.65v-.15c.3-11.85.45-27.6.45-41.55,0-7.35,0-14.4-.15-19.95v-.15c0-2.7,2.1-4.05,4.35-4.05,2.1,0,4.2,1.35,4.2,4.2v4.05c0,.6,0,.9.15.9s.3-.15.45-.45c4.8-6.15,12.9-9.45,20.55-9.45,8.7,0,17.1,4.2,20.1,13.2,5.7-8.85,14.7-13.2,23.4-13.2,11.55,0,22.2,7.8,22.65,22.5.15,6.3.3,25.35.3,37.05v6.75c0,3.3-2.25,4.95-4.35,4.95-2.25,0-4.5-1.65-4.5-4.5v-.15Z"/>
      <path class="cls-1" d="M2033.86,111.65c-19.05,0-33.9-14.25-33.9-35.4s15.75-36.3,33.45-36.3c20.55,0,29.55,16.05,29.55,24.6,0,5.7-3.45,9.9-10.95,10.05-3.45.15-8.55.15-14.1.15-11.25,0-24-.15-27.3-.15-1.5,0-1.8.6-1.8,2.7,0,16.35,10.8,26.4,25.2,26.4,10.95,0,17.1-4.65,21.75-9.9.9-.9,1.95-1.35,3-1.35,2.25,0,4.5,1.95,4.5,4.35,0,3.45-10.5,14.85-29.4,14.85ZM2033.56,47.45c-14.4,0-23.55,12.9-23.55,18.45,0,1.5,1.35,1.5,18.75,1.5,7.8,0,16.2,0,20.4-.15,3.6-.15,4.95-1.8,4.95-4.2,0-4.35-5.25-15.6-20.55-15.6Z"/>
      <path class="cls-1" d="M2133.46,106.7c.15-6.3.3-18,.3-27.45,0-6.15-.15-11.4-.3-13.8-.75-12.15-8.4-17.25-16.8-17.25-10.5,0-22.35,8.1-22.65,20.1-.15,4.65-.3,12.9-.3,23.25,0,4.8,0,9.75.15,15.15v.15c0,2.7-2.1,4.05-4.35,4.05s-4.65-1.5-4.65-4.2v-.15c.3-12.15.6-26.1.6-38.85,0-8.4-.15-16.2-.3-22.8v-.15c0-2.4,2.4-3.9,4.8-3.9,2.1,0,4.2,1.2,4.2,4.05v5.7c0,.45.15.6.15.6.15,0,.45-.15.6-.45,5.4-7.2,13.95-10.8,22.2-10.8,12.45,0,24.45,8.1,25.05,24,.15,4.8.3,15.9.3,26.25,0,6.3,0,12.45-.15,16.5,0,3-2.1,4.35-4.35,4.35s-4.5-1.5-4.5-4.2v-.15Z"/>
      <path class="cls-1" d="M2231.86,110c-1.5,0-3-.6-4.05-2.4-.75-1.35-2.7-6.6-3.15-9.45-.3-1.65-.45-2.25-.75-2.25-.15,0-.45.6-1.05,1.35-6.45,9.6-16.35,14.1-26.25,14.1-19.5,0-34.2-14.1-34.2-35.85s14.7-35.55,34.2-35.55c9.6,0,18.3,4.2,23.7,11.1.75,1.05,1.35,1.8,1.65,1.8.15,0,.3-.75.3-2.85,0-18-.15-38.25-.3-44.7-.15-4.05,3-4.8,4.5-4.8,2.4,0,4.65,1.65,4.65,4.65v.3c-.3,6.45-.45,22.2-.45,39.6,0,47.25,0,48.3,5.25,57.9.45.9.6,1.65.6,2.55,0,2.55-2.25,4.5-4.65,4.5ZM2222.26,75.5c0-16.8-11.1-27.75-25.35-27.75-15.15,0-25.5,10.5-25.5,27.75s10.5,27.6,25.5,27.6c14.1,0,25.35-10.95,25.35-27.6Z"/>
      <path class="cls-1" d="M2287.96,111.65c-19.05,0-33.9-14.25-33.9-35.4s15.75-36.3,33.45-36.3c20.55,0,29.55,16.05,29.55,24.6,0,5.7-3.45,9.9-10.95,10.05-3.45.15-8.55.15-14.1.15-11.25,0-24-.15-27.3-.15-1.5,0-1.8.6-1.8,2.7,0,16.35,10.8,26.4,25.2,26.4,10.95,0,17.1-4.65,21.75-9.9.9-.9,1.95-1.35,3-1.35,2.25,0,4.5,1.95,4.5,4.35,0,3.45-10.5,14.85-29.4,14.85ZM2287.66,47.45c-14.4,0-23.55,12.9-23.55,18.45,0,1.5,1.35,1.5,18.75,1.5,7.8,0,16.2,0,20.4-.15,3.6-.15,4.95-1.8,4.95-4.2,0-4.35-5.25-15.6-20.55-15.6Z"/>
      <path class="cls-1" d="M2402.56,110c-1.5,0-3-.6-4.05-2.4-.75-1.35-2.7-6.6-3.15-9.45-.3-1.65-.45-2.25-.75-2.25-.15,0-.45.6-1.05,1.35-6.45,9.6-16.35,14.1-26.25,14.1-19.5,0-34.2-14.1-34.2-35.85s14.7-35.55,34.2-35.55c9.6,0,18.3,4.2,23.7,11.1.75,1.05,1.35,1.8,1.65,1.8.15,0,.3-.75.3-2.85,0-18-.15-38.25-.3-44.7-.15-4.05,3-4.8,4.5-4.8,2.4,0,4.65,1.65,4.65,4.65v.3c-.3,6.45-.45,22.2-.45,39.6,0,47.25,0,48.3,5.25,57.9.45.9.6,1.65.6,2.55,0,2.55-2.25,4.5-4.65,4.5ZM2392.96,75.5c0-16.8-11.1-27.75-25.35-27.75-15.15,0-25.5,10.5-25.5,27.75s10.5,27.6,25.5,27.6c14.1,0,25.35-10.95,25.35-27.6Z"/>
      <path class="cls-1" d="M2485.51,5.3c-.3,11.4-.45,27.6-.45,45.6,0,1.05,0,1.65.3,1.65s.75-.3,1.35-1.2c5.25-7.05,14.1-11.55,24.3-11.55,19.5,0,34.05,14.7,34.05,35.7s-14.55,35.7-34.05,35.7c-8.85,0-17.7-3.6-23.7-10.8-.9-1.2-1.35-1.8-1.65-1.8-.15,0-.3,0-.3,6.15s-4.2,6-4.5,6c-2.25,0-4.35-1.65-4.35-5.1,0-15.45.3-48.3.3-72.75,0-12.3,0-22.5-.3-27.3-.15-4.5,3.15-5.1,4.5-5.1,2.25,0,4.5,1.65,4.5,4.65v.15ZM2536.06,75.5c0-16.8-11.1-28.05-25.35-28.05s-25.5,11.25-25.5,28.05,11.25,27.6,25.5,27.6,25.35-10.8,25.35-27.6Z"/>
      <path class="cls-1" d="M2561.11,75.65c0-20.85,14.7-35.85,34.65-35.85s34.95,15,34.95,35.85-15,36-34.95,36-34.65-14.4-34.65-36ZM2621.86,75.65c0-16.95-11.7-28.05-26.1-28.05s-25.95,11.1-25.95,28.05,11.55,27.9,25.95,27.9,26.1-11.1,26.1-27.9Z"/>
      <path class="cls-1" d="M2646.91,75.65c0-20.85,14.7-35.85,34.65-35.85s34.95,15,34.95,35.85-15,36-34.95,36-34.65-14.4-34.65-36ZM2707.66,75.65c0-16.95-11.7-28.05-26.1-28.05s-25.95,11.1-25.95,28.05,11.55,27.9,25.95,27.9,26.1-11.1,26.1-27.9Z"/>
      <path class="cls-1" d="M2739.01,106.55c.45-19.35.6-49.05.6-72.75,0-11.85,0-22.2-.15-29.1,0-2.7,2.25-4.05,4.5-4.05s4.5,1.35,4.5,4.05v.15c-.3,10.5-.3,29.7-.3,43.35v15.75c0,1.65.75,2.25,2.25,2.25.9,0,1.95-.3,3-1.05,9.15-6.3,24-16.95,32.7-23.55,1.05-.75,1.95-1.05,2.85-1.05,2.7,0,4.65,2.55,4.65,4.95,0,1.2-.45,2.4-1.65,3.15-9.15,6.3-22.35,15.3-30.6,20.55-.9.6-1.35,1.05-1.35,1.5s.45.9,1.2,1.65c7.8,7.5,27.9,24.75,33,29.55,1.35,1.2,1.8,2.55,1.8,3.9,0,2.55-2.25,4.8-4.8,4.8-1.2,0-2.25-.3-3.3-1.35-4.65-4.5-26.7-25.65-33.6-32.85-1.5-1.65-2.7-1.8-4.2-1.8-2.4,0-2.4,1.05-2.4,15.45,0,4.05,0,9.15.15,16.2,0,2.85-2.25,4.2-4.5,4.2s-4.35-1.2-4.35-3.75v-.15Z"/>
      <path class="cls-1" d="M2834.1,111.8c-15.6,0-24.3-9-24.3-13.2,0-2.55,2.25-4.35,4.5-4.35,1.35,0,2.7.6,3.75,1.95,3.3,4.65,8.7,7.5,16.05,7.5,8.55,0,15-4.8,15-11.25,0-7.95-6.45-10.95-23.85-18.75-8.25-3.6-12.15-10.2-12.15-16.65,0-8.85,7.2-17.25,20.4-17.25s20.85,6.45,20.85,10.5c0,2.4-1.95,4.35-4.35,4.35-1.2,0-2.7-.6-3.9-2.1-2.4-2.85-6.15-5.25-12.6-5.25-7.65,0-12,4.5-12,9.45,0,3.6,2.4,7.35,7.35,9.75,4.2,1.95,11.1,4.8,15.75,7.2,9.3,4.8,13.35,11.85,13.35,18.75,0,8.55-7.05,19.35-23.85,19.35Z"/>
    </g>
  </g>
</svg>