<?xml version="1.0" encoding="UTF-8"?>
<svg id="_レイヤー_2" data-name="レイヤー 2" xmlns="http://www.w3.org/2000/svg" viewBox="0 0 66.68 18.08">
  <defs>
    <style>
      .cls-1 {
        fill: none;
        stroke: #68b1ab;
        stroke-linecap: round;
        stroke-miterlimit: 10;
      }

      .cls-2 {
        fill: #fffdf3;
        stroke-width: 0px;
      }
    </style>
  </defs>
  <g id="letter">
    <g>
      <g>
        <path class="cls-2" d="M1.34,13.05c-1.28.5-1.9-1.01-.69-1.41,2.21-.74,3.99-2.11,5.35-3.65-.58-.35-1.17-.62-1.68-.77-.9-.24-.48-1.6.64-1.28.59.16,1.31.46,2.02.83.54-.77.99-1.55,1.34-2.29.3-.66.24-.74-.18-.72-.64.02-2.29.18-2.83.24-1.12,1.47-2.59,3.15-3.67,3.91-1.07.74-2.02-.66-.93-1.33,1.55-.96,3.7-3.67,4.27-5.04.56-1.36,2.21-.37,1.65.56-.08.13-.18.27-.29.43.78-.06,1.66-.14,2.43-.18,1.65-.05,1.94,1.1,1.31,2.24-.59,1.07-1.18,2.06-1.81,2.98.45.32.86.66,1.15,1.01.37.43.26.94-.03,1.22s-.77.35-1.14-.05c-.24-.26-.58-.56-.96-.86-1.42,1.71-3.22,3.11-5.97,4.16Z"/>
        <path class="cls-2" d="M13.95,7.29c-.58,0-.85-.38-.85-.77s.3-.82.85-.82h10.05c.54,0,.82.4.82.8s-.27.78-.82.78h-10.05Z"/>
        <path class="cls-2" d="M29.66,12.8c-1.5.53-1.76-1.25-.62-1.57,2.74-.77,4.27-3.22,4.67-5.99-1.09,0-2.13,0-2.9.02-.66,1.12-1.42,2.02-2.11,2.62-1.14.99-2.02-.45-1.1-1.14,1.18-.9,2.43-3.12,2.8-4.79.24-1.06,1.9-.67,1.63.38-.13.51-.3,1.01-.5,1.47,1.89-.03,5.15-.05,6.53,0,.5.02.74.4.74.77s-.24.72-.77.7c-.59-.02-1.55-.03-2.62-.03-.46,3.39-2.27,6.31-5.75,7.54ZM37.46,3.08c-.16-.29-.83-.98-1.12-1.17-.74-.48.05-1.3.74-.9.38.22,1.1.77,1.39,1.2.5.77-.59,1.57-1.01.86ZM39.38,2.15c-.18-.27-.85-.93-1.15-1.1-.75-.45-.02-1.33.69-.96.4.21,1.14.77,1.44,1.18.53.75-.54,1.57-.98.88Z"/>
        <path class="cls-2" d="M42.7,8.59c-.22-.45-.56-.93-.91-1.23-.66-.56.27-1.57,1.02-.9.43.38.88.9,1.18,1.42.51.86-.82,1.65-1.3.7ZM42.39,12.92c-.14-.34-.05-.77.4-.96,2.67-1.12,4.4-3.38,5.04-6.05.26-1.04,1.81-.56,1.5.42-.91,3.03-2.69,5.47-5.84,6.9-.54.24-.94.05-1.1-.3ZM44.85,7.71c-.16-.48-.45-.99-.75-1.34-.58-.64.5-1.52,1.15-.74.37.45.72,1.02.96,1.58.38.94-1.02,1.52-1.36.5Z"/>
        <path class="cls-2" d="M55.52,12.38c.03,1.3-1.79,1.34-1.73.06.11-2.59.16-8.87.1-11.17-.03-1.09,1.7-1.07,1.67.02-.02.78-.03,2.18-.05,3.75.08,0,.18,0,.27.02.9.14,2.98.66,3.84,1.39.83.7-.08,2.1-.99,1.42-.69-.51-2.27-1.14-3.12-1.3-.02,2.21-.02,4.51.02,5.81Z"/>
      </g>
      <path class="cls-1" d="M66.18,7.58v6.67c0,1.84-1.39,3.33-3.1,3.33H11.18"/>
    </g>
  </g>
</svg>