<?xml version="1.0" encoding="UTF-8"?>
<svg id="_レイヤー_2" data-name="レイヤー 2" xmlns="http://www.w3.org/2000/svg" viewBox="0 0 69.32 21.34">
  <defs>
    <style>
      .cls-1 {
        fill: none;
        stroke: #68b1ab;
        stroke-linecap: round;
        stroke-miterlimit: 10;
      }

      .cls-2 {
        fill: #fffdf3;
        stroke-width: 0px;
      }
    </style>
  </defs>
  <g id="letter">
    <g>
      <g>
        <path class="cls-2" d="M3.25,8.31c-1.06,0-1.3.05-1.3.61v.77c0,.69,0,1.5.02,2.1v.02c0,.45-.35.67-.69.67-.35,0-.7-.22-.7-.67s-.02-.99-.02-1.57.02-1.15.02-1.58c.05-1.49.91-1.49,2.67-1.49v-1.12l-2.59.02c-.43,0-.66-.3-.66-.62s.22-.61.66-.61h2.59v-1.3h-1.34c-.35.66-.62,1.01-1.06,1.01-.38,0-.74-.29-.74-.62,0-.11.03-.22.11-.34.61-.83.86-1.38,1.12-2.32.08-.29.34-.42.61-.42.37,0,.75.22.75.59,0,.05-.06.38-.26.86l.8.02V.67c0-.45.37-.67.74-.67s.72.22.72.67v1.63l2.08-.02c.45,0,.67.3.67.61,0,.32-.22.62-.67.62h-2.08v1.3h2.64c.45,0,.66.3.66.61,0,.32-.21.62-.66.62l-2.64-.02v1.12c.43,0,.85,0,1.22.02,1.06.03,1.52.51,1.52,1.5,0,.46,0,1.3.02,1.84v.1c0,.93-.37,1.63-1.49,1.63-.75,0-1.02-.19-1.02-.7,0-.32.16-.64.46-.64.02,0,.05.02.08.02.08.02.16.03.22.03.21,0,.38-.1.38-.5,0,0,0-1.07-.02-1.54,0-.58-.38-.61-1.38-.61v4.82c0,.5-.37.74-.72.74s-.74-.24-.74-.74v-4.82ZM8.71,1.79c0-.48.37-.72.74-.72s.75.24.75.72v8.1c0,.45-.37.67-.75.67s-.74-.22-.74-.67V1.79ZM13.22,11.65v.03c0,.96-.64,2.08-2.59,2.08-1.3,0-1.86-.22-1.86-.91,0-.4.26-.8.69-.8.06,0,.11,0,.18.02.32.06.72.18,1.09.18.48,0,.9-.18.91-.85.02-.59.02-4.99.02-7.92V.96c0-.48.38-.72.77-.72s.77.24.77.72v8.77l.03,1.92Z"/>
        <path class="cls-2" d="M18.21,13.33l.16-7.65c-1.26,1.6-1.75,1.84-2.11,1.84-.42,0-.75-.34-.75-.72,0-.19.1-.4.29-.58,1.57-1.39,3.04-3.46,3.86-5.65.13-.35.4-.48.69-.48.43,0,.88.34.88.78,0,.34-.72,1.67-1.28,2.56l-.19,9.89c0,.5-.4.74-.77.74s-.77-.24-.77-.72v-.02ZM25.4,10.47v2.77c0,.53-.38.78-.77.78s-.77-.26-.77-.78V4.18h-.59c-.48.93-1.04,1.81-1.73,2.71-.22.29-.5.42-.72.42-.4,0-.72-.32-.72-.7,0-.16.06-.34.21-.51,1.04-1.26,2.11-3.09,2.71-5.43.1-.42.42-.59.74-.59.42,0,.83.29.83.72,0,.26-.48,1.54-.67,2h5.52c.45,0,.69.35.69.7s-.22.69-.69.69h-4.03v1.73h3.3c.45,0,.69.35.69.7s-.22.69-.69.69h-3.3v1.78h3.46c.45,0,.69.35.69.7s-.22.69-.69.69h-3.46Z"/>
        <path class="cls-2" d="M31.78,12.89c0-.19.11-.4.35-.56.75-.5,1.28-1.09,1.74-1.87.13-.21.3-.29.5-.29.38,0,.78.35.78.77,0,.56-1.75,2.69-2.51,2.69-.45,0-.86-.35-.86-.74ZM32.5,9.86c-.43,0-.64-.32-.64-.62,0-.32.21-.62.64-.62h.98V3.43h-.7c-.43,0-.66-.34-.66-.67s.22-.66.66-.66h.02l.69.02V.67c0-.4.34-.61.69-.61s.67.21.67.61v1.44h2.08V.67c0-.4.34-.61.69-.61s.67.21.67.61v1.44l.78-.02h.02c.4,0,.59.34.59.67s-.19.66-.59.66h-.8v5.19h.69c.4,0,.59.3.59.62s-.19.62-.61.62h-6.45ZM36.91,3.41h-2.08v.98h2.08v-.98ZM36.91,5.54h-2.08v.91h2.08v-.91ZM36.91,7.6h-2.08v1.02h2.08v-1.02ZM43.89,8.69h-2.5c-.29,1.78-1.06,3.73-3.06,5.11-.16.11-.34.16-.48.16-.43,0-.78-.37-.78-.77,0-.21.11-.42.35-.58.16-.1.3-.21.45-.32-.05.02-.1.02-.13.02-.16,0-.3-.06-.42-.22-.3-.4-.48-.56-.86-.82-.19-.13-.26-.29-.26-.45,0-.34.32-.66.7-.66.34,0,1.58.67,1.58,1.33,0,.11-.03.21-.06.3,1.5-1.54,1.71-3.63,1.71-5.19,0-.56-.03-1.06-.03-1.41,0-1.14-.03-2.06-.03-3.2,0-1.62,1.33-1.62,2.75-1.62,1.28,0,2.51.14,2.53,1.62v1.73c0,4.95.02,5.46.02,5.67l.03,2.26v.03c0,.94-.61,2.13-2.64,2.13-1.22,0-1.67-.22-1.67-.86,0-.37.22-.74.62-.74.05,0,.1,0,.14.02.34.06.67.11.96.11.61,0,1.06-.21,1.06-.93v-2.72ZM43.91,5.19h-2.35v.1c0,.32.02.69.02,1.09,0,.3-.02.62-.03.96h2.37v-2.15ZM43.89,3.83c0-.58-.02-1.12-.03-1.6-.02-.43-.26-.53-1.06-.53s-1.23,0-1.23.53c-.02.5-.02,1.04-.02,1.6h2.34Z"/>
        <path class="cls-2" d="M49.23,13.99c-.38,0-.77-.22-.77-.66v-.03c.11-2.93.08-7.99.11-11.46,0-1.57,1.1-1.57,2.74-1.57.61,0,1.25,0,1.55.02.82.03,1.42.54,1.46,1.26.02.56.03,1.14.03,1.7,0,2.02-.03,2.42-3.19,2.42-.42,0-.82-.02-1.1-.03v1.44c0,1.73-.02,3.97-.06,6.23,0,.46-.38.69-.77.69ZM52.95,2.45c0-.18-.02-.34-.02-.5-.03-.45-.11-.5-1.39-.5s-1.42.05-1.46.62c0,.11-.02.24-.02.37h2.88ZM50.06,3.51v.98c.22.02.7.02,1.18.02,1.55,0,1.67-.06,1.68-.51,0-.14.02-.3.02-.48h-2.88ZM56.28,12.21c-.43.03-.91.05-1.38.05s-.96-.02-1.39-.05c-.96-.08-1.55-.66-1.58-1.49-.02-.22-.02-.5-.02-.77,0-.72.03-1.55.06-2.19.05-.7.51-1.38,1.5-1.42.42-.02.86-.03,1.3-.03.53,0,1.06.02,1.52.03.78.03,1.41.64,1.46,1.31.05.56.06,1.26.06,1.92,0,.42,0,.8-.02,1.14-.03.8-.66,1.44-1.52,1.5ZM53.15,9.75c0,1.25.02,1.26,1.66,1.26,1.18,0,1.65-.02,1.68-.64,0-.18.02-.4.02-.62h-3.36ZM56.5,8.61c0-.19-.03-.35-.03-.5-.03-.59-.34-.64-1.42-.64-.4,0-.83,0-1.22.02-.45.02-.61.34-.62.64,0,.14-.03.3-.03.48h3.33ZM58.74,5.67c-1.89,0-3.22,0-3.27-1.41-.02-.32-.02-.67-.02-1.01,0-.56.02-1.14.03-1.7.03-.72.61-1.23,1.42-1.26.3-.02.98-.02,1.6-.02.46,0,.91,0,1.18.02,1.18.06,1.68.7,1.68,1.42v1.2c0,2.4.03,4.88.03,6.92,0,.75.02,1.42.02,1.98,0,1.14-.56,2.13-2.39,2.13-1.12,0-1.7-.14-1.7-.85,0-.37.22-.7.62-.7.05,0,.08.02.13.02.3.05.59.1.85.1.53,0,.93-.19.94-.98.02-.64.03-1.33.03-2.05,0-1.07-.02-2.18-.02-3.19v-.66c-.29.02-.7.03-1.17.03ZM59.88,2.45c0-.98-.03-.99-1.5-.99-1.28,0-1.46,0-1.49.51,0,.14-.02.32-.02.48h3.01ZM59.91,3.51h-3.04c0,.18.02.34.02.48.02.45.06.51,1.76.51.53,0,1.04,0,1.26-.02v-.98Z"/>
      </g>
      <path class="cls-1" d="M68.82,10.84v6.67c0,1.84-1.26,3.33-2.82,3.33H18.82"/>
    </g>
  </g>
</svg>