<?xml version="1.0" encoding="UTF-8"?>
<svg id="_レイヤー_2" data-name="レイヤー 2" xmlns="http://www.w3.org/2000/svg" viewBox="0 0 77.11 20.1">
  <defs>
    <style>
      .cls-1 {
        fill: none;
        stroke: #68b1ab;
        stroke-linecap: round;
        stroke-miterlimit: 10;
      }

      .cls-2 {
        fill: #fffdf3;
        stroke-width: 0px;
      }
    </style>
  </defs>
  <g id="letter">
    <g>
      <g>
        <path class="cls-2" d="M2.37,13.48l.18-7.46c-1.17,1.55-1.52,1.63-1.83,1.63-.4,0-.72-.32-.72-.7,0-.18.08-.38.26-.56C1.74,4.91,3.1,2.79,3.79.54c.11-.37.4-.53.7-.53.43,0,.88.32.88.77,0,.34-.64,1.71-1.28,2.85l-.19,9.84c-.02.48-.4.72-.78.72s-.75-.22-.75-.7v-.02ZM10.39,3.28v.96c.72,0,1.41.02,1.99.05.82.03,1.5.46,1.57,1.14.03.24.03.51.03.77,0,.37-.02.72-.03.98-.06.75-.67,1.26-1.65,1.31-.59.03-1.28.05-2,.05-.11.9-.34,1.78-.78,2.58,1.14.74,2.66,1.28,4.59,1.31.48,0,.74.35.74.72,0,.4-.3.82-.94.82-.7,0-3.03-.22-5.19-1.75-1.2,1.25-3.33,1.89-3.71,1.89-.45,0-.75-.38-.75-.77,0-.29.19-.58.61-.67,1.28-.27,2.14-.77,2.77-1.38-.29-.29-.54-.58-.77-.88-.77,1.09-1.12,1.15-1.3,1.15-.38,0-.74-.34-.74-.7,0-.22.11-.43.4-.59.62-.34,1.14-.86,1.38-1.28.11-.18.3-.26.51-.26.3,0,.61.18.61.5,0,.03,0,.08-.02.13.19.29.43.59.7.86.27-.54.42-1.12.5-1.68-.7,0-1.36-.03-1.92-.05-.93-.03-1.44-.56-1.5-1.3-.02-.26-.02-.56-.02-.85,0-.3,0-.59.02-.82.05-.66.61-1.2,1.5-1.23.56-.02,1.25-.03,1.97-.03v-.98h-3.14c-.45,0-.69-.34-.69-.69s.24-.67.69-.67h3.14l-.02-1.14v-.02c0-.51.34-.77.69-.77s.74.27.75.75c0,.4.02.78.02,1.17h3.43c.46,0,.69.34.69.67s-.22.69-.69.69h-3.43ZM8.95,5.47c-.58,0-1.1.02-1.55.03s-.54.26-.54.86c0,.18,0,.37.02.51.03.4.3.45,2.13.45,0-.66-.05-1.23-.05-1.63v-.22ZM10.39,5.78c0,.5,0,1.02-.02,1.55,2.19,0,2.19-.03,2.19-.96s-.02-.9-2.18-.9v.3Z"/>
        <path class="cls-2" d="M27.92,9.08h-3.57v3.97c0,.5-.38.75-.77.75s-.78-.26-.78-.75v-3.97h-3.38c-.21,2.11-.91,4.98-2.19,4.98-.43,0-.82-.32-.82-.74,0-.14.05-.3.16-.46,1.25-1.68,1.46-4.61,1.46-7.2,0-1.14-.03-2.19-.05-3.07v-.05c0-1.33.62-1.92,2.08-1.95,1.38-.03,2.64-.05,3.92-.05,1.12,0,2.26.02,3.52.05.94.02,1.89.67,1.9,1.78.05,2.35.02,5.54.05,7.3l.03,2.19v.03c0,1.12-.67,2.15-2.61,2.15-1.06,0-1.87-.13-1.87-.94,0-.38.24-.74.69-.74.05,0,.1,0,.16.02.4.08.74.11,1.01.11.82,0,1.06-.34,1.06-.88v-2.51ZM22.82,5.52h-3.25c0,.7-.02,1.46-.05,2.19h3.28l.02-2.19ZM22.82,1.9c-.82,0-1.65.02-2.5.03-.56.02-.77.32-.77.78v1.44h3.27V1.9ZM27.89,4.16c-.02-.46-.02-.91-.03-1.3-.03-.61-.34-.91-.93-.93-.87-.03-1.73-.03-2.59-.03v2.26h3.55ZM27.92,5.52h-3.59l.02,2.19h3.57v-2.19Z"/>
        <path class="cls-2" d="M34.59,7.09c-.32-.64-.78-1.3-1.3-1.73-.74-.62.32-1.74,1.18-.96.58.51,1.17,1.2,1.58,1.9.29.5.05.98-.32,1.18s-.88.14-1.15-.4ZM34.62,11.94c3.71-1.55,6.1-4.67,7-8.39.29-1.2,2.06-.66,1.73.48-1.25,4.11-3.63,7.44-7.91,9.36-1.33.59-1.86-1.02-.82-1.46ZM37.52,5.92c-.22-.67-.59-1.41-1.04-1.9-.64-.72.56-1.68,1.31-.78.5.59,1.01,1.36,1.31,2.11.22.53-.1.98-.48,1.14-.4.16-.91.02-1.1-.56Z"/>
        <path class="cls-2" d="M46.87,7.76c-.58,0-.85-.38-.85-.77s.3-.82.85-.82h10.05c.54,0,.82.4.82.8s-.27.78-.82.78h-10.05Z"/>
        <path class="cls-2" d="M58.53,11.06c2.37-1.06,3.79-3.52,3.65-6.58-.06-1.23,1.62-1.15,1.65-.13.11,3.02-1.26,6.35-4.4,8.1-1.23.69-2.11-.85-.9-1.39ZM66.93,11.64c-1.04.51-2.18.1-2.06-1.28.11-1.44.22-5.25.22-6.19,0-1.17,1.62-1.15,1.6,0-.02.62-.18,4.85-.19,5.39-.02.35.18.38.48.21,1.38-.78,2.64-2.27,3.57-4,.58-1.07,2.02-.19,1.46.8-1.1,1.98-2.9,3.97-5.07,5.07Z"/>
      </g>
      <path class="cls-1" d="M76.61,11.1v5.67c0,1.56-1.53,2.83-3.42,2.83H15.89"/>
    </g>
  </g>
</svg>