<?xml version="1.0" encoding="UTF-8"?>
<svg id="_レイヤー_2" data-name="レイヤー 2" xmlns="http://www.w3.org/2000/svg" viewBox="0 0 60.29 18.92">
  <defs>
    <style>
      .cls-1 {
        fill: none;
        stroke: #68b1ab;
        stroke-linecap: round;
        stroke-miterlimit: 10;
      }

      .cls-2 {
        fill: #fffdf3;
        stroke-width: 0px;
      }
    </style>
  </defs>
  <g id="letter">
    <g>
      <g>
        <path class="cls-2" d="M2.13,12.84c-1.57.54-1.82-1.17-.7-1.47,2.54-.69,3.95-2.64,4.07-5.03-1.78.02-3.54.06-4.66.1-.54.02-.83-.34-.83-.72s.29-.78.91-.78c2.27-.03,7.32-.06,9.92-.08.56,0,.82.38.78.77-.03.38-.32.74-.88.72-.86-.03-2.18-.03-3.58-.02-.14,2.9-1.86,5.41-5.03,6.51ZM2.71,3.22c-1.2,0-1.12-1.52.02-1.5,2.02.02,3.44-.05,5.54-.1.56-.02.82.37.82.74s-.27.77-.75.77c-2.21.03-3.91.1-5.62.1ZM10.71,3.57c-.16-.29-.78-1.01-1.07-1.2-.72-.51.08-1.3.75-.88.38.24,1.09.83,1.36,1.28.48.78-.66,1.52-1.04.8ZM12.69,2.6c-.27-.29-.83-.96-1.12-1.15-.74-.48.03-1.31.72-.91.38.22,1.1.8,1.39,1.23.5.77-.43,1.42-.99.83Z"/>
        <path class="cls-2" d="M24.5,5.88c0,3.06-1.3,5.62-4.24,7.32-1.28.74-1.92-.74-.93-1.28,2.48-1.36,3.59-3.39,3.59-5.97v-.37c-.86,0-1.71.02-2.56.03,0,.91,0,1.76-.02,2.39-.02.54-.4.83-.82.83s-.83-.29-.8-.82c.03-.66.05-1.49.05-2.37-1.01.03-2,.06-2.9.11-1.25.06-1.2-1.46-.1-1.49.96-.03,1.97-.05,2.98-.06-.02-.75-.03-1.46-.06-2-.05-1.09,1.52-1.22,1.58-.06.03.53.05,1.25.06,2.03.86-.02,1.71-.03,2.58-.05,0-.83,0-1.62-.02-2.06-.06-1.33,1.62-1.25,1.6-.02-.02.64-.02,1.34-.02,2.07,1.02-.02,2.05-.03,3.01-.03,1.5-.02,1.17,1.58.05,1.55-.99-.03-2-.05-3.04-.05v.3ZM25.4,2.42c-.8-.34-.21-1.26.53-.99.42.16,1.22.56,1.57.93.61.66-.3,1.6-.82.99-.21-.24-.96-.8-1.28-.93ZM26.8,1.08c-.8-.3-.22-1.28.51-1.04.42.14,1.23.53,1.58.88.64.62-.24,1.63-.78,1.04-.21-.24-.99-.75-1.31-.88Z"/>
        <path class="cls-2" d="M30.94,9.9c-1.47.9-2.3-.74-1.22-1.26,2.95-1.44,6-4.39,7.81-7.23.7-1.1,2.11-.08,1.42.85-.72.96-1.41,1.83-2.1,2.62-.05,1.63-.08,5.83-.03,7.43.03,1.22-1.7,1.36-1.68.05.02-1.28.08-3.89.1-5.76-1.26,1.23-2.64,2.31-4.31,3.31Z"/>
        <path class="cls-2" d="M45.3,5.78c-.59-.54-1.62-1.01-2.37-1.18-.96-.22-.56-1.84.66-1.5.85.24,2.05.67,2.82,1.22.5.35.46.96.21,1.33-.26.37-.82.59-1.31.14ZM44.3,12.39c-1.36.43-1.87-1.39-.54-1.73,3.22-.82,6.45-4.13,8.07-7.27.51-.99,2.16-.32,1.46.94-1.98,3.6-5.3,6.88-8.98,8.05Z"/>
      </g>
      <path class="cls-1" d="M59.79,8.42v6.67c0,1.84-1.26,3.33-2.82,3.33H9.79"/>
    </g>
  </g>
</svg>