<?xml version="1.0" encoding="UTF-8"?>
<svg id="_レイヤー_2" data-name="レイヤー 2" xmlns="http://www.w3.org/2000/svg" viewBox="0 0 71.02 30">
  <defs>
    <style>
      .cls-1 {
        fill: none;
        stroke: #68b1ab;
        stroke-miterlimit: 10;
      }

      .cls-2 {
        fill: #68b1ab;
        stroke-width: 0px;
      }
    </style>
  </defs>
  <g id="letter">
    <g>
      <line class="cls-1" y1="27.05" x2="25" y2="27.05"/>
      <line class="cls-1" x1="24.97" y1="27.02" x2="22.86" y2="20.05"/>
    </g>
    <g>
      <path class="cls-2" d="M62.9,0h-13.76c-4.48,0-8.12,3.64-8.12,8.12v13.76c0,4.48,3.64,8.12,8.12,8.12h13.76c4.48,0,8.12-3.64,8.12-8.12v-13.76c0-4.48-3.64-8.12-8.12-8.12ZM62.9,28.24h-13.76c-3.51,0-6.36-2.85-6.36-6.36v-13.76c0-3.51,2.85-6.36,6.36-6.36h13.76c3.51,0,6.36,2.85,6.36,6.36v13.76c0,3.51-2.85,6.36-6.36,6.36Z"/>
      <path class="cls-2" d="M56.02,6.78c-4.52,0-8.2,3.68-8.2,8.2,0,4.52,3.68,8.2,8.2,8.2,4.52,0,8.2-3.68,8.2-8.2,0-4.52-3.68-8.2-8.2-8.2ZM56.02,21.42c-3.55,0-6.44-2.89-6.44-6.44,0-3.55,2.89-6.44,6.44-6.44,3.55,0,6.44,2.89,6.44,6.44,0,3.55-2.89,6.44-6.44,6.44Z"/>
      <path class="cls-2" d="M64.41,3.86c-1.34,0-2.42,1.09-2.42,2.42s1.09,2.42,2.42,2.42c1.34,0,2.42-1.09,2.42-2.42s-1.09-2.42-2.42-2.42ZM64.41,6.95c-.37,0-.67-.3-.67-.67s.3-.67.67-.67.67.3.67.67-.3.67-.67.67Z"/>
    </g>
  </g>
</svg>