<?xml version="1.0" encoding="UTF-8"?>
<svg id="_レイヤー_2" data-name="レイヤー 2" xmlns="http://www.w3.org/2000/svg" viewBox="0 0 68.89 20.48">
  <defs>
    <style>
      .cls-1 {
        fill: none;
        stroke: #68b1ab;
        stroke-linecap: round;
        stroke-miterlimit: 10;
      }

      .cls-2 {
        fill: #fffdf3;
        stroke-width: 0px;
      }
    </style>
  </defs>
  <g id="letter">
    <g>
      <g>
        <path class="cls-2" d="M2.37,13.48l.18-7.46c-1.17,1.55-1.52,1.63-1.83,1.63-.4,0-.72-.32-.72-.7,0-.18.08-.38.26-.56C1.74,4.91,3.1,2.79,3.79.54c.11-.37.4-.53.7-.53.43,0,.88.32.88.77,0,.34-.64,1.71-1.28,2.85l-.19,9.84c-.02.48-.4.72-.78.72s-.75-.22-.75-.7v-.02ZM10.39,3.28v.96c.72,0,1.41.02,1.99.05.82.03,1.5.46,1.57,1.14.03.24.03.51.03.77,0,.37-.02.72-.03.98-.06.75-.67,1.26-1.65,1.31-.59.03-1.28.05-2,.05-.11.9-.34,1.78-.78,2.58,1.14.74,2.66,1.28,4.59,1.31.48,0,.74.35.74.72,0,.4-.3.82-.94.82-.7,0-3.03-.22-5.19-1.75-1.2,1.25-3.33,1.89-3.71,1.89-.45,0-.75-.38-.75-.77,0-.29.19-.58.61-.67,1.28-.27,2.14-.77,2.77-1.38-.29-.29-.54-.58-.77-.88-.77,1.09-1.12,1.15-1.3,1.15-.38,0-.74-.34-.74-.7,0-.22.11-.43.4-.59.62-.34,1.14-.86,1.38-1.28.11-.18.3-.26.51-.26.3,0,.61.18.61.5,0,.03,0,.08-.02.13.19.29.43.59.7.86.27-.54.42-1.12.5-1.68-.7,0-1.36-.03-1.92-.05-.93-.03-1.44-.56-1.5-1.3-.02-.26-.02-.56-.02-.85,0-.3,0-.59.02-.82.05-.66.61-1.2,1.5-1.23.56-.02,1.25-.03,1.97-.03v-.98h-3.14c-.45,0-.69-.34-.69-.69s.24-.67.69-.67h3.14l-.02-1.14v-.02c0-.51.34-.77.69-.77s.74.27.75.75c0,.4.02.78.02,1.17h3.43c.46,0,.69.34.69.67s-.22.69-.69.69h-3.43ZM8.95,5.47c-.58,0-1.1.02-1.55.03s-.54.26-.54.86c0,.18,0,.37.02.51.03.4.3.45,2.13.45,0-.66-.05-1.23-.05-1.63v-.22ZM10.39,5.78c0,.5,0,1.02-.02,1.55,2.19,0,2.19-.03,2.19-.96s-.02-.9-2.18-.9v.3Z"/>
        <path class="cls-2" d="M27.92,9.08h-3.57v3.97c0,.5-.38.75-.77.75s-.78-.26-.78-.75v-3.97h-3.38c-.21,2.11-.91,4.98-2.19,4.98-.43,0-.82-.32-.82-.74,0-.14.05-.3.16-.46,1.25-1.68,1.46-4.61,1.46-7.2,0-1.14-.03-2.19-.05-3.07v-.05c0-1.33.62-1.92,2.08-1.95,1.38-.03,2.64-.05,3.92-.05,1.12,0,2.26.02,3.52.05.94.02,1.89.67,1.9,1.78.05,2.35.02,5.54.05,7.3l.03,2.19v.03c0,1.12-.67,2.15-2.61,2.15-1.06,0-1.87-.13-1.87-.94,0-.38.24-.74.69-.74.05,0,.1,0,.16.02.4.08.74.11,1.01.11.82,0,1.06-.34,1.06-.88v-2.51ZM22.82,5.52h-3.25c0,.7-.02,1.46-.05,2.19h3.28l.02-2.19ZM22.82,1.9c-.82,0-1.65.02-2.5.03-.56.02-.77.32-.77.78v1.44h3.27V1.9ZM27.89,4.16c-.02-.46-.02-.91-.03-1.3-.03-.61-.34-.91-.93-.93-.87-.03-1.73-.03-2.59-.03v2.26h3.55ZM27.92,5.52h-3.59l.02,2.19h3.57v-2.19Z"/>
        <path class="cls-2" d="M33.44,4.18c-.46,0-.69-.35-.69-.7s.22-.69.69-.69h12.17c.48,0,.7.35.7.69s-.22.7-.7.7h-12.17ZM42.76,13.72c-1.1.03-2.16.05-3.22.05s-2.11-.02-3.23-.05c-1.15-.03-1.75-.62-1.79-1.44-.02-.27-.02-.53-.02-.78,0-.91,0-2.08,1.78-2.13,1.12-.03,2.21-.03,3.28-.03s2.18,0,3.28.03c.96.02,1.62.64,1.68,1.28.03.24.03.51.03.78s0,.56-.03.83c-.06.77-.7,1.42-1.76,1.46ZM35.54,1.89c-.45,0-.67-.34-.67-.66s.22-.67.67-.67h7.99c.45,0,.67.34.67.66s-.22.67-.67.67h-7.99ZM35.57,8.48c-.45,0-.69-.32-.69-.66s.24-.64.69-.64h7.94c.43,0,.66.32.66.64,0,.34-.22.66-.66.66h-7.94ZM35.57,6.34c-.45,0-.67-.32-.67-.66s.22-.64.67-.64h7.94c.43,0,.66.32.66.64s-.22.66-.66.66h-7.94ZM42.93,11.49c0-.88-.37-.88-.74-.9-.77-.02-1.58-.03-2.42-.03-1.01,0-2.05.02-3.01.03-.64,0-.7.4-.7.9,0,.64.08.9.72.91.93.02,1.95.03,2.96.03.85,0,1.68-.02,2.48-.03.35-.02.71-.05.71-.91Z"/>
        <path class="cls-2" d="M49.25,3.91c-.51,0-.74-.32-.74-.64,0-.35.26-.7.74-.7h4.55c.48,0,.7.34.7.67s-.22.67-.7.67h-4.55ZM52.69,13.7c-.34.02-.82.03-1.28.03s-.91-.02-1.23-.03c-.75-.05-1.22-.56-1.23-1.26-.02-.35-.02-.69-.02-1.04,0-.46,0-.93.02-1.33.02-.61.4-1.17,1.2-1.22.37-.02.78-.03,1.2-.03.51,0,1.01.02,1.39.03.62.03,1.31.45,1.33,1.14.02.37.02.8.02,1.23s0,.85-.02,1.2c-.02.72-.54,1.23-1.38,1.28ZM49.78,1.71c-.48,0-.7-.3-.7-.62s.26-.69.7-.69h3.33c.45,0,.67.32.67.66s-.22.66-.67.66h-3.33ZM49.81,5.99c-.48,0-.7-.3-.7-.62s.26-.69.7-.69h3.33c.45,0,.67.32.67.66s-.22.66-.67.66h-3.33ZM49.81,8.05c-.48,0-.7-.3-.7-.62,0-.34.26-.69.7-.69h3.33c.45,0,.67.32.67.66s-.22.66-.67.66h-3.33ZM52.67,11.27c0-.29,0-.58-.02-.8-.03-.42-.38-.43-1.2-.43-.22,0-.45,0-.69.02-.46.03-.46.3-.46,1.2,0,.29.02.58.02.82.02.34.32.38,1.14.38.91,0,1.18-.1,1.2-.4.02-.22.02-.51.02-.78ZM54.9,7.67c-.46,0-.69-.32-.69-.64s.24-.66.69-.66h1.67c.14-.56.29-1.26.43-1.95-.4,0-.78,0-1.12.02h-.03c-.45,0-.66-.3-.66-.62s.24-.66.69-.67h1.39c.1-.46.18-.88.22-1.18h-2c-.5,0-.72-.3-.72-.61,0-.34.26-.67.72-.67h5.99c.46,0,.69.32.69.64s-.22.64-.69.64h-2.53c-.06.32-.14.72-.24,1.18.37,0,.75.02,1.1.02,1.02.02,1.5.48,1.5,1.5,0,.51-.02,1.14-.03,1.71h.88c.45,0,.67.32.67.64,0,.34-.22.66-.67.66h-7.27ZM60.26,13.77c-.43.03-.99.05-1.55.05-2.08,0-3.31,0-3.38-1.52-.02-.32-.02-.66-.02-1.01,0-.42,0-.85.03-1.22.05-.82.62-1.38,1.54-1.42.46-.02,1.02-.03,1.57-.03.66,0,1.31.02,1.81.03.82.03,1.57.61,1.6,1.41.02.42.03.9.03,1.36,0,.29,0,.58-.02.85-.03.83-.59,1.42-1.62,1.5ZM60.36,11.03c0-.94-.06-1.17-.61-1.18-.32-.02-.75-.02-1.18-.02s-.85,0-1.15.02c-.61.02-.62.29-.62,1.49,0,.24.02.48.02.66.03.53.67.53,1.78.53,1.39,0,1.73-.1,1.76-.53.02-.27.02-.62.02-.96ZM59.86,6.37c.02-.43.03-.88.03-1.25,0-.51-.1-.69-.5-.69l-.96-.02c-.16.69-.3,1.39-.45,1.95h1.87Z"/>
      </g>
      <path class="cls-1" d="M68.39,9.98v6.67c0,1.84-1.26,3.33-2.82,3.33H18.39"/>
    </g>
  </g>
</svg>