<?xml version="1.0" encoding="UTF-8"?>
<svg id="_レイヤー_2" data-name="レイヤー 2" xmlns="http://www.w3.org/2000/svg" viewBox="0 0 295.67 1416.27">
  <defs>
    <style>
      .cls-1 {
        opacity: .2;
      }

      .cls-2 {
        fill: none;
        stroke: #fffdf3;
        stroke-miterlimit: 10;
      }
    </style>
  </defs>
  <g id="letter">
    <g class="cls-1">
      <path class="cls-2" d="M2.87,251.33c0-13.04,10.27-26.07,32.79-31.6,43.05-10.27,186.05-38.32,220.02-42.66,6.72-.79,9.88-3.95,9.88-7.11s-3.56-6.32-10.67-7.5c-36.74-5.13-169.06-33.58-218.83-46.22C13.54,110.71,2.87,96.88,2.87,83.45s11.46-27.65,32.39-32C92.93,39.21,221.7,9.98,277.79.9c.79,0,1.58-.4,2.37-.4,7.9,0,11.46,6.72,11.46,13.43,0,5.92-3.16,11.85-9.48,13.04-58.07,9.88-196.71,39.5-239.37,47.79-9.08,1.58-13.43,5.53-13.43,9.48,0,4.34,5.13,8.69,13.83,10.67,33.97,7.5,169.46,36.34,223.97,46.61,16.99,3.16,25.28,15.41,25.28,27.65s-9.08,25.68-24.88,28.84c-46.22,9.08-176.96,35.16-223.97,43.45-9.48,1.58-13.83,5.53-13.83,9.08,0,4.34,4.74,8.29,13.43,10.67,37.92,9.88,183.28,43.45,238.98,54.12,7.11,1.19,10.27,7.11,10.27,12.64,0,6.32-4.34,13.04-11.46,13.04-4.34,0-21.72-2.37-246.88-56.88-19.75-4.74-31.21-18.57-31.21-32.79Z"/>
      <path class="cls-2" d="M147.44,382.86c85.72,0,147.73,61.23,147.73,143.39s-62.02,143.39-147.73,143.39S.5,608.4.5,526.24s58.07-143.39,146.94-143.39ZM147.44,643.95c75.45,0,125.61-52.54,125.61-117.71s-50.17-117.71-125.61-117.71-124.43,52.54-124.43,117.71,49.38,117.71,124.43,117.71Z"/>
      <path class="cls-2" d="M146.65,845c-1.58,0-3.56,1.58-5.93,4.34-20.14,21.73-54.51,38.71-79.79,54.12-17.78,11.06-29.63,22.51-31.6,40.29-.79,7.9-7.11,12.25-13.43,12.25-6.71,0-13.04-5.13-13.04-16.2,0-8.69,6.32-35.95,45.03-57.28,28.83-16.2,94.8-49.38,95.59-77.03,0-5.53.79-22.52.79-32.79,0-11.06-2.37-12.64-7.5-12.64-30.42,0-106.26,1.18-120.87,1.18-7.9,0-11.85-6.71-11.85-13.04s3.55-12.25,11.46-12.25c75.45.79,191.97.4,234.63,1.58,43.05,1.19,43.05,40.69,43.05,71.1,0,8.69-.39,17.38-.79,23.3-3.95,57.67-37.53,82.56-71.1,82.56s-67.94-25.28-72.68-65.97c0-2.37-.79-3.55-1.97-3.55ZM272.26,829.2c.39-5.53.79-14.22.79-23.31,0-29.23-5.53-43.06-28.05-44.64-9.88-.79-50.17-.39-73.87-.79-5.92,0-6.71,5.93-6.71,38.32,0,12.64.39,25.68.79,33.18,2.76,36.74,29.62,57.67,55.7,57.67s48.98-18.57,51.35-60.44Z"/>
      <path class="cls-2" d="M15.11,1025.91c-7.5,0-11.46-6.71-11.46-13.43,0-6.32,3.95-13.04,11.46-13.04h.4c43.06.79,95.99,1.18,145.76,1.18,45.03,0,87.3-.39,118.11-1.18h.39c7.9,0,12.25,6.71,12.25,13.43,0,6.32-4.34,13.04-12.25,13.04h-.39c-20.94-.39-43.45-.79-62.81-.79s-35.95.4-44.24.4c-5.13,0-7.9,1.18-7.9,12.64,0,6.72.39,13.43,11.06,24.1,32,30.81,88.88,82.95,111,99.54,3.56,2.76,5.13,6.71,5.13,10.27,0,7.11-5.92,13.83-12.64,13.83-5.53,0-9.48-.79-117.71-106.65-2.37-2.37-4.35-3.56-5.93-3.56-1.97,0-3.55,1.19-5.92,3.16-38.71,37.92-87.69,90.06-120.87,123.64-2.76,2.76-6.32,3.95-9.88,3.95-7.5,0-15.01-6.32-15.01-13.83,0-3.56,1.98-7.9,5.93-11.46,36.74-33.18,86.51-83.74,124.82-119.29,3.16-2.76,7.5-8.29,7.5-20.14,0-3.56-.4-6.71-.4-9.88,0-2.77-.79-6.32-6.71-6.32-9.48-.4-29.23-.4-53.72-.4-20.14,0-43.05,0-65.57.79h-.4Z"/>
      <path class="cls-2" d="M.5,1324.92c0-63.99,40.68-91.25,51.75-91.25,7.11,0,12.25,6.32,12.25,13.04,0,3.95-1.58,7.9-6.32,10.67-20.93,11.46-34.37,35.95-34.37,67.94,0,37.92,24.1,64.78,53.72,64.78,18.96,0,39.5-11.46,54.12-37.13,11.46-20.15,22.12-41.87,32.79-63.2,14.61-29.23,39.89-43.45,64.38-43.45,33.97,0,65.97,26.86,65.97,76.24s-28.04,78.61-40.69,78.61c-6.71,0-12.64-5.53-12.64-11.85,0-3.95,1.97-7.9,6.71-11.06,14.22-9.88,25.68-27.65,25.68-56.09,0-32.39-20.94-51.75-44.24-51.75-16.19,0-33.58,9.88-45.03,31.21-9.48,17.78-22.12,45.82-31.6,62.81-19.75,35.95-48.19,51.35-75.05,51.35-37.13,0-77.42-30.42-77.42-90.85Z"/>
    </g>
  </g>
</svg>