<?xml version="1.0" encoding="UTF-8"?>
<svg id="_レイヤー_2" data-name="レイヤー 2" xmlns="http://www.w3.org/2000/svg" viewBox="0 0 65.32 21.46">
  <defs>
    <style>
      .cls-1 {
        fill: none;
        stroke: #68b1ab;
        stroke-linecap: round;
        stroke-miterlimit: 10;
      }

      .cls-2 {
        fill: #fffdf3;
        stroke-width: 0px;
      }
    </style>
  </defs>
  <g id="letter">
    <g>
      <g>
        <path class="cls-2" d="M3.25,8.44c-1.06,0-1.3.05-1.3.61v.77c0,.69,0,1.5.02,2.1v.02c0,.45-.35.67-.69.67-.35,0-.7-.22-.7-.67s-.02-.99-.02-1.57.02-1.15.02-1.58c.05-1.49.91-1.49,2.67-1.49v-1.12l-2.59.02c-.43,0-.66-.3-.66-.62s.22-.61.66-.61h2.59v-1.3h-1.34c-.35.66-.62,1.01-1.06,1.01-.38,0-.74-.29-.74-.62,0-.11.03-.22.11-.34.61-.83.86-1.38,1.12-2.32.08-.29.34-.42.61-.42.37,0,.75.22.75.59,0,.05-.06.38-.26.86l.8.02V.8c0-.45.37-.67.74-.67s.72.22.72.67v1.63l2.08-.02c.45,0,.67.3.67.61,0,.32-.22.62-.67.62h-2.08v1.3h2.64c.45,0,.66.3.66.61,0,.32-.21.62-.66.62l-2.64-.02v1.12c.43,0,.85,0,1.22.02,1.06.03,1.52.51,1.52,1.5,0,.46,0,1.3.02,1.84v.1c0,.93-.37,1.63-1.49,1.63-.75,0-1.02-.19-1.02-.7,0-.32.16-.64.46-.64.02,0,.05.02.08.02.08.02.16.03.22.03.21,0,.38-.1.38-.5,0,0,0-1.07-.02-1.54,0-.58-.38-.61-1.38-.61v4.82c0,.5-.37.74-.72.74s-.74-.24-.74-.74v-4.82ZM8.71,1.92c0-.48.37-.72.74-.72s.75.24.75.72v8.1c0,.45-.37.67-.75.67s-.74-.22-.74-.67V1.92ZM13.22,11.78v.03c0,.96-.64,2.08-2.59,2.08-1.3,0-1.86-.22-1.86-.91,0-.4.26-.8.69-.8.06,0,.11,0,.18.02.32.06.72.18,1.09.18.48,0,.9-.18.91-.85.02-.59.02-4.99.02-7.92V1.09c0-.48.38-.72.77-.72s.77.24.77.72v8.77l.03,1.92Z"/>
        <path class="cls-2" d="M18.21,13.46l.16-7.65c-1.26,1.6-1.75,1.84-2.11,1.84-.42,0-.75-.34-.75-.72,0-.19.1-.4.29-.58,1.57-1.39,3.04-3.46,3.86-5.65.13-.35.4-.48.69-.48.43,0,.88.34.88.78,0,.34-.72,1.67-1.28,2.56l-.19,9.89c0,.5-.4.74-.77.74s-.77-.24-.77-.72v-.02ZM25.4,10.6v2.77c0,.53-.38.78-.77.78s-.77-.26-.77-.78V4.31h-.59c-.48.93-1.04,1.81-1.73,2.71-.22.29-.5.42-.72.42-.4,0-.72-.32-.72-.7,0-.16.06-.34.21-.51,1.04-1.26,2.11-3.09,2.71-5.43.1-.42.42-.59.74-.59.42,0,.83.29.83.72,0,.26-.48,1.54-.67,2h5.52c.45,0,.69.35.69.7s-.22.69-.69.69h-4.03v1.73h3.3c.45,0,.69.35.69.7s-.22.69-.69.69h-3.3v1.78h3.46c.45,0,.69.35.69.7s-.22.69-.69.69h-3.46Z"/>
        <path class="cls-2" d="M40.37,13.51c-.62.03-1.36.05-2.1.05-3.63,0-4.96-.03-5.03-2.19-.03-.96-.05-2.56-.05-4.19s.02-3.28.05-4.34c.05-1.26.78-1.87,2.06-1.92.66-.02,2.05-.05,3.31-.05.86,0,1.68.02,2.19.05,1.07.06,1.94.62,1.99,1.79.03,1.02.05,2.93.05,4.74,0,1.58-.02,3.09-.03,3.89-.05,1.49-.9,2.11-2.45,2.18ZM41.35,5.97h-6.69v2.26h6.69v-2.26ZM41.33,4.61c0-.51-.02-.96-.03-1.3-.05-1.07-.42-1.09-3.22-1.09-.88,0-1.71.02-2.23.05-1.12.06-1.18.34-1.18,2.34h6.66ZM34.67,9.59c0,.59.02,1.1.03,1.46.03,1.07.5,1.09,3.41,1.09.72,0,1.46-.02,1.99-.05,1.23-.06,1.23-.54,1.23-2.5h-6.66Z"/>
        <path class="cls-2" d="M53.73.56c.08-.38.38-.56.7-.56.4,0,.82.27.82.72,0,.18-.26,1.04-.64,1.97.7-.02,1.65-.03,2.37-.03.8,0,2.37.02,2.48,1.89.03.56.06,1.31.06,2.13,0,3.92-.69,7.28-4.05,7.28-.48,0-.99-.08-1.55-.21-.43-.11-.64-.48-.64-.83,0-.38.24-.75.72-.75.08,0,.16.02.26.03.45.11.86.18,1.22.18,1.06,0,2.48-.54,2.48-5.71,0-2.06-.03-2.59-.8-2.59h-3.19c-.86,1.75-1.28,2.05-1.7,2.05-.21,0-.4-.08-.54-.21v1.41c0,1.3-.02,2.58-.03,3.54-.03,1.44-1.41,1.5-2.61,1.5-.37,0-.74-.02-1.09-.05-.8-.08-1.38-.66-1.38-1.47-.02-1.1-.02-2.59-.02-4,0-1.02,0-2,.02-2.74.02-.8.54-1.33,1.49-1.38h.21c.19-.62.38-1.39.46-1.97.06-.43.38-.62.72-.62.42,0,.86.29.86.72,0,.24-.3,1.07-.61,1.86,1.65,0,1.92.83,1.94,1.33.02.29.02.61.02.93.93-1.15,1.7-3.04,2.02-4.4ZM50.27,6.67c0-2.48,0-2.69-.46-2.69-.18-.02-.42-.02-.66-.02s-.48,0-.66.02c-.27,0-.45.22-.45.45-.02.56-.02,1.38-.02,2.24h2.24ZM48.03,7.94c0,.98,0,1.92.02,2.59,0,.35.19.48,1.06.48.69,0,1.09,0,1.12-.5.03-.72.06-1.63.06-2.58h-2.26ZM55.01,8.87c-.43-.56-1.15-1.1-1.83-1.44-.29-.14-.4-.37-.4-.58,0-.35.3-.7.75-.7.54,0,2.85,1.2,2.85,2.16,0,.46-.4.85-.82.85-.21,0-.4-.08-.56-.29Z"/>
      </g>
      <path class="cls-1" d="M64.82,10.96v6.67c0,1.84-1.26,3.33-2.82,3.33H14.82"/>
    </g>
  </g>
</svg>