<?xml version="1.0" encoding="UTF-8"?>
<svg id="_レイヤー_2" data-name="レイヤー 2" xmlns="http://www.w3.org/2000/svg" viewBox="0 0 60.28 162.12">
  <defs>
    <style>
      .cls-1 {
        fill: none;
        stroke: #404648;
        stroke-miterlimit: 10;
      }
    </style>
  </defs>
  <g id="letter">
    <g>
      <path class="cls-1" d="M57.22,5.3c-6.08-.16-14.72-.24-24.32-.24-.56,0-.88,0-.88.16s.16.4.64.72c3.76,2.8,6.16,7.52,6.16,12.96,0,10.4-7.84,18.16-19.04,18.16S.74,29.3.74,18.9c0-4.72,1.92-9.44,5.76-12.64.64-.48.96-.72.96-.88,0-.08,0-.16-3.28-.16S.98,2.98.98,2.82C.98,1.62,1.86.5,3.7.5c8.24,0,25.76.16,38.8.16,6.56,0,12,0,14.56-.16,2.4-.08,2.72,1.68,2.72,2.4,0,1.2-.88,2.4-2.48,2.4h-.08ZM19.78,32.26c8.96,0,14.96-5.92,14.96-13.52s-6-13.6-14.96-13.6-14.72,6-14.72,13.6,5.76,13.52,14.72,13.52Z"/>
      <path class="cls-1" d="M7.06,71.46c-4.08-2.4-6.56-7.76-6.56-12.64,0-8.08,5.52-12.96,11.04-12.96,4,0,8.08,2.64,9.92,8.56,1.52,4.96,2.72,11.44,3.28,14.8.16.96.4,1.28.96,1.28.4,0,.88.08,1.28.08,4.4,0,7.84-1.84,7.84-8.32,0-4.32-1.84-7.52-3.84-9.36-.56-.48-.8-1.12-.8-1.68,0-1.2.88-2.24,2.16-2.24,3.04,0,6.48,6.72,6.48,13.6,0,7.44-3.28,12.48-12.24,12.48-.72,0-1.44,0-2.24-.08-2.64-.24-6.24-.4-8.88-.4-6.64,0-8.24,1.28-9.92,4.48-.32.64-.96.88-1.6.88-1.12,0-2.48-.96-2.48-2.4,0-.48,1.12-4.48,5.52-5.6.24-.08.32-.08.32-.24,0,0-.08-.16-.24-.24ZM17.06,70.34c.88,0,1.76.08,2.72.08.64,0,.88-.24.88-.8v-.24c-2-12.56-3.6-19.2-9.2-19.2-3.36,0-6.72,3.2-6.72,8.56,0,7.36,5.52,11.6,12.32,11.6Z"/>
      <path class="cls-1" d="M.58,105.94c0-12.32,9.36-18.8,18.88-18.8,10.64,0,19.6,7.52,19.6,18.4,0,8.08-4.4,13.36-6.8,13.36-1.36,0-2.4-1.12-2.4-2.32,0-.72.32-1.44,1.12-2.08,2.64-2.08,3.92-5.52,3.92-8.96,0-7.84-6.48-13.68-15.04-13.68-7.52,0-14.88,4.96-14.88,14,0,4,1.52,7.92,4.56,10.08.88.64,1.2,1.36,1.2,2.08,0,1.36-1.12,2.56-2.48,2.56-2.32,0-7.68-6-7.68-14.64Z"/>
      <path class="cls-1" d="M3.22,131.22c10.32.24,26.16.32,38.8.32,6.32,0,11.84,0,15.52-.08,1.44,0,2.16,1.2,2.16,2.4s-.72,2.4-2.16,2.4h-.08c-5.6-.16-15.84-.16-23.12-.16h-8.4c-.88,0-1.2.4-1.2,1.2,0,.48.16,1.04.56,1.6,3.36,4.88,9.04,12.8,12.56,17.44.4.56.56,1.04.56,1.52,0,1.44-1.36,2.48-2.64,2.48-.64,0-1.28-.24-1.68-.88-3.36-4.88-8.16-11.92-10.96-16.32-.32-.48-.56-.72-.8-.72s-.48.24-.88.64c-4,4.16-13.2,14.88-15.76,17.6-.64.72-1.36.96-2.08.96-1.36,0-2.56-1.2-2.56-2.56,0-.64.16-1.2.72-1.76,2.4-2.48,13.68-14.24,17.52-17.92.88-.8.96-1.44.96-2.24,0-1.28-.56-1.28-8.24-1.28-2.16,0-4.88,0-8.64.08-1.52,0-2.24-1.2-2.24-2.4s.64-2.32,2-2.32h.08Z"/>
    </g>
  </g>
</svg>