<?xml version="1.0" encoding="UTF-8"?>
<svg id="_レイヤー_2" data-name="レイヤー 2" xmlns="http://www.w3.org/2000/svg" viewBox="0 0 3714.25 97.85">
  <defs>
    <style>
      .cls-1 {
        fill: none;
        stroke: #404648;
        stroke-miterlimit: 10;
      }
    </style>
  </defs>
  <g id="letter">
    <g>
      <path class="cls-1" d="M31.05,97.09c-20.02,0-30.55-15.21-30.55-30.68,0-17.29,12.22-31.85,29.9-31.85,13.13,0,21.71,7.15,21.71,11.05,0,2.21-1.82,3.9-3.77,3.9-1.17,0-2.34-.52-3.38-1.82-3.38-4.29-8.97-6.37-14.56-6.37-12.74,0-22.23,10.53-22.23,24.44,0,12.22,8.06,24.18,22.75,24.18,6.5,0,12.87-2.47,16.38-7.41,1.04-1.43,2.21-1.95,3.38-1.95,2.21,0,4.16,1.82,4.16,4.03,0,3.77-9.75,12.48-23.79,12.48Z"/>
      <path class="cls-1" d="M108.66,86.56c-3.9,6.63-12.61,10.66-20.54,10.66-13.13,0-21.06-8.97-21.06-17.94,0-6.5,4.29-13.13,13.91-16.12,8.06-2.47,18.59-4.42,24.05-5.33,1.56-.26,2.08-.65,2.08-1.56,0-.65.13-1.43.13-2.08,0-7.15-2.99-12.74-13.52-12.74-7.02,0-12.22,2.99-15.21,6.24-.78.91-1.82,1.3-2.73,1.3-1.95,0-3.64-1.43-3.64-3.51,0-4.94,10.92-10.53,22.1-10.53,12.09,0,20.28,5.33,20.28,19.89,0,1.17,0,2.34-.13,3.64-.39,4.29-.65,10.14-.65,14.43,0,10.79,2.08,13.39,7.28,16.12,1.04.52,1.43,1.56,1.43,2.6,0,1.82-1.56,4.03-3.9,4.03-.78,0-7.28-1.82-9.1-8.97-.13-.39-.13-.52-.39-.52,0,0-.26.13-.39.39ZM106.84,70.31c0-1.43.13-2.86.13-4.42,0-1.04-.39-1.43-1.3-1.43h-.39c-20.41,3.25-31.2,5.85-31.2,14.95,0,5.46,5.2,10.92,13.91,10.92,11.96,0,18.85-8.97,18.85-20.02Z"/>
      <path class="cls-1" d="M144.41,92.02c.13-3.77.13-10.14.13-17.16,0-13.91-.13-29.77-.13-29.77,0-1.56-.13-1.69-1.69-1.69h-8.32c-2.21,0-3.38-1.69-3.38-3.51s1.17-3.64,3.38-3.64h8.32c1.43,0,1.82-.13,1.82-1.43s-.13-4.81-.13-8.97v-3.38c.39-14.04,10.79-21.71,20.93-21.71,1.3,0,5.85.13,5.85,3.64,0,1.82-1.43,3.51-3.9,3.51h-1.56c-8.45,0-13.39,6.89-13.78,15.34v4.03c0,3.12,0,5.98.13,7.67,0,1.17.26,1.3,1.56,1.3h13.52c2.21,0,3.38,1.82,3.38,3.51,0,1.82-1.17,3.64-3.38,3.64h-13.65c-1.3,0-1.43.13-1.43,1.69,0,0,.26,36.14.26,46.93,0,2.73-1.95,4.16-4.03,4.16-1.95,0-3.9-1.3-3.9-4.03v-.13Z"/>
      <path class="cls-1" d="M210.19,97.22c-16.51,0-29.38-12.35-29.38-30.68s13.65-31.46,28.99-31.46c17.81,0,25.61,13.91,25.61,21.32,0,4.94-2.99,8.58-9.49,8.71-2.99.13-7.41.13-12.22.13-9.75,0-20.8-.13-23.66-.13-1.3,0-1.56.52-1.56,2.34,0,14.17,9.36,22.88,21.84,22.88,9.49,0,14.82-4.03,18.85-8.58.78-.78,1.69-1.17,2.6-1.17,1.95,0,3.9,1.69,3.9,3.77,0,2.99-9.1,12.87-25.48,12.87ZM209.93,41.58c-12.48,0-20.41,11.18-20.41,15.99,0,1.3,1.17,1.3,16.25,1.3,6.76,0,14.04,0,17.68-.13,3.12-.13,4.29-1.56,4.29-3.64,0-3.77-4.55-13.52-17.81-13.52Z"/>
      <path class="cls-1" d="M308.98,97.35c-13.52,0-21.06-7.8-21.06-11.44,0-2.21,1.95-3.77,3.9-3.77,1.17,0,2.34.52,3.25,1.69,2.86,4.03,7.54,6.5,13.91,6.5,7.41,0,13-4.16,13-9.75,0-6.89-5.59-9.49-20.67-16.25-7.15-3.12-10.53-8.84-10.53-14.43,0-7.67,6.24-14.95,17.68-14.95s18.07,5.59,18.07,9.1c0,2.08-1.69,3.77-3.77,3.77-1.04,0-2.34-.52-3.38-1.82-2.08-2.47-5.33-4.55-10.92-4.55-6.63,0-10.4,3.9-10.4,8.19,0,3.12,2.08,6.37,6.37,8.45,3.64,1.69,9.62,4.16,13.65,6.24,8.06,4.16,11.57,10.27,11.57,16.25,0,7.41-6.11,16.77-20.67,16.77Z"/>
      <path class="cls-1" d="M353.96,12.85c-6.11,0-6.11-5.59-6.11-6.37,0-4.03,3.64-5.98,6.24-5.98,1.95,0,6.37,1.04,6.37,5.98,0,4.03-3.25,6.37-6.5,6.37ZM358.25,92.54c0,2.6-2.08,3.9-4.16,3.9-1.95,0-4.03-1.3-4.03-3.9,0-11.05.13-26.26.13-38.35,0-6.11,0-11.44-.13-15.08v-.13c0-2.34,2.08-3.64,4.16-3.64,1.95,0,4.03,1.17,4.03,3.51v.13c-.13,5.46-.26,16.12-.26,27.3,0,9.23.13,18.85.26,26.13v.13Z"/>
      <path class="cls-1" d="M396.86,43.14c-2.08,0-2.08.26-2.08,1.95,0,4.94-.39,18.33-.39,27.95,0,10.14.26,17.03,10.4,17.03,1.17,0,2.34-.13,3.64-.26h.52c1.95,0,3.12,1.69,3.12,3.38,0,3.38-3.12,4.03-8.32,4.03-16.64,0-16.64-14.17-16.64-19.89,0-8.32.26-24.18.26-30.55v-2.08c0-1.3-.39-1.56-1.3-1.56h-7.67c-2.47,0-3.64-1.69-3.64-3.38s1.17-3.38,3.64-3.38h7.54c1.17,0,1.43-.13,1.43-1.3,0-.52.13-6.76.13-11.31v-3.25c0-2.47,1.95-3.77,3.77-3.77,1.95,0,3.77,1.3,3.77,4.03,0,3.77-.26,14.17-.26,14.17,0,1.43.26,1.43,1.95,1.43h11.57c2.47,0,3.64,1.69,3.64,3.38s-1.17,3.38-3.64,3.38h-11.44Z"/>
      <path class="cls-1" d="M453.93,97.22c-16.51,0-29.38-12.35-29.38-30.68s13.65-31.46,28.99-31.46c17.81,0,25.61,13.91,25.61,21.32,0,4.94-2.99,8.58-9.49,8.71-2.99.13-7.41.13-12.22.13-9.75,0-20.8-.13-23.66-.13-1.3,0-1.56.52-1.56,2.34,0,14.17,9.36,22.88,21.84,22.88,9.49,0,14.82-4.03,18.85-8.58.78-.78,1.69-1.17,2.6-1.17,1.95,0,3.9,1.69,3.9,3.77,0,2.99-9.1,12.87-25.48,12.87ZM453.67,41.58c-12.48,0-20.41,11.18-20.41,15.99,0,1.3,1.17,1.3,16.25,1.3,6.76,0,14.04,0,17.68-.13,3.12-.13,4.29-1.56,4.29-3.64,0-3.77-4.55-13.52-17.81-13.52Z"/>
      <path class="cls-1" d="M562.74,97.09c-20.02,0-30.55-15.21-30.55-30.68,0-17.29,12.22-31.85,29.9-31.85,13.13,0,21.71,7.15,21.71,11.05,0,2.21-1.82,3.9-3.77,3.9-1.17,0-2.34-.52-3.38-1.82-3.38-4.29-8.97-6.37-14.56-6.37-12.74,0-22.23,10.53-22.23,24.44,0,12.22,8.06,24.18,22.75,24.18,6.5,0,12.87-2.47,16.38-7.41,1.04-1.43,2.21-1.95,3.38-1.95,2.21,0,4.16,1.82,4.16,4.03,0,3.77-9.75,12.48-23.79,12.48Z"/>
      <path class="cls-1" d="M640.35,86.56c-3.9,6.63-12.61,10.66-20.54,10.66-13.13,0-21.06-8.97-21.06-17.94,0-6.5,4.29-13.13,13.91-16.12,8.06-2.47,18.59-4.42,24.05-5.33,1.56-.26,2.08-.65,2.08-1.56,0-.65.13-1.43.13-2.08,0-7.15-2.99-12.74-13.52-12.74-7.02,0-12.22,2.99-15.21,6.24-.78.91-1.82,1.3-2.73,1.3-1.95,0-3.64-1.43-3.64-3.51,0-4.94,10.92-10.53,22.1-10.53,12.09,0,20.28,5.33,20.28,19.89,0,1.17,0,2.34-.13,3.64-.39,4.29-.65,10.14-.65,14.43,0,10.79,2.08,13.39,7.28,16.12,1.04.52,1.43,1.56,1.43,2.6,0,1.82-1.56,4.03-3.9,4.03-.78,0-7.28-1.82-9.1-8.97-.13-.39-.13-.52-.39-.52,0,0-.26.13-.39.39ZM638.53,70.31c0-1.43.13-2.86.13-4.42,0-1.04-.39-1.43-1.3-1.43h-.39c-20.41,3.25-31.2,5.85-31.2,14.95,0,5.46,5.2,10.92,13.91,10.92,11.96,0,18.85-8.97,18.85-20.02Z"/>
      <path class="cls-1" d="M676.1,92.02c.13-3.77.13-10.14.13-17.16,0-13.91-.13-29.77-.13-29.77,0-1.56-.13-1.69-1.69-1.69h-8.32c-2.21,0-3.38-1.69-3.38-3.51s1.17-3.64,3.38-3.64h8.32c1.43,0,1.82-.13,1.82-1.43s-.13-4.81-.13-8.97v-3.38c.39-14.04,10.79-21.71,20.93-21.71,1.3,0,5.85.13,5.85,3.64,0,1.82-1.43,3.51-3.9,3.51h-1.56c-8.45,0-13.39,6.89-13.78,15.34v4.03c0,3.12,0,5.98.13,7.67,0,1.17.26,1.3,1.56,1.3h13.52c2.21,0,3.38,1.82,3.38,3.51,0,1.82-1.17,3.64-3.38,3.64h-13.65c-1.3,0-1.43.13-1.43,1.69,0,0,.26,36.14.26,46.93,0,2.73-1.95,4.16-4.03,4.16-1.95,0-3.9-1.3-3.9-4.03v-.13Z"/>
      <path class="cls-1" d="M741.88,97.22c-16.51,0-29.38-12.35-29.38-30.68s13.65-31.46,28.99-31.46c17.81,0,25.61,13.91,25.61,21.32,0,4.94-2.99,8.58-9.49,8.71-2.99.13-7.41.13-12.22.13-9.75,0-20.8-.13-23.66-.13-1.3,0-1.56.52-1.56,2.34,0,14.17,9.36,22.88,21.84,22.88,9.49,0,14.82-4.03,18.85-8.58.78-.78,1.69-1.17,2.6-1.17,1.95,0,3.9,1.69,3.9,3.77,0,2.99-9.1,12.87-25.48,12.87ZM741.62,41.58c-12.48,0-20.41,11.18-20.41,15.99,0,1.3,1.17,1.3,16.25,1.3,6.76,0,14.04,0,17.68-.13,3.12-.13,4.29-1.56,4.29-3.64,0-3.77-4.55-13.52-17.81-13.52Z"/>
      <path class="cls-1" d="M840.67,97.35c-13.52,0-21.06-7.8-21.06-11.44,0-2.21,1.95-3.77,3.9-3.77,1.17,0,2.34.52,3.25,1.69,2.86,4.03,7.54,6.5,13.91,6.5,7.41,0,13-4.16,13-9.75,0-6.89-5.59-9.49-20.67-16.25-7.15-3.12-10.53-8.84-10.53-14.43,0-7.67,6.24-14.95,17.68-14.95s18.07,5.59,18.07,9.1c0,2.08-1.69,3.77-3.77,3.77-1.04,0-2.34-.52-3.38-1.82-2.08-2.47-5.33-4.55-10.92-4.55-6.63,0-10.4,3.9-10.4,8.19,0,3.12,2.08,6.37,6.37,8.45,3.64,1.69,9.62,4.16,13.65,6.24,8.06,4.16,11.57,10.27,11.57,16.25,0,7.41-6.11,16.77-20.67,16.77Z"/>
      <path class="cls-1" d="M885.65,12.85c-6.11,0-6.11-5.59-6.11-6.37,0-4.03,3.64-5.98,6.24-5.98,1.95,0,6.37,1.04,6.37,5.98,0,4.03-3.25,6.37-6.5,6.37ZM889.94,92.54c0,2.6-2.08,3.9-4.16,3.9-1.95,0-4.03-1.3-4.03-3.9,0-11.05.13-26.26.13-38.35,0-6.11,0-11.44-.13-15.08v-.13c0-2.34,2.08-3.64,4.16-3.64,1.95,0,4.03,1.17,4.03,3.51v.13c-.13,5.46-.26,16.12-.26,27.3,0,9.23.13,18.85.26,26.13v.13Z"/>
      <path class="cls-1" d="M928.55,43.14c-2.08,0-2.08.26-2.08,1.95,0,4.94-.39,18.33-.39,27.95,0,10.14.26,17.03,10.4,17.03,1.17,0,2.34-.13,3.64-.26h.52c1.95,0,3.12,1.69,3.12,3.38,0,3.38-3.12,4.03-8.32,4.03-16.64,0-16.64-14.17-16.64-19.89,0-8.32.26-24.18.26-30.55v-2.08c0-1.3-.39-1.56-1.3-1.56h-7.67c-2.47,0-3.64-1.69-3.64-3.38s1.17-3.38,3.64-3.38h7.54c1.17,0,1.43-.13,1.43-1.3,0-.52.13-6.76.13-11.31v-3.25c0-2.47,1.95-3.77,3.77-3.77,1.95,0,3.77,1.3,3.77,4.03,0,3.77-.26,14.17-.26,14.17,0,1.43.26,1.43,1.95,1.43h11.57c2.47,0,3.64,1.69,3.64,3.38s-1.17,3.38-3.64,3.38h-11.44Z"/>
      <path class="cls-1" d="M985.62,97.22c-16.51,0-29.38-12.35-29.38-30.68s13.65-31.46,28.99-31.46c17.81,0,25.61,13.91,25.61,21.32,0,4.94-2.99,8.58-9.49,8.71-2.99.13-7.41.13-12.22.13-9.75,0-20.8-.13-23.66-.13-1.3,0-1.56.52-1.56,2.34,0,14.17,9.36,22.88,21.84,22.88,9.49,0,14.82-4.03,18.85-8.58.78-.78,1.69-1.17,2.6-1.17,1.95,0,3.9,1.69,3.9,3.77,0,2.99-9.1,12.87-25.48,12.87ZM985.36,41.58c-12.48,0-20.41,11.18-20.41,15.99,0,1.3,1.17,1.3,16.25,1.3,6.76,0,14.04,0,17.68-.13,3.12-.13,4.29-1.56,4.29-3.64,0-3.77-4.55-13.52-17.81-13.52Z"/>
      <path class="cls-1" d="M1094.43,97.09c-20.02,0-30.55-15.21-30.55-30.68,0-17.29,12.22-31.85,29.9-31.85,13.13,0,21.71,7.15,21.71,11.05,0,2.21-1.82,3.9-3.77,3.9-1.17,0-2.34-.52-3.38-1.82-3.38-4.29-8.97-6.37-14.56-6.37-12.74,0-22.23,10.53-22.23,24.44,0,12.22,8.06,24.18,22.75,24.18,6.5,0,12.87-2.47,16.38-7.41,1.04-1.43,2.21-1.95,3.38-1.95,2.21,0,4.16,1.82,4.16,4.03,0,3.77-9.75,12.48-23.79,12.48Z"/>
      <path class="cls-1" d="M1172.04,86.56c-3.9,6.63-12.61,10.66-20.54,10.66-13.13,0-21.06-8.97-21.06-17.94,0-6.5,4.29-13.13,13.91-16.12,8.06-2.47,18.59-4.42,24.05-5.33,1.56-.26,2.08-.65,2.08-1.56,0-.65.13-1.43.13-2.08,0-7.15-2.99-12.74-13.52-12.74-7.02,0-12.22,2.99-15.21,6.24-.78.91-1.82,1.3-2.73,1.3-1.95,0-3.64-1.43-3.64-3.51,0-4.94,10.92-10.53,22.1-10.53,12.09,0,20.28,5.33,20.28,19.89,0,1.17,0,2.34-.13,3.64-.39,4.29-.65,10.14-.65,14.43,0,10.79,2.08,13.39,7.28,16.12,1.04.52,1.43,1.56,1.43,2.6,0,1.82-1.56,4.03-3.9,4.03-.78,0-7.28-1.82-9.1-8.97-.13-.39-.13-.52-.39-.52,0,0-.26.13-.39.39ZM1170.22,70.31c0-1.43.13-2.86.13-4.42,0-1.04-.39-1.43-1.3-1.43h-.39c-20.41,3.25-31.2,5.85-31.2,14.95,0,5.46,5.2,10.92,13.91,10.92,11.96,0,18.85-8.97,18.85-20.02Z"/>
      <path class="cls-1" d="M1207.79,92.02c.13-3.77.13-10.14.13-17.16,0-13.91-.13-29.77-.13-29.77,0-1.56-.13-1.69-1.69-1.69h-8.32c-2.21,0-3.38-1.69-3.38-3.51s1.17-3.64,3.38-3.64h8.32c1.43,0,1.82-.13,1.82-1.43s-.13-4.81-.13-8.97v-3.38c.39-14.04,10.79-21.71,20.93-21.71,1.3,0,5.85.13,5.85,3.64,0,1.82-1.43,3.51-3.9,3.51h-1.56c-8.45,0-13.39,6.89-13.78,15.34v4.03c0,3.12,0,5.98.13,7.67,0,1.17.26,1.3,1.56,1.3h13.52c2.21,0,3.38,1.82,3.38,3.51,0,1.82-1.17,3.64-3.38,3.64h-13.65c-1.3,0-1.43.13-1.43,1.69,0,0,.26,36.14.26,46.93,0,2.73-1.95,4.16-4.03,4.16-1.95,0-3.9-1.3-3.9-4.03v-.13Z"/>
      <path class="cls-1" d="M1273.57,97.22c-16.51,0-29.38-12.35-29.38-30.68s13.65-31.46,28.99-31.46c17.81,0,25.61,13.91,25.61,21.32,0,4.94-2.99,8.58-9.49,8.71-2.99.13-7.41.13-12.22.13-9.75,0-20.8-.13-23.66-.13-1.3,0-1.56.52-1.56,2.34,0,14.17,9.36,22.88,21.84,22.88,9.49,0,14.82-4.03,18.85-8.58.78-.78,1.69-1.17,2.6-1.17,1.95,0,3.9,1.69,3.9,3.77,0,2.99-9.1,12.87-25.48,12.87ZM1273.31,41.58c-12.48,0-20.41,11.18-20.41,15.99,0,1.3,1.17,1.3,16.25,1.3,6.76,0,14.04,0,17.68-.13,3.12-.13,4.29-1.56,4.29-3.64,0-3.77-4.55-13.52-17.81-13.52Z"/>
      <path class="cls-1" d="M1372.36,97.35c-13.52,0-21.06-7.8-21.06-11.44,0-2.21,1.95-3.77,3.9-3.77,1.17,0,2.34.52,3.25,1.69,2.86,4.03,7.54,6.5,13.91,6.5,7.41,0,13-4.16,13-9.75,0-6.89-5.59-9.49-20.67-16.25-7.15-3.12-10.53-8.84-10.53-14.43,0-7.67,6.24-14.95,17.68-14.95s18.07,5.59,18.07,9.1c0,2.08-1.69,3.77-3.77,3.77-1.04,0-2.34-.52-3.38-1.82-2.08-2.47-5.33-4.55-10.92-4.55-6.63,0-10.4,3.9-10.4,8.19,0,3.12,2.08,6.37,6.37,8.45,3.64,1.69,9.62,4.16,13.65,6.24,8.06,4.16,11.57,10.27,11.57,16.25,0,7.41-6.11,16.77-20.67,16.77Z"/>
      <path class="cls-1" d="M1417.34,12.85c-6.11,0-6.11-5.59-6.11-6.37,0-4.03,3.64-5.98,6.24-5.98,1.95,0,6.37,1.04,6.37,5.98,0,4.03-3.25,6.37-6.5,6.37ZM1421.63,92.54c0,2.6-2.08,3.9-4.16,3.9-1.95,0-4.03-1.3-4.03-3.9,0-11.05.13-26.26.13-38.35,0-6.11,0-11.44-.13-15.08v-.13c0-2.34,2.08-3.64,4.16-3.64,1.95,0,4.03,1.17,4.03,3.51v.13c-.13,5.46-.26,16.12-.26,27.3,0,9.23.13,18.85.26,26.13v.13Z"/>
      <path class="cls-1" d="M1460.24,43.14c-2.08,0-2.08.26-2.08,1.95,0,4.94-.39,18.33-.39,27.95,0,10.14.26,17.03,10.4,17.03,1.17,0,2.34-.13,3.64-.26h.52c1.95,0,3.12,1.69,3.12,3.38,0,3.38-3.12,4.03-8.32,4.03-16.64,0-16.64-14.17-16.64-19.89,0-8.32.26-24.18.26-30.55v-2.08c0-1.3-.39-1.56-1.3-1.56h-7.67c-2.47,0-3.64-1.69-3.64-3.38s1.17-3.38,3.64-3.38h7.54c1.17,0,1.43-.13,1.43-1.3,0-.52.13-6.76.13-11.31v-3.25c0-2.47,1.95-3.77,3.77-3.77,1.95,0,3.77,1.3,3.77,4.03,0,3.77-.26,14.17-.26,14.17,0,1.43.26,1.43,1.95,1.43h11.57c2.47,0,3.64,1.69,3.64,3.38s-1.17,3.38-3.64,3.38h-11.44Z"/>
      <path class="cls-1" d="M1517.31,97.22c-16.51,0-29.38-12.35-29.38-30.68s13.65-31.46,28.99-31.46c17.81,0,25.61,13.91,25.61,21.32,0,4.94-2.99,8.58-9.49,8.71-2.99.13-7.41.13-12.22.13-9.75,0-20.8-.13-23.66-.13-1.3,0-1.56.52-1.56,2.34,0,14.17,9.36,22.88,21.84,22.88,9.49,0,14.82-4.03,18.85-8.58.78-.78,1.69-1.17,2.6-1.17,1.95,0,3.9,1.69,3.9,3.77,0,2.99-9.1,12.87-25.48,12.87ZM1517.05,41.58c-12.48,0-20.41,11.18-20.41,15.99,0,1.3,1.17,1.3,16.25,1.3,6.76,0,14.04,0,17.68-.13,3.12-.13,4.29-1.56,4.29-3.64,0-3.77-4.55-13.52-17.81-13.52Z"/>
      <path class="cls-1" d="M1626.12,97.09c-20.02,0-30.55-15.21-30.55-30.68,0-17.29,12.22-31.85,29.9-31.85,13.13,0,21.71,7.15,21.71,11.05,0,2.21-1.82,3.9-3.77,3.9-1.17,0-2.34-.52-3.38-1.82-3.38-4.29-8.97-6.37-14.56-6.37-12.74,0-22.23,10.53-22.23,24.44,0,12.22,8.06,24.18,22.75,24.18,6.5,0,12.87-2.47,16.38-7.41,1.04-1.43,2.21-1.95,3.38-1.95,2.21,0,4.16,1.82,4.16,4.03,0,3.77-9.75,12.48-23.79,12.48Z"/>
      <path class="cls-1" d="M1703.73,86.56c-3.9,6.63-12.61,10.66-20.54,10.66-13.13,0-21.06-8.97-21.06-17.94,0-6.5,4.29-13.13,13.91-16.12,8.06-2.47,18.59-4.42,24.05-5.33,1.56-.26,2.08-.65,2.08-1.56,0-.65.13-1.43.13-2.08,0-7.15-2.99-12.74-13.52-12.74-7.02,0-12.22,2.99-15.21,6.24-.78.91-1.82,1.3-2.73,1.3-1.95,0-3.64-1.43-3.64-3.51,0-4.94,10.92-10.53,22.1-10.53,12.09,0,20.28,5.33,20.28,19.89,0,1.17,0,2.34-.13,3.64-.39,4.29-.65,10.14-.65,14.43,0,10.79,2.08,13.39,7.28,16.12,1.04.52,1.43,1.56,1.43,2.6,0,1.82-1.56,4.03-3.9,4.03-.78,0-7.28-1.82-9.1-8.97-.13-.39-.13-.52-.39-.52,0,0-.26.13-.39.39ZM1701.91,70.31c0-1.43.13-2.86.13-4.42,0-1.04-.39-1.43-1.3-1.43h-.39c-20.41,3.25-31.2,5.85-31.2,14.95,0,5.46,5.2,10.92,13.91,10.92,11.96,0,18.85-8.97,18.85-20.02Z"/>
      <path class="cls-1" d="M1739.48,92.02c.13-3.77.13-10.14.13-17.16,0-13.91-.13-29.77-.13-29.77,0-1.56-.13-1.69-1.69-1.69h-8.32c-2.21,0-3.38-1.69-3.38-3.51s1.17-3.64,3.38-3.64h8.32c1.43,0,1.82-.13,1.82-1.43s-.13-4.81-.13-8.97v-3.38c.39-14.04,10.79-21.71,20.93-21.71,1.3,0,5.85.13,5.85,3.64,0,1.82-1.43,3.51-3.9,3.51h-1.56c-8.45,0-13.39,6.89-13.78,15.34v4.03c0,3.12,0,5.98.13,7.67,0,1.17.26,1.3,1.56,1.3h13.52c2.21,0,3.38,1.82,3.38,3.51,0,1.82-1.17,3.64-3.38,3.64h-13.65c-1.3,0-1.43.13-1.43,1.69,0,0,.26,36.14.26,46.93,0,2.73-1.95,4.16-4.03,4.16-1.95,0-3.9-1.3-3.9-4.03v-.13Z"/>
      <path class="cls-1" d="M1805.25,97.22c-16.51,0-29.38-12.35-29.38-30.68s13.65-31.46,28.99-31.46c17.81,0,25.61,13.91,25.61,21.32,0,4.94-2.99,8.58-9.49,8.71-2.99.13-7.41.13-12.22.13-9.75,0-20.8-.13-23.66-.13-1.3,0-1.56.52-1.56,2.34,0,14.17,9.36,22.88,21.84,22.88,9.49,0,14.82-4.03,18.85-8.58.78-.78,1.69-1.17,2.6-1.17,1.95,0,3.9,1.69,3.9,3.77,0,2.99-9.1,12.87-25.48,12.87ZM1805,41.58c-12.48,0-20.41,11.18-20.41,15.99,0,1.3,1.17,1.3,16.25,1.3,6.76,0,14.04,0,17.68-.13,3.12-.13,4.29-1.56,4.29-3.64,0-3.77-4.55-13.52-17.81-13.52Z"/>
      <path class="cls-1" d="M1914.06,97.09c-20.02,0-30.55-15.21-30.55-30.68,0-17.29,12.22-31.85,29.9-31.85,13.13,0,21.71,7.15,21.71,11.05,0,2.21-1.82,3.9-3.77,3.9-1.17,0-2.34-.52-3.38-1.82-3.38-4.29-8.97-6.37-14.56-6.37-12.74,0-22.23,10.53-22.23,24.44,0,12.22,8.06,24.18,22.75,24.18,6.5,0,12.87-2.47,16.38-7.41,1.04-1.43,2.21-1.95,3.38-1.95,2.21,0,4.16,1.82,4.16,4.03,0,3.77-9.75,12.48-23.79,12.48Z"/>
      <path class="cls-1" d="M1991.67,86.56c-3.9,6.63-12.61,10.66-20.54,10.66-13.13,0-21.06-8.97-21.06-17.94,0-6.5,4.29-13.13,13.91-16.12,8.06-2.47,18.59-4.42,24.05-5.33,1.56-.26,2.08-.65,2.08-1.56,0-.65.13-1.43.13-2.08,0-7.15-2.99-12.74-13.52-12.74-7.02,0-12.22,2.99-15.21,6.24-.78.91-1.82,1.3-2.73,1.3-1.95,0-3.64-1.43-3.64-3.51,0-4.94,10.92-10.53,22.1-10.53,12.09,0,20.28,5.33,20.28,19.89,0,1.17,0,2.34-.13,3.64-.39,4.29-.65,10.14-.65,14.43,0,10.79,2.08,13.39,7.28,16.12,1.04.52,1.43,1.56,1.43,2.6,0,1.82-1.56,4.03-3.9,4.03-.78,0-7.28-1.82-9.1-8.97-.13-.39-.13-.52-.39-.52,0,0-.26.13-.39.39ZM1989.85,70.31c0-1.43.13-2.86.13-4.42,0-1.04-.39-1.43-1.3-1.43h-.39c-20.41,3.25-31.2,5.85-31.2,14.95,0,5.46,5.2,10.92,13.91,10.92,11.96,0,18.85-8.97,18.85-20.02Z"/>
      <path class="cls-1" d="M2027.42,92.02c.13-3.77.13-10.14.13-17.16,0-13.91-.13-29.77-.13-29.77,0-1.56-.13-1.69-1.69-1.69h-8.32c-2.21,0-3.38-1.69-3.38-3.51s1.17-3.64,3.38-3.64h8.32c1.43,0,1.82-.13,1.82-1.43s-.13-4.81-.13-8.97v-3.38c.39-14.04,10.79-21.71,20.93-21.71,1.3,0,5.85.13,5.85,3.64,0,1.82-1.43,3.51-3.9,3.51h-1.56c-8.45,0-13.39,6.89-13.78,15.34v4.03c0,3.12,0,5.98.13,7.67,0,1.17.26,1.3,1.56,1.3h13.52c2.21,0,3.38,1.82,3.38,3.51,0,1.82-1.17,3.64-3.38,3.64h-13.65c-1.3,0-1.43.13-1.43,1.69,0,0,.26,36.14.26,46.93,0,2.73-1.95,4.16-4.03,4.16-1.95,0-3.9-1.3-3.9-4.03v-.13Z"/>
      <path class="cls-1" d="M2093.2,97.22c-16.51,0-29.38-12.35-29.38-30.68s13.65-31.46,28.99-31.46c17.81,0,25.61,13.91,25.61,21.32,0,4.94-2.99,8.58-9.49,8.71-2.99.13-7.41.13-12.22.13-9.75,0-20.8-.13-23.66-.13-1.3,0-1.56.52-1.56,2.34,0,14.17,9.36,22.88,21.84,22.88,9.49,0,14.82-4.03,18.85-8.58.78-.78,1.69-1.17,2.6-1.17,1.95,0,3.9,1.69,3.9,3.77,0,2.99-9.1,12.87-25.48,12.87ZM2092.94,41.58c-12.48,0-20.41,11.18-20.41,15.99,0,1.3,1.17,1.3,16.25,1.3,6.76,0,14.04,0,17.68-.13,3.12-.13,4.29-1.56,4.29-3.64,0-3.77-4.55-13.52-17.81-13.52Z"/>
      <path class="cls-1" d="M2192,97.35c-13.52,0-21.06-7.8-21.06-11.44,0-2.21,1.95-3.77,3.9-3.77,1.17,0,2.34.52,3.25,1.69,2.86,4.03,7.54,6.5,13.91,6.5,7.41,0,13-4.16,13-9.75,0-6.89-5.59-9.49-20.67-16.25-7.15-3.12-10.53-8.84-10.53-14.43,0-7.67,6.24-14.95,17.68-14.95s18.07,5.59,18.07,9.1c0,2.08-1.69,3.77-3.77,3.77-1.04,0-2.34-.52-3.38-1.82-2.08-2.47-5.33-4.55-10.92-4.55-6.63,0-10.4,3.9-10.4,8.19,0,3.12,2.08,6.37,6.37,8.45,3.64,1.69,9.62,4.16,13.65,6.24,8.06,4.16,11.57,10.27,11.57,16.25,0,7.41-6.11,16.77-20.67,16.77Z"/>
      <path class="cls-1" d="M2236.97,12.85c-6.11,0-6.11-5.59-6.11-6.37,0-4.03,3.64-5.98,6.24-5.98,1.95,0,6.37,1.04,6.37,5.98,0,4.03-3.25,6.37-6.5,6.37ZM2241.26,92.54c0,2.6-2.08,3.9-4.16,3.9-1.95,0-4.03-1.3-4.03-3.9,0-11.05.13-26.26.13-38.35,0-6.11,0-11.44-.13-15.08v-.13c0-2.34,2.08-3.64,4.16-3.64,1.95,0,4.03,1.17,4.03,3.51v.13c-.13,5.46-.26,16.12-.26,27.3,0,9.23.13,18.85.26,26.13v.13Z"/>
      <path class="cls-1" d="M2279.87,43.14c-2.08,0-2.08.26-2.08,1.95,0,4.94-.39,18.33-.39,27.95,0,10.14.26,17.03,10.4,17.03,1.17,0,2.34-.13,3.64-.26h.52c1.95,0,3.12,1.69,3.12,3.38,0,3.38-3.12,4.03-8.32,4.03-16.64,0-16.64-14.17-16.64-19.89,0-8.32.26-24.18.26-30.55v-2.08c0-1.3-.39-1.56-1.3-1.56h-7.67c-2.47,0-3.64-1.69-3.64-3.38s1.17-3.38,3.64-3.38h7.54c1.17,0,1.43-.13,1.43-1.3,0-.52.13-6.76.13-11.31v-3.25c0-2.47,1.95-3.77,3.77-3.77,1.95,0,3.77,1.3,3.77,4.03,0,3.77-.26,14.17-.26,14.17,0,1.43.26,1.43,1.95,1.43h11.57c2.47,0,3.64,1.69,3.64,3.38s-1.17,3.38-3.64,3.38h-11.44Z"/>
      <path class="cls-1" d="M2336.94,97.22c-16.51,0-29.38-12.35-29.38-30.68s13.65-31.46,28.99-31.46c17.81,0,25.61,13.91,25.61,21.32,0,4.94-2.99,8.58-9.49,8.71-2.99.13-7.41.13-12.22.13-9.75,0-20.8-.13-23.66-.13-1.3,0-1.56.52-1.56,2.34,0,14.17,9.36,22.88,21.84,22.88,9.49,0,14.82-4.03,18.85-8.58.78-.78,1.69-1.17,2.6-1.17,1.95,0,3.9,1.69,3.9,3.77,0,2.99-9.1,12.87-25.48,12.87ZM2336.68,41.58c-12.48,0-20.41,11.18-20.41,15.99,0,1.3,1.17,1.3,16.25,1.3,6.76,0,14.04,0,17.68-.13,3.12-.13,4.29-1.56,4.29-3.64,0-3.77-4.55-13.52-17.81-13.52Z"/>
      <path class="cls-1" d="M2445.75,97.09c-20.02,0-30.55-15.21-30.55-30.68,0-17.29,12.22-31.85,29.9-31.85,13.13,0,21.71,7.15,21.71,11.05,0,2.21-1.82,3.9-3.77,3.9-1.17,0-2.34-.52-3.38-1.82-3.38-4.29-8.97-6.37-14.56-6.37-12.74,0-22.23,10.53-22.23,24.44,0,12.22,8.06,24.18,22.75,24.18,6.5,0,12.87-2.47,16.38-7.41,1.04-1.43,2.21-1.95,3.38-1.95,2.21,0,4.16,1.82,4.16,4.03,0,3.77-9.75,12.48-23.79,12.48Z"/>
      <path class="cls-1" d="M2523.36,86.56c-3.9,6.63-12.61,10.66-20.54,10.66-13.13,0-21.06-8.97-21.06-17.94,0-6.5,4.29-13.13,13.91-16.12,8.06-2.47,18.59-4.42,24.05-5.33,1.56-.26,2.08-.65,2.08-1.56,0-.65.13-1.43.13-2.08,0-7.15-2.99-12.74-13.52-12.74-7.02,0-12.22,2.99-15.21,6.24-.78.91-1.82,1.3-2.73,1.3-1.95,0-3.64-1.43-3.64-3.51,0-4.94,10.92-10.53,22.1-10.53,12.09,0,20.28,5.33,20.28,19.89,0,1.17,0,2.34-.13,3.64-.39,4.29-.65,10.14-.65,14.43,0,10.79,2.08,13.39,7.28,16.12,1.04.52,1.43,1.56,1.43,2.6,0,1.82-1.56,4.03-3.9,4.03-.78,0-7.28-1.82-9.1-8.97-.13-.39-.13-.52-.39-.52,0,0-.26.13-.39.39ZM2521.54,70.31c0-1.43.13-2.86.13-4.42,0-1.04-.39-1.43-1.3-1.43h-.39c-20.41,3.25-31.2,5.85-31.2,14.95,0,5.46,5.2,10.92,13.91,10.92,11.96,0,18.85-8.97,18.85-20.02Z"/>
      <path class="cls-1" d="M2559.11,92.02c.13-3.77.13-10.14.13-17.16,0-13.91-.13-29.77-.13-29.77,0-1.56-.13-1.69-1.69-1.69h-8.32c-2.21,0-3.38-1.69-3.38-3.51s1.17-3.64,3.38-3.64h8.32c1.43,0,1.82-.13,1.82-1.43s-.13-4.81-.13-8.97v-3.38c.39-14.04,10.79-21.71,20.93-21.71,1.3,0,5.85.13,5.85,3.64,0,1.82-1.43,3.51-3.9,3.51h-1.56c-8.45,0-13.39,6.89-13.78,15.34v4.03c0,3.12,0,5.98.13,7.67,0,1.17.26,1.3,1.56,1.3h13.52c2.21,0,3.38,1.82,3.38,3.51,0,1.82-1.17,3.64-3.38,3.64h-13.65c-1.3,0-1.43.13-1.43,1.69,0,0,.26,36.14.26,46.93,0,2.73-1.95,4.16-4.03,4.16-1.95,0-3.9-1.3-3.9-4.03v-.13Z"/>
      <path class="cls-1" d="M2624.89,97.22c-16.51,0-29.38-12.35-29.38-30.68s13.65-31.46,28.99-31.46c17.81,0,25.61,13.91,25.61,21.32,0,4.94-2.99,8.58-9.49,8.71-2.99.13-7.41.13-12.22.13-9.75,0-20.8-.13-23.66-.13-1.3,0-1.56.52-1.56,2.34,0,14.17,9.36,22.88,21.84,22.88,9.49,0,14.82-4.03,18.85-8.58.78-.78,1.69-1.17,2.6-1.17,1.95,0,3.9,1.69,3.9,3.77,0,2.99-9.1,12.87-25.48,12.87ZM2624.63,41.58c-12.48,0-20.41,11.18-20.41,15.99,0,1.3,1.17,1.3,16.25,1.3,6.76,0,14.04,0,17.68-.13,3.12-.13,4.29-1.56,4.29-3.64,0-3.77-4.55-13.52-17.81-13.52Z"/>
      <path class="cls-1" d="M2723.68,97.35c-13.52,0-21.06-7.8-21.06-11.44,0-2.21,1.95-3.77,3.9-3.77,1.17,0,2.34.52,3.25,1.69,2.86,4.03,7.54,6.5,13.91,6.5,7.41,0,13-4.16,13-9.75,0-6.89-5.59-9.49-20.67-16.25-7.15-3.12-10.53-8.84-10.53-14.43,0-7.67,6.24-14.95,17.68-14.95s18.07,5.59,18.07,9.1c0,2.08-1.69,3.77-3.77,3.77-1.04,0-2.34-.52-3.38-1.82-2.08-2.47-5.33-4.55-10.92-4.55-6.63,0-10.4,3.9-10.4,8.19,0,3.12,2.08,6.37,6.37,8.45,3.64,1.69,9.62,4.16,13.65,6.24,8.06,4.16,11.57,10.27,11.57,16.25,0,7.41-6.11,16.77-20.67,16.77Z"/>
      <path class="cls-1" d="M2768.66,12.85c-6.11,0-6.11-5.59-6.11-6.37,0-4.03,3.64-5.98,6.24-5.98,1.95,0,6.37,1.04,6.37,5.98,0,4.03-3.25,6.37-6.5,6.37ZM2772.95,92.54c0,2.6-2.08,3.9-4.16,3.9-1.95,0-4.03-1.3-4.03-3.9,0-11.05.13-26.26.13-38.35,0-6.11,0-11.44-.13-15.08v-.13c0-2.34,2.08-3.64,4.16-3.64,1.95,0,4.03,1.17,4.03,3.51v.13c-.13,5.46-.26,16.12-.26,27.3,0,9.23.13,18.85.26,26.13v.13Z"/>
      <path class="cls-1" d="M2811.56,43.14c-2.08,0-2.08.26-2.08,1.95,0,4.94-.39,18.33-.39,27.95,0,10.14.26,17.03,10.4,17.03,1.17,0,2.34-.13,3.64-.26h.52c1.95,0,3.12,1.69,3.12,3.38,0,3.38-3.12,4.03-8.32,4.03-16.64,0-16.64-14.17-16.64-19.89,0-8.32.26-24.18.26-30.55v-2.08c0-1.3-.39-1.56-1.3-1.56h-7.67c-2.47,0-3.64-1.69-3.64-3.38s1.17-3.38,3.64-3.38h7.54c1.17,0,1.43-.13,1.43-1.3,0-.52.13-6.76.13-11.31v-3.25c0-2.47,1.95-3.77,3.77-3.77,1.95,0,3.77,1.3,3.77,4.03,0,3.77-.26,14.17-.26,14.17,0,1.43.26,1.43,1.95,1.43h11.57c2.47,0,3.64,1.69,3.64,3.38s-1.17,3.38-3.64,3.38h-11.44Z"/>
      <path class="cls-1" d="M2868.63,97.22c-16.51,0-29.38-12.35-29.38-30.68s13.65-31.46,28.99-31.46c17.81,0,25.61,13.91,25.61,21.32,0,4.94-2.99,8.58-9.49,8.71-2.99.13-7.41.13-12.22.13-9.75,0-20.8-.13-23.66-.13-1.3,0-1.56.52-1.56,2.34,0,14.17,9.36,22.88,21.84,22.88,9.49,0,14.82-4.03,18.85-8.58.78-.78,1.69-1.17,2.6-1.17,1.95,0,3.9,1.69,3.9,3.77,0,2.99-9.1,12.87-25.48,12.87ZM2868.37,41.58c-12.48,0-20.41,11.18-20.41,15.99,0,1.3,1.17,1.3,16.25,1.3,6.76,0,14.04,0,17.68-.13,3.12-.13,4.29-1.56,4.29-3.64,0-3.77-4.55-13.52-17.81-13.52Z"/>
      <path class="cls-1" d="M2977.44,97.09c-20.02,0-30.55-15.21-30.55-30.68,0-17.29,12.22-31.85,29.9-31.85,13.13,0,21.71,7.15,21.71,11.05,0,2.21-1.82,3.9-3.77,3.9-1.17,0-2.34-.52-3.38-1.82-3.38-4.29-8.97-6.37-14.56-6.37-12.74,0-22.23,10.53-22.23,24.44,0,12.22,8.06,24.18,22.75,24.18,6.5,0,12.87-2.47,16.38-7.41,1.04-1.43,2.21-1.95,3.38-1.95,2.21,0,4.16,1.82,4.16,4.03,0,3.77-9.75,12.48-23.79,12.48Z"/>
      <path class="cls-1" d="M3055.05,86.56c-3.9,6.63-12.61,10.66-20.54,10.66-13.13,0-21.06-8.97-21.06-17.94,0-6.5,4.29-13.13,13.91-16.12,8.06-2.47,18.59-4.42,24.05-5.33,1.56-.26,2.08-.65,2.08-1.56,0-.65.13-1.43.13-2.08,0-7.15-2.99-12.74-13.52-12.74-7.02,0-12.22,2.99-15.21,6.24-.78.91-1.82,1.3-2.73,1.3-1.95,0-3.64-1.43-3.64-3.51,0-4.94,10.92-10.53,22.1-10.53,12.09,0,20.28,5.33,20.28,19.89,0,1.17,0,2.34-.13,3.64-.39,4.29-.65,10.14-.65,14.43,0,10.79,2.08,13.39,7.28,16.12,1.04.52,1.43,1.56,1.43,2.6,0,1.82-1.56,4.03-3.9,4.03-.78,0-7.28-1.82-9.1-8.97-.13-.39-.13-.52-.39-.52,0,0-.26.13-.39.39ZM3053.23,70.31c0-1.43.13-2.86.13-4.42,0-1.04-.39-1.43-1.3-1.43h-.39c-20.41,3.25-31.2,5.85-31.2,14.95,0,5.46,5.2,10.92,13.91,10.92,11.96,0,18.85-8.97,18.85-20.02Z"/>
      <path class="cls-1" d="M3090.8,92.02c.13-3.77.13-10.14.13-17.16,0-13.91-.13-29.77-.13-29.77,0-1.56-.13-1.69-1.69-1.69h-8.32c-2.21,0-3.38-1.69-3.38-3.51s1.17-3.64,3.38-3.64h8.32c1.43,0,1.82-.13,1.82-1.43s-.13-4.81-.13-8.97v-3.38c.39-14.04,10.79-21.71,20.93-21.71,1.3,0,5.85.13,5.85,3.64,0,1.82-1.43,3.51-3.9,3.51h-1.56c-8.45,0-13.39,6.89-13.78,15.34v4.03c0,3.12,0,5.98.13,7.67,0,1.17.26,1.3,1.56,1.3h13.52c2.21,0,3.38,1.82,3.38,3.51,0,1.82-1.17,3.64-3.38,3.64h-13.65c-1.3,0-1.43.13-1.43,1.69,0,0,.26,36.14.26,46.93,0,2.73-1.95,4.16-4.03,4.16-1.95,0-3.9-1.3-3.9-4.03v-.13Z"/>
      <path class="cls-1" d="M3156.58,97.22c-16.51,0-29.38-12.35-29.38-30.68s13.65-31.46,28.99-31.46c17.81,0,25.61,13.91,25.61,21.32,0,4.94-2.99,8.58-9.49,8.71-2.99.13-7.41.13-12.22.13-9.75,0-20.8-.13-23.66-.13-1.3,0-1.56.52-1.56,2.34,0,14.17,9.36,22.88,21.84,22.88,9.49,0,14.82-4.03,18.85-8.58.78-.78,1.69-1.17,2.6-1.17,1.95,0,3.9,1.69,3.9,3.77,0,2.99-9.1,12.87-25.48,12.87ZM3156.32,41.58c-12.48,0-20.41,11.18-20.41,15.99,0,1.3,1.17,1.3,16.25,1.3,6.76,0,14.04,0,17.68-.13,3.12-.13,4.29-1.56,4.29-3.64,0-3.77-4.55-13.52-17.81-13.52Z"/>
      <path class="cls-1" d="M3255.37,97.35c-13.52,0-21.06-7.8-21.06-11.44,0-2.21,1.95-3.77,3.9-3.77,1.17,0,2.34.52,3.25,1.69,2.86,4.03,7.54,6.5,13.91,6.5,7.41,0,13-4.16,13-9.75,0-6.89-5.59-9.49-20.67-16.25-7.15-3.12-10.53-8.84-10.53-14.43,0-7.67,6.24-14.95,17.68-14.95s18.07,5.59,18.07,9.1c0,2.08-1.69,3.77-3.77,3.77-1.04,0-2.34-.52-3.38-1.82-2.08-2.47-5.33-4.55-10.92-4.55-6.63,0-10.4,3.9-10.4,8.19,0,3.12,2.08,6.37,6.37,8.45,3.64,1.69,9.62,4.16,13.65,6.24,8.06,4.16,11.57,10.27,11.57,16.25,0,7.41-6.11,16.77-20.67,16.77Z"/>
      <path class="cls-1" d="M3300.35,12.85c-6.11,0-6.11-5.59-6.11-6.37,0-4.03,3.64-5.98,6.24-5.98,1.95,0,6.37,1.04,6.37,5.98,0,4.03-3.25,6.37-6.5,6.37ZM3304.64,92.54c0,2.6-2.08,3.9-4.16,3.9-1.95,0-4.03-1.3-4.03-3.9,0-11.05.13-26.26.13-38.35,0-6.11,0-11.44-.13-15.08v-.13c0-2.34,2.08-3.64,4.16-3.64,1.95,0,4.03,1.17,4.03,3.51v.13c-.13,5.46-.26,16.12-.26,27.3,0,9.23.13,18.85.26,26.13v.13Z"/>
      <path class="cls-1" d="M3343.25,43.14c-2.08,0-2.08.26-2.08,1.95,0,4.94-.39,18.33-.39,27.95,0,10.14.26,17.03,10.4,17.03,1.17,0,2.34-.13,3.64-.26h.52c1.95,0,3.12,1.69,3.12,3.38,0,3.38-3.12,4.03-8.32,4.03-16.64,0-16.64-14.17-16.64-19.89,0-8.32.26-24.18.26-30.55v-2.08c0-1.3-.39-1.56-1.3-1.56h-7.67c-2.47,0-3.64-1.69-3.64-3.38s1.17-3.38,3.64-3.38h7.54c1.17,0,1.43-.13,1.43-1.3,0-.52.13-6.76.13-11.31v-3.25c0-2.47,1.95-3.77,3.77-3.77,1.95,0,3.77,1.3,3.77,4.03,0,3.77-.26,14.17-.26,14.17,0,1.43.26,1.43,1.95,1.43h11.57c2.47,0,3.64,1.69,3.64,3.38s-1.17,3.38-3.64,3.38h-11.44Z"/>
      <path class="cls-1" d="M3400.32,97.22c-16.51,0-29.38-12.35-29.38-30.68s13.65-31.46,28.99-31.46c17.81,0,25.61,13.91,25.61,21.32,0,4.94-2.99,8.58-9.49,8.71-2.99.13-7.41.13-12.22.13-9.75,0-20.8-.13-23.66-.13-1.3,0-1.56.52-1.56,2.34,0,14.17,9.36,22.88,21.84,22.88,9.49,0,14.82-4.03,18.85-8.58.78-.78,1.69-1.17,2.6-1.17,1.95,0,3.9,1.69,3.9,3.77,0,2.99-9.1,12.87-25.48,12.87ZM3400.06,41.58c-12.48,0-20.41,11.18-20.41,15.99,0,1.3,1.17,1.3,16.25,1.3,6.76,0,14.04,0,17.68-.13,3.12-.13,4.29-1.56,4.29-3.64,0-3.77-4.55-13.52-17.81-13.52Z"/>
      <path class="cls-1" d="M3509.13,97.09c-20.02,0-30.55-15.21-30.55-30.68,0-17.29,12.22-31.85,29.9-31.85,13.13,0,21.71,7.15,21.71,11.05,0,2.21-1.82,3.9-3.77,3.9-1.17,0-2.34-.52-3.38-1.82-3.38-4.29-8.97-6.37-14.56-6.37-12.74,0-22.23,10.53-22.23,24.44,0,12.22,8.06,24.18,22.75,24.18,6.5,0,12.87-2.47,16.38-7.41,1.04-1.43,2.21-1.95,3.38-1.95,2.21,0,4.16,1.82,4.16,4.03,0,3.77-9.75,12.48-23.79,12.48Z"/>
      <path class="cls-1" d="M3586.74,86.56c-3.9,6.63-12.61,10.66-20.54,10.66-13.13,0-21.06-8.97-21.06-17.94,0-6.5,4.29-13.13,13.91-16.12,8.06-2.47,18.59-4.42,24.05-5.33,1.56-.26,2.08-.65,2.08-1.56,0-.65.13-1.43.13-2.08,0-7.15-2.99-12.74-13.52-12.74-7.02,0-12.22,2.99-15.21,6.24-.78.91-1.82,1.3-2.73,1.3-1.95,0-3.64-1.43-3.64-3.51,0-4.94,10.92-10.53,22.1-10.53,12.09,0,20.28,5.33,20.28,19.89,0,1.17,0,2.34-.13,3.64-.39,4.29-.65,10.14-.65,14.43,0,10.79,2.08,13.39,7.28,16.12,1.04.52,1.43,1.56,1.43,2.6,0,1.82-1.56,4.03-3.9,4.03-.78,0-7.28-1.82-9.1-8.97-.13-.39-.13-.52-.39-.52,0,0-.26.13-.39.39ZM3584.92,70.31c0-1.43.13-2.86.13-4.42,0-1.04-.39-1.43-1.3-1.43h-.39c-20.41,3.25-31.2,5.85-31.2,14.95,0,5.46,5.2,10.92,13.91,10.92,11.96,0,18.85-8.97,18.85-20.02Z"/>
      <path class="cls-1" d="M3622.49,92.02c.13-3.77.13-10.14.13-17.16,0-13.91-.13-29.77-.13-29.77,0-1.56-.13-1.69-1.69-1.69h-8.32c-2.21,0-3.38-1.69-3.38-3.51s1.17-3.64,3.38-3.64h8.32c1.43,0,1.82-.13,1.82-1.43s-.13-4.81-.13-8.97v-3.38c.39-14.04,10.79-21.71,20.93-21.71,1.3,0,5.85.13,5.85,3.64,0,1.82-1.43,3.51-3.9,3.51h-1.56c-8.45,0-13.39,6.89-13.78,15.34v4.03c0,3.12,0,5.98.13,7.67,0,1.17.26,1.3,1.56,1.3h13.52c2.21,0,3.38,1.82,3.38,3.51,0,1.82-1.17,3.64-3.38,3.64h-13.65c-1.3,0-1.43.13-1.43,1.69,0,0,.26,36.14.26,46.93,0,2.73-1.95,4.16-4.03,4.16-1.95,0-3.9-1.3-3.9-4.03v-.13Z"/>
      <path class="cls-1" d="M3688.27,97.22c-16.51,0-29.38-12.35-29.38-30.68s13.65-31.46,28.99-31.46c17.81,0,25.61,13.91,25.61,21.32,0,4.94-2.99,8.58-9.49,8.71-2.99.13-7.41.13-12.22.13-9.75,0-20.8-.13-23.66-.13-1.3,0-1.56.52-1.56,2.34,0,14.17,9.36,22.88,21.84,22.88,9.49,0,14.82-4.03,18.85-8.58.78-.78,1.69-1.17,2.6-1.17,1.95,0,3.9,1.69,3.9,3.77,0,2.99-9.1,12.87-25.48,12.87ZM3688.01,41.58c-12.48,0-20.41,11.18-20.41,15.99,0,1.3,1.17,1.3,16.25,1.3,6.76,0,14.04,0,17.68-.13,3.12-.13,4.29-1.56,4.29-3.64,0-3.77-4.55-13.52-17.81-13.52Z"/>
    </g>
  </g>
</svg>