<?xml version="1.0" encoding="UTF-8"?>
<svg id="_レイヤー_2" data-name="レイヤー 2" xmlns="http://www.w3.org/2000/svg" viewBox="0 0 2440.87 150.54">
  <defs>
    <style>
      .cls-1 {
        fill: none;
        stroke: #404648;
        stroke-miterlimit: 10;
      }
    </style>
  </defs>
  <g id="letter">
    <g>
      <path class="cls-1" d="M49.1,106.55c.15-6.3.3-18,.3-27.45,0-6.15-.15-11.4-.3-13.8-.75-12.45-8.7-17.55-17.25-17.55-10.35,0-21.75,7.8-22.2,19.5-.15,4.65-.3,13.5-.3,24.15,0,4.8,0,9.9.15,15.3v.15c0,2.7-2.1,4.05-4.35,4.05s-4.65-1.5-4.65-4.2v-.15c.3-11.7.45-38.85.45-62.7C.95,27.05.95,11.9.8,5v-.15C.8,2.45,3.05,1.1,5.3,1.1s4.5,1.35,4.5,4.2c0,5.55-.15,41.1-.15,44.25,0,.45.15.75.3.75s.3-.3.6-.6c5.25-6.75,13.8-10.2,22.2-10.2,12.45,0,24.45,7.8,25.05,24.15.15,4.8.3,15.9.3,26.25,0,6.3,0,12.45-.15,16.5,0,3-2.25,4.5-4.35,4.5-2.25,0-4.5-1.5-4.5-4.2v-.15Z"/>
      <path class="cls-1" d="M126.35,99.35c-4.5,7.65-14.55,12.3-23.7,12.3-15.15,0-24.3-10.35-24.3-20.7,0-7.5,4.95-15.15,16.05-18.6,9.3-2.85,21.45-5.1,27.75-6.15,1.8-.3,2.4-.75,2.4-1.8,0-.75.15-1.65.15-2.4,0-8.25-3.45-14.7-15.6-14.7-8.1,0-14.1,3.45-17.55,7.2-.9,1.05-2.1,1.5-3.15,1.5-2.25,0-4.2-1.65-4.2-4.05,0-5.7,12.6-12.15,25.5-12.15,13.95,0,23.4,6.15,23.4,22.95,0,1.35,0,2.7-.15,4.2-.45,4.95-.75,11.7-.75,16.65,0,12.45,2.4,15.45,8.4,18.6,1.2.6,1.65,1.8,1.65,3,0,2.1-1.8,4.65-4.5,4.65-.9,0-8.4-2.1-10.5-10.35-.15-.45-.15-.6-.45-.6,0,0-.3.15-.45.45ZM124.25,80.6c0-1.65.15-3.3.15-5.1,0-1.2-.45-1.65-1.5-1.65h-.45c-23.55,3.75-36,6.75-36,17.25,0,6.3,6,12.6,16.05,12.6,13.8,0,21.75-10.35,21.75-23.1Z"/>
      <path class="cls-1" d="M210.05,106.7c.15-6.3.3-18,.3-27.45,0-6.15-.15-11.4-.3-13.8-.75-12.15-8.4-17.25-16.8-17.25-10.5,0-22.35,8.1-22.65,20.1-.15,4.65-.3,12.9-.3,23.25,0,4.8,0,9.75.15,15.15v.15c0,2.7-2.1,4.05-4.35,4.05s-4.65-1.5-4.65-4.2v-.15c.3-12.15.6-26.1.6-38.85,0-8.4-.15-16.2-.3-22.8v-.15c0-2.4,2.4-3.9,4.8-3.9,2.1,0,4.2,1.2,4.2,4.05v5.7c0,.45.15.6.15.6.15,0,.45-.15.6-.45,5.4-7.2,13.95-10.8,22.2-10.8,12.45,0,24.45,8.1,25.05,24,.15,4.8.3,15.9.3,26.25,0,6.3,0,12.45-.15,16.5,0,3-2.1,4.35-4.35,4.35s-4.5-1.5-4.5-4.2v-.15Z"/>
      <path class="cls-1" d="M255.05,5.3c-.3,11.4-.45,27.6-.45,45.6,0,1.05,0,1.65.3,1.65s.75-.3,1.35-1.2c5.25-7.05,14.1-11.55,24.3-11.55,19.5,0,34.05,14.7,34.05,35.7s-14.55,35.7-34.05,35.7c-8.85,0-17.7-3.6-23.7-10.8-.9-1.2-1.35-1.8-1.65-1.8-.15,0-.3,0-.3,6.15s-4.2,6-4.5,6c-2.25,0-4.35-1.65-4.35-5.1,0-15.45.3-48.3.3-72.75,0-12.3,0-22.5-.3-27.3-.15-4.5,3.15-5.1,4.5-5.1,2.25,0,4.5,1.65,4.5,4.65v.15ZM305.6,75.5c0-16.8-11.1-28.05-25.35-28.05s-25.5,11.25-25.5,28.05,11.25,27.6,25.5,27.6,25.35-10.8,25.35-27.6Z"/>
      <path class="cls-1" d="M393.2,44.9c-.3,11.55-.45,23.85-.45,36.45,0,9.6.6,16.5,4.5,22.05.75,1.05,1.05,2.1,1.05,3,0,2.4-2.25,4.2-4.65,4.2-4.95,0-7.05-7.95-7.35-10.5-.15-.6-.15-.75-.3-.75s-.3,0-.45.3c-5.1,7.8-14.7,12-24.15,12-12.45,0-24.45-7.5-24.9-24-.15-5.4-.45-19.35-.45-30.75,0-4.65,0-9,.15-12.15,0-3,2.1-4.35,4.35-4.35s4.5,1.5,4.5,4.2v.15c-.15,6.3-.3,18.15-.3,27.9,0,6.3.15,11.55.3,13.95.75,12.3,8.55,17.4,16.95,17.4,10.5,0,21.9-7.95,22.2-20.25.15-5.1.3-10.2.3-15.3,0-7.95-.15-15.75-.3-23.7v-.15c0-2.7,2.1-4.05,4.35-4.05s4.65,1.5,4.65,4.2v.15Z"/>
      <path class="cls-1" d="M428.75,106.85c0,2.7-2.1,4.05-4.35,4.05-2.4,0-4.8-1.5-4.8-4.2v-.15c.3-12.15.6-26.25.6-39.15,0-8.4-.15-16.35-.3-22.95v-.15c0-2.4,2.4-3.9,4.65-3.9s4.5,1.35,4.5,4.2c0,2.25-.15,3.3-.15,5.4,0,.45.15.75.15.75.15,0,.45-.3.6-.6,6.6-9.15,20.1-10.05,21.9-10.05,3.15,0,4.65,1.95,4.65,4.05s-1.65,4.35-4.65,4.35c-10.65,0-22.5,6.75-22.8,18.3-.15,3.9-.15,10.8-.15,19.35,0,6.15,0,13.2.15,20.55v.15Z"/>
      <path class="cls-1" d="M499.55,40.25c6.75,0,12.75,1.2,18.6,4.5.75.45,1.35.6,1.95.6s1.2-.15,1.8-.6c3.9-2.7,7.35-4.05,11.55-4.05,6,0,6.9,2.55,6.9,4.5s-1.35,4.05-3.9,4.05c-.3,0-.75-.15-1.05-.15-.75-.15-1.65-.15-2.4-.15-4.95,0-7.8,2.55-7.8,4.35,0,.3.15.6.3,1.05,1.5,3.3,1.8,7.05,1.8,9.6,0,13.05-9.75,22.35-27.3,22.95-9.9.45-19.05,5.25-19.05,11.1,0,4.8,7.2,5.25,14.4,5.25,19.5,0,20.55.15,24.3.75,11.4,1.65,20.1,8.55,20.1,19.5,0,15.15-14.55,26.55-37.65,26.55-16.35,0-34.05-7.2-34.05-22.35,0-8.4,6.3-14.7,14.1-17.7,1.05-.45,1.65-.6,1.65-.75s-.9-.15-2.25-.6c-4.95-1.5-8.85-4.8-8.85-10.05,0-3,1.05-8.85,10.5-13.65,1.05-.6,1.5-.9,1.5-1.2s-.9-.6-1.95-1.2c-5.7-3.3-10.65-9.9-10.65-18.45,0-15.45,13.05-23.85,27.15-23.85h.3ZM504.65,110.6c-2.4,0-4.8,0-6.75.15-10.35.6-21.6,6.9-21.6,16.5,0,7.05,7.2,14.85,24.75,14.85,15.6,0,29.85-6.3,29.85-18.3,0-13.05-15.75-13.2-26.25-13.2ZM499.7,47.15c-9.9,0-19.2,5.7-19.2,16.5,0,16.35,17.4,16.35,18.75,16.35,1.95,0,19.8-.75,19.8-16.5s-16.95-16.35-19.35-16.35Z"/>
      <path class="cls-1" d="M585.64,111.65c-19.05,0-33.9-14.25-33.9-35.4s15.75-36.3,33.45-36.3c20.55,0,29.55,16.05,29.55,24.6,0,5.7-3.45,9.9-10.95,10.05-3.45.15-8.55.15-14.1.15-11.25,0-24-.15-27.3-.15-1.5,0-1.8.6-1.8,2.7,0,16.35,10.8,26.4,25.2,26.4,10.95,0,17.1-4.65,21.75-9.9.9-.9,1.95-1.35,3-1.35,2.25,0,4.5,1.95,4.5,4.35,0,3.45-10.5,14.85-29.4,14.85ZM585.34,47.45c-14.4,0-23.55,12.9-23.55,18.45,0,1.5,1.35,1.5,18.75,1.5,7.8,0,16.2,0,20.4-.15,3.6-.15,4.95-1.8,4.95-4.2,0-4.35-5.25-15.6-20.55-15.6Z"/>
      <path class="cls-1" d="M645.64,106.85c0,2.7-2.1,4.05-4.35,4.05-2.4,0-4.8-1.5-4.8-4.2v-.15c.3-12.15.6-26.25.6-39.15,0-8.4-.15-16.35-.3-22.95v-.15c0-2.4,2.4-3.9,4.65-3.9s4.5,1.35,4.5,4.2c0,2.25-.15,3.3-.15,5.4,0,.45.15.75.15.75.15,0,.45-.3.6-.6,6.6-9.15,20.1-10.05,21.9-10.05,3.15,0,4.65,1.95,4.65,4.05s-1.65,4.35-4.65,4.35c-10.65,0-22.5,6.75-22.8,18.3-.15,3.9-.15,10.8-.15,19.35,0,6.15,0,13.2.15,20.55v.15Z"/>
      <path class="cls-1" d="M746.89,5.3c-.3,11.4-.45,27.6-.45,45.6,0,1.05,0,1.65.3,1.65s.75-.3,1.35-1.2c5.25-7.05,14.1-11.55,24.3-11.55,19.5,0,34.05,14.7,34.05,35.7s-14.55,35.7-34.05,35.7c-8.85,0-17.7-3.6-23.7-10.8-.9-1.2-1.35-1.8-1.65-1.8-.15,0-.3,0-.3,6.15s-4.2,6-4.5,6c-2.25,0-4.35-1.65-4.35-5.1,0-15.45.3-48.3.3-72.75,0-12.3,0-22.5-.3-27.3-.15-4.5,3.15-5.1,4.5-5.1,2.25,0,4.5,1.65,4.5,4.65v.15ZM797.44,75.5c0-16.8-11.1-28.05-25.35-28.05s-25.5,11.25-25.5,28.05,11.25,27.6,25.5,27.6,25.35-10.8,25.35-27.6Z"/>
      <path class="cls-1" d="M870.94,99.35c-4.5,7.65-14.55,12.3-23.7,12.3-15.15,0-24.3-10.35-24.3-20.7,0-7.5,4.95-15.15,16.05-18.6,9.3-2.85,21.45-5.1,27.75-6.15,1.8-.3,2.4-.75,2.4-1.8,0-.75.15-1.65.15-2.4,0-8.25-3.45-14.7-15.6-14.7-8.1,0-14.1,3.45-17.55,7.2-.9,1.05-2.1,1.5-3.15,1.5-2.25,0-4.2-1.65-4.2-4.05,0-5.7,12.6-12.15,25.5-12.15,13.95,0,23.4,6.15,23.4,22.95,0,1.35,0,2.7-.15,4.2-.45,4.95-.75,11.7-.75,16.65,0,12.45,2.4,15.45,8.4,18.6,1.2.6,1.65,1.8,1.65,3,0,2.1-1.8,4.65-4.5,4.65-.9,0-8.4-2.1-10.5-10.35-.15-.45-.15-.6-.45-.6,0,0-.3.15-.45.45ZM868.84,80.6c0-1.65.15-3.3.15-5.1,0-1.2-.45-1.65-1.5-1.65h-.45c-23.55,3.75-36,6.75-36,17.25,0,6.3,6,12.6,16.05,12.6,13.8,0,21.75-10.35,21.75-23.1Z"/>
      <path class="cls-1" d="M954.64,106.7c.15-6.3.3-18,.3-27.45,0-6.15-.15-11.4-.3-13.8-.75-12.15-8.4-17.25-16.8-17.25-10.5,0-22.35,8.1-22.65,20.1-.15,4.65-.3,12.9-.3,23.25,0,4.8,0,9.75.15,15.15v.15c0,2.7-2.1,4.05-4.35,4.05s-4.65-1.5-4.65-4.2v-.15c.3-12.15.6-26.1.6-38.85,0-8.4-.15-16.2-.3-22.8v-.15c0-2.4,2.4-3.9,4.8-3.9,2.1,0,4.2,1.2,4.2,4.05v5.7c0,.45.15.6.15.6.15,0,.45-.15.6-.45,5.4-7.2,13.95-10.8,22.2-10.8,12.45,0,24.45,8.1,25.05,24,.15,4.8.3,15.9.3,26.25,0,6.3,0,12.45-.15,16.5,0,3-2.1,4.35-4.35,4.35s-4.5-1.5-4.5-4.2v-.15Z"/>
      <path class="cls-1" d="M1038.04,106.7c.15-6.3.3-18,.3-27.45,0-6.15-.15-11.4-.3-13.8-.75-12.15-8.4-17.25-16.8-17.25-10.5,0-22.35,8.1-22.65,20.1-.15,4.65-.3,12.9-.3,23.25,0,4.8,0,9.75.15,15.15v.15c0,2.7-2.1,4.05-4.35,4.05s-4.65-1.5-4.65-4.2v-.15c.3-12.15.6-26.1.6-38.85,0-8.4-.15-16.2-.3-22.8v-.15c0-2.4,2.4-3.9,4.8-3.9,2.1,0,4.2,1.2,4.2,4.05v5.7c0,.45.15.6.15.6.15,0,.45-.15.6-.45,5.4-7.2,13.95-10.8,22.2-10.8,12.45,0,24.45,8.1,25.05,24,.15,4.8.3,15.9.3,26.25,0,6.3,0,12.45-.15,16.5,0,3-2.1,4.35-4.35,4.35s-4.5-1.5-4.5-4.2v-.15Z"/>
      <path class="cls-1" d="M1101.19,111.65c-19.05,0-33.9-14.25-33.9-35.4s15.75-36.3,33.45-36.3c20.55,0,29.55,16.05,29.55,24.6,0,5.7-3.45,9.9-10.95,10.05-3.45.15-8.55.15-14.1.15-11.25,0-24-.15-27.3-.15-1.5,0-1.8.6-1.8,2.7,0,16.35,10.8,26.4,25.2,26.4,10.95,0,17.1-4.65,21.75-9.9.9-.9,1.95-1.35,3-1.35,2.25,0,4.5,1.95,4.5,4.35,0,3.45-10.5,14.85-29.4,14.85ZM1100.89,47.45c-14.4,0-23.55,12.9-23.55,18.45,0,1.5,1.35,1.5,18.75,1.5,7.8,0,16.2,0,20.4-.15,3.6-.15,4.95-1.8,4.95-4.2,0-4.35-5.25-15.6-20.55-15.6Z"/>
      <path class="cls-1" d="M1161.19,106.85c0,2.7-2.1,4.05-4.35,4.05-2.4,0-4.8-1.5-4.8-4.2v-.15c.3-12.15.6-26.25.6-39.15,0-8.4-.15-16.35-.3-22.95v-.15c0-2.4,2.4-3.9,4.65-3.9s4.5,1.35,4.5,4.2c0,2.25-.15,3.3-.15,5.4,0,.45.15.75.15.75.15,0,.45-.3.6-.6,6.6-9.15,20.1-10.05,21.9-10.05,3.15,0,4.65,1.95,4.65,4.05s-1.65,4.35-4.65,4.35c-10.65,0-22.5,6.75-22.8,18.3-.15,3.9-.15,10.8-.15,19.35,0,6.15,0,13.2.15,20.55v.15Z"/>
      <path class="cls-1" d="M1300.83,106.55c.15-6.3.3-18,.3-27.45,0-6.15-.15-11.4-.3-13.8-.75-12.45-8.7-17.55-17.25-17.55-10.35,0-21.75,7.8-22.2,19.5-.15,4.65-.3,13.5-.3,24.15,0,4.8,0,9.9.15,15.3v.15c0,2.7-2.1,4.05-4.35,4.05s-4.65-1.5-4.65-4.2v-.15c.3-11.7.45-38.85.45-62.7,0-16.8,0-31.95-.15-38.85v-.15c0-2.4,2.25-3.75,4.5-3.75s4.5,1.35,4.5,4.2c0,5.55-.15,41.1-.15,44.25,0,.45.15.75.3.75s.3-.3.6-.6c5.25-6.75,13.8-10.2,22.2-10.2,12.45,0,24.45,7.8,25.05,24.15.15,4.8.3,15.9.3,26.25,0,6.3,0,12.45-.15,16.5,0,3-2.25,4.5-4.35,4.5-2.25,0-4.5-1.5-4.5-4.2v-.15Z"/>
      <path class="cls-1" d="M1378.08,99.35c-4.5,7.65-14.55,12.3-23.7,12.3-15.15,0-24.3-10.35-24.3-20.7,0-7.5,4.95-15.15,16.05-18.6,9.3-2.85,21.45-5.1,27.75-6.15,1.8-.3,2.4-.75,2.4-1.8,0-.75.15-1.65.15-2.4,0-8.25-3.45-14.7-15.6-14.7-8.1,0-14.1,3.45-17.55,7.2-.9,1.05-2.1,1.5-3.15,1.5-2.25,0-4.2-1.65-4.2-4.05,0-5.7,12.6-12.15,25.5-12.15,13.95,0,23.4,6.15,23.4,22.95,0,1.35,0,2.7-.15,4.2-.45,4.95-.75,11.7-.75,16.65,0,12.45,2.4,15.45,8.4,18.6,1.2.6,1.65,1.8,1.65,3,0,2.1-1.8,4.65-4.5,4.65-.9,0-8.4-2.1-10.5-10.35-.15-.45-.15-.6-.45-.6,0,0-.3.15-.45.45ZM1375.99,80.6c0-1.65.15-3.3.15-5.1,0-1.2-.45-1.65-1.5-1.65h-.45c-23.55,3.75-36,6.75-36,17.25,0,6.3,6,12.6,16.05,12.6,13.8,0,21.75-10.35,21.75-23.1Z"/>
      <path class="cls-1" d="M1461.78,106.7c.15-6.3.3-18,.3-27.45,0-6.15-.15-11.4-.3-13.8-.75-12.15-8.4-17.25-16.8-17.25-10.5,0-22.35,8.1-22.65,20.1-.15,4.65-.3,12.9-.3,23.25,0,4.8,0,9.75.15,15.15v.15c0,2.7-2.1,4.05-4.35,4.05s-4.65-1.5-4.65-4.2v-.15c.3-12.15.6-26.1.6-38.85,0-8.4-.15-16.2-.3-22.8v-.15c0-2.4,2.4-3.9,4.8-3.9,2.1,0,4.2,1.2,4.2,4.05v5.7c0,.45.15.6.15.6.15,0,.45-.15.6-.45,5.4-7.2,13.95-10.8,22.2-10.8,12.45,0,24.45,8.1,25.05,24,.15,4.8.3,15.9.3,26.25,0,6.3,0,12.45-.15,16.5,0,3-2.1,4.35-4.35,4.35s-4.5-1.5-4.5-4.2v-.15Z"/>
      <path class="cls-1" d="M1506.79,5.3c-.3,11.4-.45,27.6-.45,45.6,0,1.05,0,1.65.3,1.65s.75-.3,1.35-1.2c5.25-7.05,14.1-11.55,24.3-11.55,19.5,0,34.05,14.7,34.05,35.7s-14.55,35.7-34.05,35.7c-8.85,0-17.7-3.6-23.7-10.8-.9-1.2-1.35-1.8-1.65-1.8-.15,0-.3,0-.3,6.15s-4.2,6-4.5,6c-2.25,0-4.35-1.65-4.35-5.1,0-15.45.3-48.3.3-72.75,0-12.3,0-22.5-.3-27.3-.15-4.5,3.15-5.1,4.5-5.1,2.25,0,4.5,1.65,4.5,4.65v.15ZM1557.33,75.5c0-16.8-11.1-28.05-25.35-28.05s-25.5,11.25-25.5,28.05,11.25,27.6,25.5,27.6,25.35-10.8,25.35-27.6Z"/>
      <path class="cls-1" d="M1644.93,44.9c-.3,11.55-.45,23.85-.45,36.45,0,9.6.6,16.5,4.5,22.05.75,1.05,1.05,2.1,1.05,3,0,2.4-2.25,4.2-4.65,4.2-4.95,0-7.05-7.95-7.35-10.5-.15-.6-.15-.75-.3-.75s-.3,0-.45.3c-5.1,7.8-14.7,12-24.15,12-12.45,0-24.45-7.5-24.9-24-.15-5.4-.45-19.35-.45-30.75,0-4.65,0-9,.15-12.15,0-3,2.1-4.35,4.35-4.35s4.5,1.5,4.5,4.2v.15c-.15,6.3-.3,18.15-.3,27.9,0,6.3.15,11.55.3,13.95.75,12.3,8.55,17.4,16.95,17.4,10.5,0,21.9-7.95,22.2-20.25.15-5.1.3-10.2.3-15.3,0-7.95-.15-15.75-.3-23.7v-.15c0-2.7,2.1-4.05,4.35-4.05s4.65,1.5,4.65,4.2v.15Z"/>
      <path class="cls-1" d="M1680.48,106.85c0,2.7-2.1,4.05-4.35,4.05-2.4,0-4.8-1.5-4.8-4.2v-.15c.3-12.15.6-26.25.6-39.15,0-8.4-.15-16.35-.3-22.95v-.15c0-2.4,2.4-3.9,4.65-3.9s4.5,1.35,4.5,4.2c0,2.25-.15,3.3-.15,5.4,0,.45.15.75.15.75.15,0,.45-.3.6-.6,6.6-9.15,20.1-10.05,21.9-10.05,3.15,0,4.65,1.95,4.65,4.05s-1.65,4.35-4.65,4.35c-10.65,0-22.5,6.75-22.8,18.3-.15,3.9-.15,10.8-.15,19.35,0,6.15,0,13.2.15,20.55v.15Z"/>
      <path class="cls-1" d="M1751.28,40.25c6.75,0,12.75,1.2,18.6,4.5.75.45,1.35.6,1.95.6s1.2-.15,1.8-.6c3.9-2.7,7.35-4.05,11.55-4.05,6,0,6.9,2.55,6.9,4.5s-1.35,4.05-3.9,4.05c-.3,0-.75-.15-1.05-.15-.75-.15-1.65-.15-2.4-.15-4.95,0-7.8,2.55-7.8,4.35,0,.3.15.6.3,1.05,1.5,3.3,1.8,7.05,1.8,9.6,0,13.05-9.75,22.35-27.3,22.95-9.9.45-19.05,5.25-19.05,11.1,0,4.8,7.2,5.25,14.4,5.25,19.5,0,20.55.15,24.3.75,11.4,1.65,20.1,8.55,20.1,19.5,0,15.15-14.55,26.55-37.65,26.55-16.35,0-34.05-7.2-34.05-22.35,0-8.4,6.3-14.7,14.1-17.7,1.05-.45,1.65-.6,1.65-.75s-.9-.15-2.25-.6c-4.95-1.5-8.85-4.8-8.85-10.05,0-3,1.05-8.85,10.5-13.65,1.05-.6,1.5-.9,1.5-1.2s-.9-.6-1.95-1.2c-5.7-3.3-10.65-9.9-10.65-18.45,0-15.45,13.05-23.85,27.15-23.85h.3ZM1756.38,110.6c-2.4,0-4.8,0-6.75.15-10.35.6-21.6,6.9-21.6,16.5,0,7.05,7.2,14.85,24.75,14.85,15.6,0,29.85-6.3,29.85-18.3,0-13.05-15.75-13.2-26.25-13.2ZM1751.43,47.15c-9.9,0-19.2,5.7-19.2,16.5,0,16.35,17.4,16.35,18.75,16.35,1.95,0,19.8-.75,19.8-16.5s-16.95-16.35-19.35-16.35Z"/>
      <path class="cls-1" d="M1837.38,111.65c-19.05,0-33.9-14.25-33.9-35.4s15.75-36.3,33.45-36.3c20.55,0,29.55,16.05,29.55,24.6,0,5.7-3.45,9.9-10.95,10.05-3.45.15-8.55.15-14.1.15-11.25,0-24-.15-27.3-.15-1.5,0-1.8.6-1.8,2.7,0,16.35,10.8,26.4,25.2,26.4,10.95,0,17.1-4.65,21.75-9.9.9-.9,1.95-1.35,3-1.35,2.25,0,4.5,1.95,4.5,4.35,0,3.45-10.5,14.85-29.4,14.85ZM1837.08,47.45c-14.4,0-23.55,12.9-23.55,18.45,0,1.5,1.35,1.5,18.75,1.5,7.8,0,16.2,0,20.4-.15,3.6-.15,4.95-1.8,4.95-4.2,0-4.35-5.25-15.6-20.55-15.6Z"/>
      <path class="cls-1" d="M1897.38,106.85c0,2.7-2.1,4.05-4.35,4.05-2.4,0-4.8-1.5-4.8-4.2v-.15c.3-12.15.6-26.25.6-39.15,0-8.4-.15-16.35-.3-22.95v-.15c0-2.4,2.4-3.9,4.65-3.9s4.5,1.35,4.5,4.2c0,2.25-.15,3.3-.15,5.4,0,.45.15.75.15.75.15,0,.45-.3.6-.6,6.6-9.15,20.1-10.05,21.9-10.05,3.15,0,4.65,1.95,4.65,4.05s-1.65,4.35-4.65,4.35c-10.65,0-22.5,6.75-22.8,18.3-.15,3.9-.15,10.8-.15,19.35,0,6.15,0,13.2.15,20.55v.15Z"/>
      <path class="cls-1" d="M1998.63,5.3c-.3,11.4-.45,27.6-.45,45.6,0,1.05,0,1.65.3,1.65s.75-.3,1.35-1.2c5.25-7.05,14.1-11.55,24.3-11.55,19.5,0,34.05,14.7,34.05,35.7s-14.55,35.7-34.05,35.7c-8.85,0-17.7-3.6-23.7-10.8-.9-1.2-1.35-1.8-1.65-1.8-.15,0-.3,0-.3,6.15s-4.2,6-4.5,6c-2.25,0-4.35-1.65-4.35-5.1,0-15.45.3-48.3.3-72.75,0-12.3,0-22.5-.3-27.3-.15-4.5,3.15-5.1,4.5-5.1,2.25,0,4.5,1.65,4.5,4.65v.15ZM2049.17,75.5c0-16.8-11.1-28.05-25.35-28.05s-25.5,11.25-25.5,28.05,11.25,27.6,25.5,27.6,25.35-10.8,25.35-27.6Z"/>
      <path class="cls-1" d="M2122.67,99.35c-4.5,7.65-14.55,12.3-23.7,12.3-15.15,0-24.3-10.35-24.3-20.7,0-7.5,4.95-15.15,16.05-18.6,9.3-2.85,21.45-5.1,27.75-6.15,1.8-.3,2.4-.75,2.4-1.8,0-.75.15-1.65.15-2.4,0-8.25-3.45-14.7-15.6-14.7-8.1,0-14.1,3.45-17.55,7.2-.9,1.05-2.1,1.5-3.15,1.5-2.25,0-4.2-1.65-4.2-4.05,0-5.7,12.6-12.15,25.5-12.15,13.95,0,23.4,6.15,23.4,22.95,0,1.35,0,2.7-.15,4.2-.45,4.95-.75,11.7-.75,16.65,0,12.45,2.4,15.45,8.4,18.6,1.2.6,1.65,1.8,1.65,3,0,2.1-1.8,4.65-4.5,4.65-.9,0-8.4-2.1-10.5-10.35-.15-.45-.15-.6-.45-.6,0,0-.3.15-.45.45ZM2120.58,80.6c0-1.65.15-3.3.15-5.1,0-1.2-.45-1.65-1.5-1.65h-.45c-23.55,3.75-36,6.75-36,17.25,0,6.3,6,12.6,16.05,12.6,13.8,0,21.75-10.35,21.75-23.1Z"/>
      <path class="cls-1" d="M2206.37,106.7c.15-6.3.3-18,.3-27.45,0-6.15-.15-11.4-.3-13.8-.75-12.15-8.4-17.25-16.8-17.25-10.5,0-22.35,8.1-22.65,20.1-.15,4.65-.3,12.9-.3,23.25,0,4.8,0,9.75.15,15.15v.15c0,2.7-2.1,4.05-4.35,4.05s-4.65-1.5-4.65-4.2v-.15c.3-12.15.6-26.1.6-38.85,0-8.4-.15-16.2-.3-22.8v-.15c0-2.4,2.4-3.9,4.8-3.9,2.1,0,4.2,1.2,4.2,4.05v5.7c0,.45.15.6.15.6.15,0,.45-.15.6-.45,5.4-7.2,13.95-10.8,22.2-10.8,12.45,0,24.45,8.1,25.05,24,.15,4.8.3,15.9.3,26.25,0,6.3,0,12.45-.15,16.5,0,3-2.1,4.35-4.35,4.35s-4.5-1.5-4.5-4.2v-.15Z"/>
      <path class="cls-1" d="M2289.77,106.7c.15-6.3.3-18,.3-27.45,0-6.15-.15-11.4-.3-13.8-.75-12.15-8.4-17.25-16.8-17.25-10.5,0-22.35,8.1-22.65,20.1-.15,4.65-.3,12.9-.3,23.25,0,4.8,0,9.75.15,15.15v.15c0,2.7-2.1,4.05-4.35,4.05s-4.65-1.5-4.65-4.2v-.15c.3-12.15.6-26.1.6-38.85,0-8.4-.15-16.2-.3-22.8v-.15c0-2.4,2.4-3.9,4.8-3.9,2.1,0,4.2,1.2,4.2,4.05v5.7c0,.45.15.6.15.6.15,0,.45-.15.6-.45,5.4-7.2,13.95-10.8,22.2-10.8,12.45,0,24.45,8.1,25.05,24,.15,4.8.3,15.9.3,26.25,0,6.3,0,12.45-.15,16.5,0,3-2.1,4.35-4.35,4.35s-4.5-1.5-4.5-4.2v-.15Z"/>
      <path class="cls-1" d="M2352.93,111.65c-19.05,0-33.9-14.25-33.9-35.4s15.75-36.3,33.45-36.3c20.55,0,29.55,16.05,29.55,24.6,0,5.7-3.45,9.9-10.95,10.05-3.45.15-8.55.15-14.1.15-11.25,0-24-.15-27.3-.15-1.5,0-1.8.6-1.8,2.7,0,16.35,10.8,26.4,25.2,26.4,10.95,0,17.1-4.65,21.75-9.9.9-.9,1.95-1.35,3-1.35,2.25,0,4.5,1.95,4.5,4.35,0,3.45-10.5,14.85-29.4,14.85ZM2352.63,47.45c-14.4,0-23.55,12.9-23.55,18.45,0,1.5,1.35,1.5,18.75,1.5,7.8,0,16.2,0,20.4-.15,3.6-.15,4.95-1.8,4.95-4.2,0-4.35-5.25-15.6-20.55-15.6Z"/>
      <path class="cls-1" d="M2412.92,106.85c0,2.7-2.1,4.05-4.35,4.05-2.4,0-4.8-1.5-4.8-4.2v-.15c.3-12.15.6-26.25.6-39.15,0-8.4-.15-16.35-.3-22.95v-.15c0-2.4,2.4-3.9,4.65-3.9s4.5,1.35,4.5,4.2c0,2.25-.15,3.3-.15,5.4,0,.45.15.75.15.75.15,0,.45-.3.6-.6,6.6-9.15,20.1-10.05,21.9-10.05,3.15,0,4.65,1.95,4.65,4.05s-1.65,4.35-4.65,4.35c-10.65,0-22.5,6.75-22.8,18.3-.15,3.9-.15,10.8-.15,19.35,0,6.15,0,13.2.15,20.55v.15Z"/>
    </g>
  </g>
</svg>